<?xml version="1.0" encoding="UTF-8" standalone="no"?>
<!-- Created with Inkscape (http://www.inkscape.org/) -->

<svg
   width="369.36795mm"
   height="64.322563mm"
   viewBox="0 0 369.36795 64.322563"
   version="1.1"
   id="svg1"
   xml:space="preserve"
   xmlns="http://www.w3.org/2000/svg"
   xmlns:svg="http://www.w3.org/2000/svg"><defs
     id="defs1" /><g
     id="layer1"
     transform="translate(-99.711054,-1466.544)"><path
       style="fill:#ffffff"
       d="m 182.07225,1529.2206 -1.65365,-1.6212 v -8.8874 -8.8873 l 1.60619,-1.5284 1.6062,-1.5284 h 4.96588 4.96588 l 1.6402,1.5368 1.6402,1.5367 -0.0763,2.6304 -0.0763,2.6305 -1.91823,0.078 -1.91823,0.078 v -1.8227 c 0,-1.4297 -0.10431,-1.917 -0.48386,-2.2605 -0.39788,-0.3601 -1.09363,-0.4379 -3.91583,-0.4379 -2.31654,0 -3.53517,0.1032 -3.74948,0.3175 -0.23163,0.2316 -0.3175,2.2957 -0.3175,7.6319 0,6.7501 0.0373,7.3482 0.48385,7.7523 0.39599,0.3583 1.08528,0.4379 3.79546,0.4379 2.8722,0 3.36969,-0.064 3.74947,-0.4839 0.32229,-0.3561 0.43789,-0.9878 0.43789,-2.3928 v -1.909 l 1.91823,0.078 1.91823,0.078 0.0763,2.6284 0.0763,2.6285 -1.65618,1.671 -1.65617,1.671 h -4.90243 -4.90244 z m 30.9486,-0.036 -1.646,-1.6608 v -8.7318 -8.7318 l 1.66077,-1.646 1.66076,-1.646 h 5.02825 5.02824 l 1.51308,1.5291 1.51307,1.529 v 8.9964 8.9965 l -1.52903,1.513 -1.52903,1.5131 h -5.02705 -5.02705 z m 10.3264,-2.6763 c 0.42153,-0.32 0.46302,-1.0138 0.46302,-7.7439 0,-5.3969 -0.0857,-7.4781 -0.3175,-7.7099 -0.21544,-0.2155 -1.42739,-0.3148 -3.77031,-0.3091 -2.4511,0.01 -3.58715,0.1104 -3.91584,0.3599 -0.42109,0.3196 -0.46302,1.0059 -0.46302,7.5775 0,6.3526 0.0529,7.2845 0.43788,7.7099 0.38093,0.4209 0.87133,0.4828 3.77032,0.4755 2.35095,-0.01 3.4688,-0.112 3.79545,-0.3599 z m 19.7776,-7.7015 v -12.0386 h 1.98438 1.98437 v 10.0542 10.0542 h 5.68854 5.68855 v 1.9843 1.9844 h -7.67292 -7.67292 z m 29.80518,11.8576 c -0.0995,-0.1 -0.17439,-5.5169 -0.16638,-12.0386 l 0.0145,-11.8576 h 2.10666 2.10666 v 10.0542 10.0542 h 5.82083 5.82084 v 1.9843 1.9844 h -7.76112 c -4.26861,0 -7.84253,-0.081 -7.94204,-0.1809 z m 29.99066,-11.8576 v -12.0386 h 8.21367 8.21368 l -0.0777,1.8791 -0.0777,1.8791 -3.70417,0.078 c -2.03729,0.043 -4.80549,0.09 -6.15156,0.1053 l -2.44739,0.027 v 3.0427 3.0427 h 4.6302 4.63021 v 1.8458 1.8459 l -4.56406,0.072 -4.56406,0.072 -0.0745,3.1088 -0.0745,3.1089 h 6.22611 6.2261 v 1.9843 1.9844 h -8.20208 -8.20208 z m 32.99849,10.5095 -1.51308,-1.529 v -8.9805 -8.9805 l 1.51308,-1.529 1.51307,-1.5291 h 5.04365 5.04364 l 1.51308,1.5291 1.51307,1.529 v 2.7043 2.7043 h -1.98438 -1.98437 v -1.952 c 0,-1.3864 -0.11166,-2.0446 -0.38536,-2.2718 -0.26052,-0.2162 -1.48194,-0.3123 -3.77032,-0.2968 -3.00731,0.02 -3.4324,0.08 -3.81033,0.5348 -0.36401,0.438 -0.43141,1.4973 -0.46717,7.3421 -0.0314,5.1377 0.043,6.9941 0.30045,7.4916 0.33476,0.647 0.41654,0.6631 3.74459,0.7358 2.88891,0.063 3.47674,0.01 3.89525,-0.3717 0.39557,-0.358 0.49289,-0.8298 0.49289,-2.3895 v -1.9433 h 1.98437 1.98438 v 2.8842 2.8841 l -1.65152,1.4815 -1.65152,1.4814 h -4.9052 -4.9052 z m 35.79317,-8.517 v -10.046 l -3.24114,-0.074 -3.24115,-0.074 -0.0777,-1.9182 -0.0777,-1.9183 h 8.74284 8.74284 v 1.8213 c 0,1.665 -0.0511,1.8349 -0.59531,1.9807 -0.32742,0.088 -1.80297,0.1612 -3.27899,0.1632 -2.20084,0 -2.71256,0.079 -2.84427,0.4221 -0.0883,0.2302 -0.1606,4.7546 -0.1606,10.0542 v 9.6356 h -1.98437 -1.98438 z m 27.25209,-1.9925 v -12.0608 l 2.05052,0.077 2.05052,0.077 v 11.9063 11.9062 l -2.05052,0.077 -2.05052,0.077 z m 26.05675,11.7078 c -0.0662,-0.1819 -0.41152,-1.4618 -0.76734,-2.8443 -0.35582,-1.3824 -1.13134,-4.3888 -1.72338,-6.6807 -0.59205,-2.292 -1.56645,-6.0424 -2.16535,-8.3344 -0.59889,-2.2919 -1.18166,-4.5541 -1.29505,-5.0271 l -0.20615,-0.8599 h 2.07097 c 1.77941,0 2.09275,0.069 2.22566,0.4874 0.0851,0.2681 0.97678,3.7507 1.98155,7.7391 1.00477,3.9884 2.08193,8.2042 2.39369,9.3683 0.31175,1.1642 0.67824,2.2298 0.8144,2.368 0.15637,0.1588 0.32956,0.1588 0.4701,0 0.12239,-0.1382 0.84701,-2.6326 1.61027,-5.543 0.76325,-2.9104 1.93931,-7.3455 2.61346,-9.8557 l 1.22572,-4.5641 h 2.05881 c 1.13234,0 2.05805,0.03 2.05712,0.066 -9.3e-4,0.036 -0.36686,1.4353 -0.81318,3.1088 -0.44632,1.6735 -1.10294,4.1143 -1.45914,5.424 -0.3562,1.3097 -1.30375,4.9411 -2.10567,8.0698 -0.80191,3.1287 -1.58252,6.0755 -1.73469,6.5484 l -0.27667,0.8599 h -3.42737 c -2.5013,0 -3.4599,-0.089 -3.54776,-0.3307 z m 27.91825,-11.7078 v -12.0386 h 8.06979 8.06979 v 1.9844 1.9844 h -6.08541 -6.08542 v 3.0427 3.0427 h 4.63021 4.63021 v 1.8521 1.8521 h -4.63021 -4.63021 v 3.175 3.175 h 6.08542 6.08541 v 1.9843 1.9844 h -8.06979 -8.06979 z m -337.8164,-4.8356 c -8.48188,-8.4 -15.41727,-15.376 -15.41198,-15.5021 0.005,-0.1262 3.07548,-3.3378 6.82264,-7.137 3.74716,-3.7991 10.77642,-10.8992 15.62057,-15.7779 l 8.80755,-8.8703 15.73336,15.875 15.73337,15.875 -6.94612,6.8915 c -3.82037,3.7904 -10.86597,10.7258 -15.6569,15.412 -4.79092,4.6862 -8.83905,8.5173 -8.99583,8.5135 -0.15678,0 -7.22478,-6.8796 -15.70666,-15.2797 z m 12.03815,-8.581 1.13449,-1.1134 v -2.1736 c 0,-1.9248 -0.0747,-2.2623 -0.65292,-2.9495 l -0.65292,-0.7759 0.66529,-0.625 c 0.61351,-0.5764 0.6615,-0.7905 0.61658,-2.7501 l -0.0487,-2.1251 -1.12633,-1.1313 -1.12633,-1.1314 -4.19514,0.073 -4.19514,0.073 -0.0701,7.8714 -0.0701,7.8714 h 4.2934 4.2934 z m -6.81553,-2.0596 c -0.007,-0.2193 -0.0606,-0.937 -0.11936,-1.5948 -0.0588,-0.6577 -0.0133,-1.3473 0.10104,-1.5323 0.14916,-0.2413 0.87424,-0.3145 2.56676,-0.2592 l 2.35887,0.077 0.0789,1.657 c 0.0562,1.1803 -0.0199,1.6898 -0.26458,1.7708 -0.18889,0.062 -1.32571,0.1511 -2.52626,0.1969 -1.80129,0.069 -2.185,0.014 -2.19533,-0.3155 z m 0.67398,-6.3106 -0.79375,-0.1736 v -1.7198 -1.7198 l 2.20846,-0.077 c 1.40062,-0.049 2.34424,0.035 2.57968,0.2308 0.23241,0.1929 0.37124,0.8281 0.37124,1.6986 0,0.8069 -0.1388,1.4919 -0.33073,1.6323 -0.1819,0.1331 -0.98558,0.2556 -1.78594,0.2722 -0.80037,0.017 -1.8124,-0.048 -2.24896,-0.1434 z m 22.76662,8.4129 c 1.02221,-1.0466 1.04588,-1.114 1.04588,-2.9766 v -1.9058 l -1.38906,-0.08 -1.38906,-0.08 v 1.4773 c 0,0.9475 -0.11863,1.5164 -0.33073,1.5862 -0.1819,0.06 -1.24571,0.1591 -2.36402,0.2206 -1.23663,0.068 -2.1437,0 -2.3151,-0.1701 -0.17802,-0.178 -0.28182,-1.9969 -0.28182,-4.9384 0,-3.2691 0.0946,-4.7513 0.3175,-4.9742 0.19124,-0.1913 1.11713,-0.3175 2.32833,-0.3175 1.21121,0 2.13709,0.1262 2.32834,0.3175 0.17462,0.1746 0.3175,0.8952 0.3175,1.6013 v 1.2838 l 1.38906,-0.08 1.38906,-0.08 0.0799,-1.6958 0.0799,-1.6958 -1.12714,-1.1485 -1.12714,-1.1484 h -3.14934 -3.14934 l -1.29349,1.0829 -1.29349,1.083 v 5.72 5.7201 l 1.11342,1.1345 1.11343,1.1345 h 3.33079 3.3308 z m 36.80873,-14.7161 c -0.097,-0.097 -0.17639,-5.5738 -0.17639,-12.1708 v -11.9944 h 6.55608 6.55608 l 1.646,1.6607 1.64601,1.6608 v 3.4213 3.4213 l -0.97974,1.0034 -0.97974,1.0033 0.97974,1.0033 0.97974,1.0034 v 3.4361 3.436 l -1.66077,1.646 -1.66076,1.646 h -6.36493 c -3.50071,0 -6.44431,-0.079 -6.54132,-0.1764 z m 11.77517,-4.2302 c 0.39355,-0.3561 0.48386,-0.8414 0.48386,-2.5997 0,-1.9261 -0.0677,-2.2254 -0.62084,-2.7451 -0.5856,-0.5501 -0.82219,-0.579 -4.16719,-0.5091 l -3.54635,0.074 -0.0745,3.1088 -0.0745,3.1089 h 3.75787 c 3.12545,0 3.83931,-0.074 4.24173,-0.4379 z m -0.0952,-10.1558 c 0.50399,-0.4695 0.57906,-0.8184 0.57906,-2.6911 0,-1.6309 -0.10599,-2.2688 -0.43789,-2.6355 -0.38544,-0.4259 -0.89238,-0.4839 -4.23333,-0.4839 h -3.79545 v 3.175 3.175 h 3.65428 c 3.31183,0 3.70854,-0.051 4.23333,-0.5395 z m 19.09989,2.5289 v -12.0335 l 0.59531,-0.1453 c 0.32743,-0.08 3.9886,-0.112 8.13594,-0.071 l 7.54063,0.074 0.0777,1.9182 0.0777,1.9182 h -6.2293 -6.2293 v 3.175 3.175 h 4.63021 4.63021 v 1.8459 1.8458 l -4.56406,0.072 -4.56407,0.072 -0.0745,3.1088 -0.0745,3.1089 h 6.2261 6.22611 v 1.8238 c 0,1.4189 -0.0929,1.8594 -0.41852,1.9843 -0.23018,0.088 -3.92112,0.1606 -8.20208,0.1606 h -7.78357 z m 36.4348,11.8676 c -0.10279,-0.1027 -0.18688,-4.6914 -0.18688,-10.1969 v -10.0101 h -3.31888 -3.31889 l 0.0777,-1.9182 0.0777,-1.9182 8.6651,-0.07 8.66511,-0.07 v 1.988 1.988 h -3.30415 -3.30415 l -0.0693,10.1203 -0.0693,10.1203 -1.86364,0.077 c -1.02501,0.042 -1.94774,-0.01 -2.05052,-0.1103 z m 30.2402,-10.0205 v -10.1865 h -3.30729 -3.30729 v -1.847 c 0,-1.6961 0.0487,-1.8589 0.59531,-1.9923 0.32742,-0.08 4.22672,-0.1119 8.66511,-0.071 l 8.06979,0.074 0.0777,1.9182 0.0777,1.9182 h -3.45117 -3.45118 v 10.1865 10.1864 h -1.98437 -1.98438 z m 24.87084,-1.9844 v -12.1708 h 8.20208 8.20208 v 1.9843 1.9844 h -6.2261 -6.22611 l 0.0745,3.1089 0.0745,3.1088 4.56406,0.072 4.56406,0.072 v 1.8396 1.8396 l -4.56406,0.072 -4.56406,0.072 -0.0745,3.1088 -0.0745,3.1089 h 6.22611 6.2261 v 1.9844 1.9843 h -8.20208 -8.20208 z m 30.61396,12.0049 c -0.10278,-0.1027 -0.18688,-5.5099 -0.18688,-12.0159 v -11.8291 l 0.82682,-0.1654 c 0.45476,-0.091 3.46452,-0.1653 6.68838,-0.1653 h 5.86155 l 1.646,1.6607 1.646,1.6608 v 4.0393 4.0392 l -1.52135,1.4341 c -0.88977,0.8387 -1.7685,1.4381 -2.11667,1.4437 -0.32742,0.01 -0.59454,0.099 -0.5936,0.2081 9.4e-4,0.1091 0.72766,1.5081 1.61493,3.1089 0.88727,1.6007 2.08747,3.7736 2.66711,4.8286 l 1.05388,1.9182 h -2.24285 -2.24286 l -2.73323,-4.7625 -2.73323,-4.7625 h -1.78767 -1.78767 l -0.0722,4.6964 -0.0722,4.6963 -1.86364,0.077 c -1.025,0.042 -1.94774,-0.01 -2.05052,-0.1103 z m 11.90076,-13.6385 c 0.55312,-0.5196 0.61236,-0.8083 0.61236,-2.9839 0,-1.7517 -0.11232,-2.5689 -0.41188,-2.9965 -0.39329,-0.5616 -0.58428,-0.5881 -4.23333,-0.5881 h -3.82146 v 3.5719 3.5719 h 3.62097 c 3.35359,0 3.66619,-0.043 4.23334,-0.5753 z"
       id="path22" /></g></svg>
