<?xml version="1.0" encoding="UTF-8" standalone="no"?>
<!-- Created with Inkscape (http://www.inkscape.org/) -->

<svg
   width="303.43799mm"
   height="89.357857mm"
   viewBox="0 0 303.43799 89.357857"
   version="1.1"
   id="svg1"
   xml:space="preserve"
   xmlns="http://www.w3.org/2000/svg"
   xmlns:svg="http://www.w3.org/2000/svg"><defs
     id="defs1" /><g
     id="layer1"
     transform="translate(-479.85803,-1123.5816)"><path
       style="fill:#ffffff;stroke-width:4.93355"
       d="m 563.86,1211.3146 c -2.44292,-1.0779 -5.80415,-2.9895 -7.46942,-4.2487 -1.66533,-1.2592 -4.45127,-4.6595 -6.191,-7.5563 l -3.16324,-5.2674 v -25.3043 -25.3044 l 3.46728,-5.5233 c 1.90704,-3.0377 4.79526,-6.5271 6.41838,-7.7545 1.62307,-1.2268 6.10277,-3.3774 9.95482,-4.7787 6.68788,-2.4325 7.37119,-2.4384 15.15072,-0.1272 6.93083,2.0584 8.97923,3.4379 13.72274,9.2421 4.11627,5.0368 6.10423,8.9962 7.59471,15.1258 1.11043,4.5668 2.01249,12.9943 2.00454,18.728 -0.009,5.7332 -0.81117,13.8793 -1.78496,18.1021 -0.97384,4.2223 -3.29133,10.1457 -5.15001,13.1628 -1.88444,3.059 -6.04549,7.0852 -9.40613,9.1011 -4.13308,2.4798 -8.33295,3.7331 -13.36676,3.9896 -4.15917,0.212 -9.26486,-0.4769 -11.78167,-1.5856 z m 16.56201,-37.1836 c 1.01968,-2.2756 1.85395,-6.0204 1.85395,-8.322 0,-2.3017 -0.58103,-5.9484 -1.2912,-8.1038 -0.71013,-2.1553 -1.94048,-4.3955 -2.7341,-4.9774 -0.79362,-0.5824 -2.39988,-1.0684 -3.56946,-1.0806 -1.16959,0 -3.22015,1.2406 -4.55681,2.7834 -1.84812,2.1326 -2.43034,4.6738 -2.43034,10.6083 0,4.2928 0.56606,9.0248 1.2579,10.5167 0.86932,1.8745 2.54892,2.7124 5.43701,2.7124 3.3988,0 4.52526,-0.7727 6.03305,-4.137 z m 44.17159,37.0628 c -3.12461,-1.1553 -7.87239,-4.4618 -10.55059,-7.3475 -2.6782,-2.8857 -5.46943,-7.0719 -6.20275,-9.3036 -0.98069,-2.9837 -0.94583,-6.978 0.13181,-15.1019 1.12921,-8.5123 1.13918,-13.4659 0.0413,-21.5988 -1.19732,-8.8865 -1.13252,-11.3525 0.41013,-15.6129 1.0076,-2.7823 3.38925,-6.7767 5.29257,-8.8753 1.90332,-2.0992 6.56434,-5.1561 10.35783,-6.7942 3.7935,-1.6376 8.65394,-2.9684 10.80095,-2.9572 2.14705,0 6.36441,1.0064 9.37191,2.2115 3.0075,1.2057 7.25665,3.7623 9.44246,5.6818 2.18586,1.9201 4.87467,5.076 5.97509,7.0141 1.10046,1.9381 2.72206,6.7322 3.60359,10.6534 1.22088,5.4317 1.26672,7.5971 0.19244,9.0911 -1.06148,1.4759 -3.81964,1.8215 -11.1476,1.3964 -8.32331,-0.4822 -9.99024,-1.0042 -11.48007,-3.5937 -1.23636,-2.1484 -2.98523,-3.0287 -6.01753,-3.0287 -2.64605,0 -4.88969,0.9348 -5.88893,2.4537 -0.88786,1.3499 -1.63166,5.6262 -1.65292,9.5034 -0.023,4.1772 0.73208,8.3194 1.85298,10.1658 1.22047,2.0107 3.15075,3.1168 5.44022,3.1168 2.45752,0 4.16928,-1.0933 5.56749,-3.5556 1.94851,-3.4315 2.40507,-3.5417 13.09096,-3.1549 l 11.07201,0.4028 -0.084,6.3098 c -0.0464,3.4702 -0.48724,8.7137 -0.98004,11.6519 -0.52399,3.1236 -2.7251,7.6781 -5.30129,10.9687 -2.4229,3.0945 -6.48645,6.8514 -9.03008,8.3491 -2.54364,1.4972 -7.77571,3.0229 -11.6269,3.3902 -4.41085,0.4187 -9.10453,-0.1113 -12.68322,-1.4341 z m 56.71777,-1.1834 c -3.34167,-1.8337 -7.54475,-5.1508 -9.34018,-7.3719 -1.79539,-2.2216 -3.84604,-5.8153 -4.55699,-7.9866 -0.87179,-2.6625 -0.89696,-4.801 -0.0772,-6.5684 0.66842,-1.441 1.21533,-5.7639 1.21533,-9.6067 0,-6.0051 -0.4691,-7.3803 -3.34144,-9.7949 l -3.34144,-2.8088 3.03763,-3.7347 c 2.64174,-3.2482 3.03763,-5.0129 3.03763,-13.5375 0,-9.4594 0.15294,-9.9649 4.36571,-14.423 2.40112,-2.5412 7.47975,-5.9653 11.28579,-7.6082 3.80608,-1.6435 8.44267,-2.988 10.30355,-2.988 1.86088,0 6.07824,1.043 9.37192,2.3175 3.29362,1.2746 8.11231,4.234 10.70816,6.5764 2.59586,2.343 5.7281,6.8212 6.96051,9.9523 1.23236,3.131 2.25273,8.0587 2.26743,10.9507 0.0184,3.2073 -0.56583,5.3193 -1.49227,5.4141 -0.83542,0.085 -5.59647,0.1166 -10.58008,0.074 -7.75261,-0.069 -9.34073,-0.5087 -10.99774,-3.0457 -1.24876,-1.91 -3.38194,-3.0102 -6.00572,-3.0961 -2.654,-0.085 -4.63989,0.7674 -5.71064,2.457 -0.92048,1.4526 -1.64163,6.0734 -1.64163,10.5188 0,5.8996 0.56854,8.5213 2.22219,10.2485 1.22222,1.2761 3.64323,2.3207 5.38001,2.3207 1.93428,0 4.09855,-1.38 5.58568,-3.5619 2.31698,-3.3987 2.91771,-3.5428 13.15117,-3.1549 l 10.72328,0.4081 -0.41885,9.0794 c -0.23791,5.1618 -1.38682,11.2692 -2.6625,14.1549 -1.23411,2.7913 -4.25066,7.1084 -6.70345,9.5934 -2.45284,2.485 -5.79978,5.1063 -7.43773,5.8249 -1.63791,0.7186 -6.6353,1.6275 -11.10521,2.0197 -6.8535,0.6015 -9.07932,0.1908 -14.20296,-2.6202 z m 60.40981,0.8654 c -2.86485,-1.353 -7.38583,-4.9192 -10.04667,-7.9246 -2.66085,-3.0049 -5.13192,-6.8159 -5.49125,-8.4678 -0.35961,-1.6525 -0.0762,-4.7559 0.62916,-6.8965 0.70539,-2.141 1.28256,-6.6765 1.28256,-10.0789 0,-5.0516 -0.55733,-6.6082 -3.0379,-8.4832 -1.67084,-1.2634 -3.03791,-2.8857 -3.03791,-3.6054 0,-0.7197 1.49512,-2.7924 3.32252,-4.6059 3.22529,-3.2015 3.27838,-3.4882 1.81518,-9.8007 -1.25739,-5.4247 -1.21413,-7.1577 0.26087,-10.4494 0.97251,-2.1696 3.67239,-5.8746 5.99975,-8.2325 2.32732,-2.3583 7.22408,-5.2912 10.88173,-6.518 3.6576,-1.2269 7.83032,-2.2312 9.27276,-2.2312 1.44239,0 5.28241,1.0043 8.53333,2.2312 3.25096,1.2268 8.12751,4.4204 10.83685,7.0962 2.70934,2.6764 6.12555,7.8245 7.59159,11.441 2.25655,5.5657 2.67977,9.1567 2.75826,23.4012 0.0579,10.513 -0.50075,18.7577 -1.48887,21.974 -0.86986,2.8311 -3.14469,7.6374 -5.05526,10.681 -1.91053,3.0436 -5.84682,6.8514 -8.74731,8.4625 -2.90049,1.6111 -8.82795,3.2757 -13.17216,3.6987 -5.94129,0.5787 -9.18922,0.159 -13.10727,-1.6917 z m 16.75275,-35.4124 c 1.82657,-2.1077 2.42073,-4.633 2.39171,-10.1658 -0.023,-4.049 -0.7381,-8.4233 -1.59294,-9.7207 -0.85489,-1.2979 -2.88805,-2.5004 -4.51823,-2.6721 -1.63015,-0.1696 -3.89973,-0.212 -5.0436,-0.095 -1.34612,0.1431 -2.55971,2.2752 -3.44059,6.0501 -0.74852,3.2079 -1.02156,7.9198 -0.6067,10.4716 0.41472,2.5518 1.59207,5.606 2.61606,6.7879 1.024,1.1818 3.18979,2.1484 4.8129,2.1484 1.62312,0 4.04472,-1.2618 5.38139,-2.8045 z m -278.51664,-1.0515 c -0.19932,-19.8589 -0.0886,-38.6309 0.24526,-41.7158 l 0.60757,-5.6087 10.44684,-0.4027 c 8.37327,-0.3233 10.76562,0.053 12.05296,1.8315 0.99369,1.3811 1.50242,5.1932 1.33405,9.9947 -0.18095,5.1619 0.37018,8.8934 1.64553,11.1394 1.11479,1.9635 3.09908,3.3774 4.73928,3.3774 1.55184,0 3.72649,-1.1542 4.8326,-2.5645 1.31862,-1.681 2.01107,-5.0294 2.01107,-9.7238 0,-3.9382 0.5333,-8.7784 1.1851,-10.7568 1.14327,-3.4702 1.54775,-3.5968 11.47226,-3.5968 6.02648,0 10.62164,0.6243 11.09465,1.5072 0.44412,0.8294 0.79697,18.9702 0.78416,40.3135 -0.0138,21.3434 -0.0703,39.595 -0.12814,40.559 -0.0758,1.2692 -3.25376,1.7526 -11.51892,1.7526 -9.28709,0 -11.55144,-0.4134 -12.15157,-2.2179 -0.40554,-1.22 -0.73759,-7.719 -0.73759,-14.4427 0,-7.6384 -0.54704,-12.856 -1.45819,-13.9074 -0.80198,-0.9253 -3.23043,-1.6827 -5.3965,-1.6827 -2.16607,0 -4.36483,0.7886 -4.88611,1.7526 -0.52132,0.9641 -0.96369,7.4318 -0.98307,14.3728 -0.0184,6.9409 -0.47769,13.4087 -1.01839,14.3727 -0.6715,1.1972 -4.60026,1.7526 -12.39691,1.7526 h -11.41385 z"
       id="path21" /></g></svg>
