<?xml version="1.0" encoding="UTF-8" standalone="no"?>
<!-- Created with Inkscape (http://www.inkscape.org/) -->

<svg
   width="351.99515mm"
   height="158.37921mm"
   viewBox="0 0 351.99515 158.37921"
   version="1.1"
   id="svg1"
   xml:space="preserve"
   xmlns="http://www.w3.org/2000/svg"
   xmlns:svg="http://www.w3.org/2000/svg"><defs
     id="defs1" /><g
     id="layer1"
     transform="translate(29.368749,-1739.0716)"><path
       style="fill:#ffffff"
       d="m -25.80241,1896.9986 c -0.73065,-0.2614 -1.7151,-0.7505 -2.18767,-1.087 l -0.85922,-0.6119 0.57643,-1.0256 c 0.31704,-0.5641 0.76571,-1.0681 0.99704,-1.12 0.23134,-0.052 1.06246,0.2407 1.84693,0.6503 0.99861,0.5213 1.81544,0.7445 2.724,0.7445 1.02503,0 1.43416,-0.1364 1.94713,-0.6494 0.44529,-0.4453 0.64943,-0.9443 0.64943,-1.5875 0,-0.5779 -0.19848,-1.1365 -0.51693,-1.455 -0.28431,-0.2843 -1.53356,-0.827 -2.77613,-1.206 -1.24256,-0.379 -2.62156,-0.994 -3.06444,-1.3667 -0.44289,-0.3726 -0.97957,-1.0146 -1.19262,-1.4267 -0.21306,-0.412 -0.38738,-1.3425 -0.38738,-2.0679 0,-0.7253 0.127,-1.654 0.28221,-2.0636 0.15522,-0.4097 0.54217,-1.0243 0.8599,-1.3659 0.31773,-0.3416 1.04532,-0.8608 1.61686,-1.1539 0.57155,-0.293 1.71121,-0.5937 2.53257,-0.6681 0.96662,-0.088 1.99996,0.014 2.92957,0.2883 0.7899,0.2331 1.82567,0.6642 2.3017,0.9581 l 0.86551,0.5342 -0.54016,1.0588 c -0.33668,0.66 -0.72481,1.0588 -1.03032,1.0588 -0.26958,0 -1.05893,-0.2516 -1.7541,-0.5591 -0.92318,-0.4083 -1.58926,-0.5224 -2.47059,-0.4231 -0.81185,0.091 -1.36155,0.3274 -1.6801,0.7207 -0.26041,0.3216 -0.47346,0.8692 -0.47346,1.2169 0,0.3477 0.22357,0.8557 0.49683,1.129 0.27326,0.2732 1.31506,0.763 2.31511,1.0883 1.00004,0.3254 2.33174,0.8851 2.95933,1.2439 0.62758,0.3587 1.37127,1.0298 1.65265,1.4913 0.35752,0.5863 0.5119,1.3245 0.51259,2.451 7.2e-4,1.1788 -0.16456,1.9255 -0.61487,2.7782 -0.39901,0.7555 -1.05469,1.4379 -1.86221,1.938 -1.03481,0.6409 -1.59269,0.7881 -3.28675,0.8671 -1.48953,0.069 -2.39904,-0.033 -3.36884,-0.38 z m 22.4506602,0.2237 c -0.46101,-0.119 -1.3712,-0.5288 -2.02263,-0.9105 -0.65144,-0.3818 -1.50033,-1.0696 -1.88642,-1.5284 -0.3861,-0.4589 -0.92065,-1.2649 -1.18789,-1.7911 -0.26725,-0.5263 -0.63237,-1.6665 -0.81139,-2.5338 -0.17901,-0.8672 -0.26131,-2.1187 -0.18287,-2.781 0.0784,-0.6622 0.39067,-1.8671 0.69385,-2.6774 0.30319,-0.8104 0.97201,-1.9649 1.48628,-2.5657 0.5583,-0.6523 1.64788,-1.4433 2.7043,-1.9634 1.6053,-0.7903 1.99098,-0.871 4.16163999,-0.871 2.17369001,0 2.55512001,0.08 4.17275001,0.8765 0.99459,0.4896 1.78038,1.0484 1.78038,1.266 0,0.2143 -0.19546,0.6879 -0.43435,1.0525 -0.23889,0.3646 -0.66039,0.7839 -0.93668,0.9318 -0.37967,0.2032 -0.70971,0.1419 -1.35159,-0.2512 -0.46709,-0.2859 -1.36958,-0.6583 -2.00554001,-0.8275 -0.88404,-0.2351 -1.46548,-0.2333 -2.46958999,0.01 -0.86742,0.2081 -1.65608,0.6412 -2.32288,1.2756 -0.7246,0.6893 -1.13802,1.4024 -1.46463,2.526 -0.29539,1.0162 -0.40268,2.0079 -0.30576,2.8262 0.0821,0.6933 0.38241,1.7152 0.66733,2.2709 0.28491,0.5556 0.79913,1.2725 1.1427,1.593 0.34357,0.3204 1.0657,0.7669 1.60475,0.9921 0.53904,0.2253 1.43037999,0.4069 1.98075999,0.4037 0.55038,0 1.49201001,-0.2289 2.09252001,-0.5016 0.60051,-0.2727 1.17309,-0.6273 1.27239,-0.7879 0.0993,-0.1607 0.40559,-0.2922 0.68063,-0.2922 0.27505,0 0.80381,0.3982 1.17501,0.8849 0.37121,0.4867 0.67493,0.9736 0.67493,1.0821 0,0.1084 -0.26789,0.4317 -0.59531,0.7184 -0.32743,0.2867 -1.12567,0.7686 -1.77387,1.0709 -0.82953,0.3869 -1.84816,0.575 -3.43959001,0.6353 -1.24355999,0.047 -2.63821999,-0.012 -3.09922999,-0.1307 z m 46.2011678,-0.108 c -0.662038,-0.187 -1.640858,-0.6101 -2.175156,-0.9403 -0.534298,-0.3302 -1.433989,-1.1259 -1.999315,-1.7681 -0.608394,-0.6912 -1.226529,-1.7911 -1.51467,-2.6952 -0.315365,-0.9895 -0.469541,-2.1884 -0.437781,-3.4045 0.02696,-1.0324 0.228217,-2.3849 0.447229,-3.0057 0.219012,-0.6207 0.737158,-1.5895 1.151435,-2.1528 0.414278,-0.5634 1.063526,-1.2684 1.442774,-1.5667 0.379247,-0.2983 1.380399,-0.8635 2.224782,-1.256 1.300114,-0.6043 1.879676,-0.7115 3.784199,-0.6999 1.651923,0.01 2.635276,0.1652 3.704167,0.5842 0.800365,0.3138 1.901811,0.9389 2.447658,1.3892 0.545847,0.4502 1.293377,1.3321 1.661178,1.9597 0.367801,0.6276 0.835648,1.9389 1.039661,2.9139 0.27955,1.3361 0.306455,2.1746 0.109211,3.4035 -0.143946,0.8969 -0.512022,2.1328 -0.817945,2.7465 -0.305924,0.6138 -0.898478,1.5311 -1.316788,2.0386 -0.418309,0.5075 -1.541597,1.3072 -2.496195,1.7771 -1.446158,0.712 -2.095475,0.868 -3.893185,0.9354 -1.218448,0.046 -2.681483,-0.067 -3.361259,-0.2589 z m 5.768214,-3.5344 c 0.710704,-0.4052 1.342799,-1.0511 1.716617,-1.7544 0.477752,-0.8987 0.592304,-1.5461 0.594867,-3.362 0.0027,-1.9086 -0.09693,-2.4291 -0.658284,-3.4396 -0.461035,-0.8298 -1.02222,-1.3759 -1.852083,-1.8023 -0.983679,-0.5053 -1.516815,-0.5968 -3.067294,-0.5261 -1.585567,0.072 -2.031637,0.2038 -2.875713,0.8476 -0.549475,0.4191 -1.213181,1.2512 -1.474903,1.849 -0.261722,0.5979 -0.557023,1.6411 -0.656224,2.3183 -0.122225,0.8343 -0.04172,1.7081 0.249766,2.7108 0.236572,0.8137 0.790098,1.8895 1.230058,2.3906 0.439959,0.5011 1.180928,1.0308 1.646597,1.1771 0.465669,0.1463 1.144327,0.3096 1.508129,0.3629 0.363802,0.053 1.078177,0.046 1.5875,-0.017 0.509323,-0.063 1.432258,-0.4023 2.050967,-0.755 z m 19.608662,3.4649 c -0.674756,-0.2078 -1.80585,-0.774 -2.513542,-1.2584 -0.766359,-0.5246 -1.627992,-1.4455 -2.130621,-2.2774 -0.46415,-0.7682 -0.970166,-1.9854 -1.124479,-2.7049 -0.154313,-0.7196 -0.28057,-1.8257 -0.28057,-2.458 0,-0.6324 0.239354,-1.9247 0.531898,-2.8718 0.374634,-1.213 0.879166,-2.1084 1.706435,-3.0285 0.771982,-0.8586 1.745877,-1.5679 2.84154,-2.0695 1.443842,-0.6611 1.985779,-0.7633 4.048253,-0.7636 2.14666,-4e-4 2.555393,0.084 4.148927,0.8581 1.107073,0.5377 2.164678,1.3096 2.829992,2.0654 0.584273,0.6638 1.274686,1.8225 1.534252,2.5749 0.289309,0.8387 0.471938,2.136 0.471938,3.3524 0,1.2165 -0.182629,2.5138 -0.471938,3.3524 -0.259566,0.7525 -0.945207,1.9057 -1.523648,2.5629 -0.578441,0.6571 -1.467994,1.4521 -1.976783,1.7665 -0.50879,0.3145 -1.547142,0.7373 -2.307448,0.9398 -0.760307,0.2024 -2.096751,0.3611 -2.969876,0.3527 -0.873125,-0.01 -2.139573,-0.1853 -2.81433,-0.393 z m 5.846671,-3.3729 c 0.88676,-0.45 1.347321,-0.9235 1.852083,-1.9044 0.556952,-1.0823 0.671043,-1.6686 0.667247,-3.4292 -0.0036,-1.6736 -0.128032,-2.3564 -0.587088,-3.2215 -0.320379,-0.6038 -1.010133,-1.3622 -1.532785,-1.6852 -0.522653,-0.323 -1.389557,-0.6904 -1.926454,-0.8165 -0.60209,-0.1413 -1.51844,-0.12 -2.391208,0.056 -0.995774,0.2004 -1.721535,0.5617 -2.44951,1.2194 -0.750039,0.6776 -1.151952,1.3386 -1.461715,2.4042 -0.280581,0.9652 -0.379645,1.9945 -0.288594,2.9986 0.07986,0.8806 0.402131,2.0048 0.760078,2.6513 0.341791,0.6173 1.019136,1.3541 1.505211,1.6372 0.486075,0.2832 1.259981,0.6096 1.719792,0.7254 0.45981,0.1158 1.312269,0.1551 1.894352,0.087 0.582084,-0.068 1.589449,-0.3928 2.238591,-0.7222 z m 48.825995,3.5521 c -0.43656,-0.1181 -1.21047,-0.3931 -1.71979,-0.611 -0.50933,-0.218 -1.32406,-0.732 -1.81053,-1.1421 -0.48647,-0.4102 -1.1726,-1.2022 -1.52475,-1.76 -0.35214,-0.5579 -0.81733,-1.6941 -1.03374,-2.525 -0.21642,-0.8308 -0.39348,-2.0784 -0.39348,-2.7724 0,-0.694 0.26241,-2.068 0.58313,-3.0533 0.47124,-1.4477 0.86468,-2.0709 2.05052,-3.248 1.01219,-1.0047 1.91881,-1.6202 2.9226,-1.9844 1.03075,-0.3739 2.07259,-0.5211 3.57187,-0.505 1.49914,0.016 2.54735,0.1905 3.59287,0.5975 0.81191,0.316 1.9468,0.9774 2.52197,1.4697 0.57517,0.4923 1.35949,1.4736 1.74294,2.1807 0.38344,0.707 0.84848,2.0225 1.03341,2.9233 0.25524,1.2432 0.26673,2.0116 0.0477,3.1894 -0.15871,0.8534 -0.54538,2.098 -0.85927,2.7658 -0.3139,0.6678 -1.002,1.6454 -1.52913,2.1725 -0.52713,0.5272 -1.59381,1.2693 -2.3704,1.6493 -1.12051,0.5482 -1.88886,0.709 -3.72208,0.7792 -1.27054,0.049 -2.66727,-0.01 -3.10383,-0.1262 z m 4.25867,-3.0647 c 0.78265,-0.2324 1.64732,-0.7395 2.14306,-1.2568 0.45708,-0.4769 1.0352,-1.4986 1.28471,-2.2705 0.30783,-0.9523 0.40385,-1.824 0.29871,-2.7117 -0.0852,-0.7196 -0.38455,-1.8274 -0.66517,-2.4618 -0.28062,-0.6344 -0.95772,-1.4947 -1.50465,-1.9119 -0.82147,-0.6266 -1.31098,-0.7764 -2.81433,-0.8613 -1.07813,-0.061 -2.14032,0.03 -2.60603,0.2228 -0.43237,0.1791 -1.19773,0.7812 -1.7008,1.338 -0.50306,0.5568 -1.0534,1.5252 -1.22298,2.1519 -0.16959,0.6267 -0.25134,1.8574 -0.18168,2.7348 0.0697,0.8774 0.37688,2.0858 0.68274,2.6853 0.30585,0.5995 0.98939,1.3578 1.51898,1.6851 0.5296,0.3273 1.33697,0.6843 1.79417,0.7933 0.45719,0.1091 1.01802,0.2105 1.24626,0.2254 0.22825,0.015 1.00541,-0.1483 1.72701,-0.3626 z m 70.7426,2.8937 c -0.6593,-0.2033 -1.68645,-0.787 -2.28256,-1.2973 -0.59611,-0.5102 -1.36462,-1.4965 -1.7078,-2.1917 -0.59299,-1.2013 -0.62848,-1.5759 -0.71498,-7.5479 l -0.091,-6.2838 h 1.87307 1.87307 v 5.3909 c 0,2.9649 0.0737,5.7595 0.16385,6.2101 0.0901,0.4506 0.53993,1.2543 0.99959,1.7861 0.7091,0.8203 1.03946,0.9863 2.18016,1.0959 0.92338,0.089 1.62902,-0.01 2.25318,-0.302 0.49982,-0.2372 1.14165,-0.8163 1.4263,-1.2869 0.46063,-0.7615 0.53209,-1.5102 0.64983,-6.8087 l 0.1323,-5.9531 1.78593,-0.078 1.78594,-0.078 -0.003,6.1636 c -0.002,5.9148 -0.0277,6.2177 -0.62546,7.5013 -0.34398,0.7387 -1.13729,1.778 -1.77179,2.3211 -0.63191,0.5409 -1.74128,1.1593 -2.46528,1.3743 -0.72399,0.215 -1.97935,0.3827 -2.78968,0.3725 -0.81033,-0.01 -2.01276,-0.1847 -2.67206,-0.3879 z m 21.57165,0.1602 c -0.43656,-0.1056 -1.21047,-0.395 -1.71979,-0.6432 -0.50933,-0.2481 -1.16417,-0.6311 -1.45521,-0.851 l -0.52917,-0.3999 0.56599,-0.9804 c 0.3113,-0.5392 0.80748,-1.0171 1.10262,-1.0621 0.29514,-0.045 1.13781,0.223 1.87261,0.5953 0.7846,0.3976 1.78183,0.677 2.41625,0.677 0.59415,0 1.41711,-0.1741 1.82882,-0.387 0.4117,-0.2129 0.8225,-0.5799 0.9129,-0.8154 0.0904,-0.2356 0.16435,-0.7671 0.16435,-1.1812 0,-0.4996 -0.23622,-0.9388 -0.70208,-1.3052 -0.38614,-0.3037 -1.72333,-0.8638 -2.97152,-1.2445 -1.62096,-0.4944 -2.50881,-0.9316 -3.10711,-1.5299 -0.46071,-0.4607 -0.96833,-1.3083 -1.12804,-1.8835 -0.15971,-0.5753 -0.29104,-1.2394 -0.29185,-1.4757 -8.2e-4,-0.2364 0.18114,-0.9474 0.40434,-1.58 0.2232,-0.6326 0.66968,-1.4331 0.99219,-1.7788 0.3225,-0.3457 1.06261,-0.8795 1.6447,-1.1862 0.81763,-0.4308 1.53973,-0.5586 3.175,-0.5621 1.74235,0 2.3857,0.1203 3.63802,0.701 0.83674,0.388 1.52135,0.8724 1.52135,1.0764 0,0.204 -0.18152,0.7347 -0.40337,1.1794 -0.22186,0.4448 -0.56679,0.8713 -0.76652,0.948 -0.19972,0.077 -0.82188,-0.1121 -1.38256,-0.4195 -0.69068,-0.3785 -1.51724,-0.5645 -2.56315,-0.5765 -1.37426,-0.016 -1.61387,0.064 -2.18281,0.7246 -0.3515,0.4083 -0.63909,0.8982 -0.63909,1.0888 0,0.1905 0.23942,0.6508 0.53203,1.0228 0.35851,0.4557 1.24302,0.9081 2.71198,1.387 1.19897,0.3909 2.60783,0.9849 3.13079,1.3201 0.52296,0.3352 1.14804,1.025 1.38906,1.5329 0.24102,0.5079 0.43823,1.5344 0.43823,2.281 0,0.7467 -0.161,1.7408 -0.35778,2.209 -0.19678,0.4683 -0.75825,1.2414 -1.24771,1.718 -0.50013,0.487 -1.4654,1.0375 -2.20379,1.2568 -0.72262,0.2146 -1.91732,0.378 -2.65489,0.3631 -0.73757,-0.015 -1.69823,-0.1135 -2.13479,-0.2191 z m 75.13613,-0.2305 c -0.73064,-0.2526 -1.71165,-0.7322 -2.18001,-1.0657 l -0.85157,-0.6064 0.5151,-1.0096 c 0.28331,-0.5554 0.70415,-1.0823 0.93521,-1.1709 0.233,-0.089 1.09235,0.2005 1.9295,0.6509 1.28685,0.6923 1.7208,0.7953 2.94328,0.6984 1.15107,-0.091 1.55552,-0.2551 2.05052,-0.8306 0.33915,-0.3943 0.61663,-1.0133 0.61663,-1.3756 0,-0.3623 -0.28436,-0.9431 -0.63191,-1.2906 -0.37044,-0.3705 -1.57392,-0.9193 -2.90843,-1.3263 -1.25207,-0.3819 -2.63727,-0.998 -3.07821,-1.369 -0.44094,-0.371 -0.93671,-0.9268 -1.10171,-1.2352 -0.165,-0.3083 -0.38784,-0.95 -0.49521,-1.426 -0.10736,-0.4761 -0.082,-1.3695 0.0564,-1.9853 0.13837,-0.6159 0.54939,-1.5102 0.91337,-1.9874 0.36398,-0.4772 1.1609,-1.1336 1.77093,-1.4586 0.89595,-0.4774 1.51602,-0.587 3.22582,-0.5701 1.74079,0.017 2.36002,0.1451 3.48701,0.7206 0.75368,0.3849 1.44666,0.8233 1.53995,0.9743 0.0933,0.1509 -0.0866,0.689 -0.39973,1.1956 -0.33806,0.547 -0.78088,0.9212 -1.09007,0.9212 -0.2864,0 -0.8784,-0.1849 -1.31556,-0.411 -0.43716,-0.226 -1.35398,-0.4764 -2.03738,-0.5562 -1.01568,-0.1187 -1.3754,-0.04 -1.97015,0.4302 -0.49301,0.3899 -0.72761,0.8219 -0.72761,1.3397 0,0.4221 0.23558,0.9837 0.52618,1.2544 0.28941,0.2697 1.21214,0.7052 2.05053,0.968 0.83838,0.2627 2.00058,0.7147 2.58267,1.0044 0.58208,0.2897 1.38765,0.8353 1.79015,1.2126 0.40251,0.3772 0.85794,1.1542 1.01207,1.7266 0.15414,0.5724 0.20078,1.6186 0.10364,2.3249 -0.0971,0.7062 -0.43633,1.6694 -0.75378,2.1405 -0.31745,0.4711 -0.97706,1.126 -1.4658,1.4553 -0.48874,0.3294 -1.31934,0.7185 -1.84579,0.8647 -0.52644,0.1463 -1.612,0.2627 -2.41237,0.2587 -0.80036,0 -2.05301,-0.2138 -2.78366,-0.4665 z m 18.78542,0 c -0.73065,-0.2526 -1.7026,-0.7257 -2.1599,-1.0514 l -0.83145,-0.592 0.5724,-1.0568 c 0.31482,-0.5812 0.77281,-1.1218 1.01777,-1.2012 0.24495,-0.079 1.08801,0.2184 1.87347,0.6617 0.95138,0.5369 1.79219,0.8059 2.51875,0.8059 0.59985,0 1.38077,-0.1321 1.73537,-0.2937 0.3546,-0.1616 0.77692,-0.5839 0.93849,-0.9385 0.16157,-0.3546 0.29376,-0.8827 0.29376,-1.1735 0,-0.2908 -0.28436,-0.8131 -0.63192,-1.1606 -0.37469,-0.3747 -1.58631,-0.9229 -2.97656,-1.3467 -1.81518,-0.5534 -2.56316,-0.9331 -3.31227,-1.6816 -0.72908,-0.7285 -1.01364,-1.2737 -1.15426,-2.2114 -0.10264,-0.6845 -0.1108,-1.6488 -0.0181,-2.1428 0.0927,-0.4941 0.4335,-1.2915 0.75738,-1.7721 0.32388,-0.4805 1.18101,-1.1784 1.90473,-1.5509 1.07013,-0.5507 1.68774,-0.6768 3.30729,-0.6754 1.60528,0 2.28644,0.1397 3.51279,0.713 0.83675,0.3912 1.52136,0.8428 1.52136,1.0036 0,0.1608 -0.19521,0.6734 -0.4338,1.1391 -0.23858,0.4657 -0.55125,0.9226 -0.69482,1.0153 -0.14356,0.093 -0.9127,-0.1298 -1.70919,-0.4945 -1.12157,-0.5135 -1.7233,-0.632 -2.66817,-0.5255 -0.82475,0.093 -1.37342,0.327 -1.69348,0.7222 -0.2604,0.3216 -0.47346,0.8692 -0.47346,1.2169 0,0.3477 0.22346,0.8556 0.49659,1.1287 0.27312,0.2732 1.45762,0.8167 2.63222,1.2079 1.1746,0.3911 2.52227,0.9717 2.99483,1.2902 0.47257,0.3185 1.10332,0.9953 1.40167,1.5042 0.40165,0.6849 0.53365,1.3438 0.50852,2.5379 -0.0187,0.887 -0.18134,1.899 -0.36148,2.2489 -0.18013,0.3499 -0.69693,1.0264 -1.14845,1.5034 -0.49441,0.5222 -1.34277,1.0221 -2.13294,1.2567 -0.7216,0.2143 -1.97501,0.3858 -2.78534,0.381 -0.81033,0 -2.07113,-0.2153 -2.80178,-0.468 z m -299.89968,-8.5313 v -8.7433 l 1.78594,0.078 1.78593,0.078 0.0736,3.638 0.0736,3.638 h 3.821523 3.821526 l 0.07361,-3.638 0.07361,-3.638 1.785938,-0.078 1.785937,-0.078 v 8.7554 8.7555 l -1.785937,-0.078 -1.785938,-0.078 -0.07818,-3.5619 c -0.043,-1.959 -0.136864,-3.6205 -0.208593,-3.6922 -0.07173,-0.072 -0.900502,-0.1795 -1.841719,-0.2394 -0.941217,-0.06 -2.603522,-0.025 -3.694011,0.077 l -1.982712,0.1858 v 3.6816 3.6816 h -1.85208 -1.85208 z m 74.877083,0.012 v -8.7312 H 90.222916 92.075 v 7.276 7.2761 h 3.439583 3.439584 v 1.4552 1.4552 H 93.6625 88.370833 Z m 54.239587,0 v -8.7312 h 5.70237 5.70237 l -0.08,1.389 -0.08,1.3891 -3.90261,0.073 -3.9026,0.073 v 2.3742 2.3742 h 3.32112 3.32111 l -0.08,1.3891 -0.08,1.389 -3.175,0.1323 -3.175,0.1323 -0.074,3.3734 -0.074,3.3735 h -1.71188 -1.71189 z m 29.36875,-0.021 v -8.7527 l 4.69635,0.088 c 4.43846,0.083 4.76045,0.1239 5.86354,0.749 0.64196,0.3638 1.39235,0.9661 1.66755,1.3385 0.28108,0.3803 0.55941,1.3079 0.63512,2.1167 0.108,1.1536 0.0267,1.6111 -0.40896,2.3029 -0.29905,0.4749 -0.95616,1.06 -1.46025,1.3004 -0.50409,0.2404 -0.85506,0.5365 -0.77995,0.658 0.0751,0.1216 0.35854,0.221 0.62983,0.221 0.27129,0 0.85733,0.3064 1.30231,0.6808 0.45357,0.3817 0.9288,1.1255 1.0816,1.6929 0.191,0.7094 0.18487,1.421 -0.0205,2.3787 -0.20322,0.9475 -0.56166,1.635 -1.16925,2.2426 -0.4819,0.4819 -1.44414,1.0697 -2.1383,1.3062 -0.96229,0.3279 -2.28796,0.4301 -5.58059,0.4301 h -4.3185 z m 9.10716,5.3331 c 0.50552,-0.4751 0.68242,-0.9069 0.68242,-1.6657 0,-0.7269 -0.1834,-1.2076 -0.63189,-1.6561 -0.34755,-0.3475 -1.03216,-0.7068 -1.52136,-0.7983 -0.4892,-0.091 -1.5443,-0.1292 -2.34466,-0.084 l -1.45521,0.083 -0.0764,2.4741 -0.0764,2.4741 2.37056,-0.093 c 2.07399,-0.081 2.45594,-0.1731 3.05299,-0.7343 z m -1.04128,-7.0128 c 0.66318,-0.2771 0.96895,-0.613 1.14384,-1.2568 0.15934,-0.5865 0.13557,-1.1424 -0.0715,-1.6723 -0.22322,-0.5711 -0.5992,-0.8897 -1.34067,-1.136 -0.56675,-0.1882 -1.68985,-0.3073 -2.49577,-0.2646 l -1.46531,0.078 -0.0764,2.3151 -0.0764,2.3151 h 1.73859 c 0.95623,0 2.1459,-0.1702 2.64373,-0.3782 z m 56.43682,10.2339 c -0.0478,-0.1091 -0.0846,-4.0084 -0.0818,-8.6651 l 0.005,-8.4666 1.78594,-0.078 1.78594,-0.078 v 8.7433 8.7434 h -1.70418 c -0.9373,0 -1.74327,-0.089 -1.79104,-0.1985 z m 12.75563,-8.5328 v -8.7312 h 1.3171 1.3171 l 1.47867,1.7859 c 0.81327,0.9823 2.81019,3.5356 4.43759,5.6741 1.62741,2.1384 3.04822,3.8946 3.15736,3.9026 0.10914,0.01 0.19843,-2.5454 0.19843,-5.6741 v -5.6885 h 1.5875 1.5875 v 8.7312 8.7313 h -1.30401 c -0.74636,0 -1.45782,-0.1538 -1.66367,-0.3597 -0.19781,-0.1978 -2.19207,-2.6981 -4.4317,-5.5562 -2.23963,-2.8582 -4.16989,-5.1966 -4.28946,-5.1966 -0.11957,0 -0.21741,2.5003 -0.21741,5.5562 v 5.5563 h -1.5875 -1.5875 z m 24.07709,0 v -8.7312 h 5.70237 5.70237 l -0.08,1.389 -0.08,1.3891 -3.77031,0.073 -3.77032,0.073 v 2.1008 2.1007 l 2.97657,0.075 2.97656,0.075 0.0806,1.2568 0.0806,1.2568 h -2.06501 c -1.13576,0 -2.51151,0.077 -3.05721,0.1669 l -0.99219,0.164 v 2.3466 2.3466 h 3.83646 3.83646 v 1.323 1.3229 H 279.003 273.31446 Z M 161.52813,1865.72 c -0.72761,-0.1175 -2.09683,-0.413 -3.04271,-0.6567 -0.94589,-0.2437 -2.71016,-0.9289 -3.92062,-1.5228 -1.21045,-0.5938 -2.37977,-1.3528 -2.59849,-1.6867 -0.31968,-0.4878 -0.33578,-0.7225 -0.0821,-1.1965 0.17356,-0.3243 0.85735,-1.3427 1.51954,-2.2632 0.92904,-1.2915 1.39598,-1.7097 2.04474,-1.8314 0.65115,-0.1222 1.34196,0.086 3.06333,0.9212 1.22241,0.5933 2.93382,1.2095 3.80312,1.3692 0.86929,0.1597 2.05442,0.2146 2.63361,0.122 0.57919,-0.093 1.43795,-0.4063 1.90836,-0.697 0.49591,-0.3065 0.97686,-0.897 1.14463,-1.4053 0.19203,-0.5819 0.20387,-1.1017 0.0352,-1.5453 -0.13978,-0.3676 -0.60864,-0.9209 -1.04191,-1.2294 -0.43327,-0.3085 -2.43583,-1.1072 -4.45014,-1.7748 -2.01431,-0.6676 -4.34092,-1.5736 -5.17024,-2.0134 -0.82932,-0.4397 -2.04313,-1.3272 -2.69737,-1.9722 -0.72623,-0.7159 -1.39172,-1.7132 -1.70871,-2.5604 -0.28557,-0.7632 -0.59957,-1.9236 -0.69779,-2.5785 -0.0982,-0.655 -0.0405,-1.9525 0.12833,-2.8834 0.16881,-0.9309 0.5887,-2.2486 0.9331,-2.9282 0.34441,-0.6797 0.95844,-1.6306 1.36451,-2.1132 0.40608,-0.4826 1.44953,-1.3371 2.31877,-1.8989 0.86925,-0.5618 2.41884,-1.2835 3.44353,-1.6037 1.50356,-0.4698 2.45021,-0.5761 4.90578,-0.5512 2.46137,0.025 3.49767,0.1657 5.42396,0.7361 1.30968,0.3879 3.15233,1.1462 4.09476,1.6851 1.16383,0.6656 1.79509,1.2119 1.96782,1.7031 0.22281,0.6335 0.0996,0.9494 -0.99458,2.5509 -0.76922,1.1258 -1.55064,1.9528 -2.03459,2.1532 -0.69691,0.2887 -1.01581,0.2318 -2.82143,-0.5036 -1.11964,-0.4561 -2.79534,-0.9691 -3.72378,-1.1402 -1.31976,-0.2432 -1.95709,-0.2391 -2.92117,0.019 -0.67822,0.1814 -1.44069,0.5176 -1.69438,0.7472 -0.2537,0.2296 -0.53647,0.8184 -0.62839,1.3083 -0.11469,0.6114 -0.0318,1.0975 0.26416,1.5492 0.23722,0.362 0.99471,0.9402 1.68331,1.2848 0.68861,0.3445 2.75576,1.1245 4.59368,1.7331 1.83791,0.6087 4.04057,1.5207 4.89479,2.0268 0.85422,0.506 1.89392,1.3046 2.31043,1.7746 0.41652,0.4699 1.05321,1.4858 1.41487,2.2575 0.58094,1.2396 0.64477,1.6712 0.54774,3.7042 -0.0739,1.5477 -0.30623,2.8022 -0.70969,3.8316 -0.37514,0.9571 -1.1457,2.1201 -2.05682,3.1042 -0.94827,1.0242 -2.02583,1.8504 -3.08642,2.3664 -0.89621,0.4359 -2.29054,0.9612 -3.0985,1.1672 -0.80796,0.2059 -2.47483,0.4375 -3.70416,0.5147 -1.22934,0.077 -2.83047,0.044 -3.55807,-0.073 z m 76.06771,-0.033 c -0.94589,-0.093 -2.39865,-0.43 -3.22835,-0.749 -0.82971,-0.319 -2.09346,-1.1059 -2.80834,-1.7486 -0.7922,-0.7123 -1.54138,-1.7141 -1.91843,-2.5655 -0.49514,-1.118 -0.62072,-1.8722 -0.62907,-3.7781 -0.009,-1.9449 0.10323,-2.6334 0.60981,-3.7575 0.35756,-0.7935 1.20631,-1.9306 2.00407,-2.6851 0.76112,-0.7199 1.97232,-1.607 2.69156,-1.9715 0.71925,-0.3644 2.13815,-0.9128 3.15313,-1.2185 1.01497,-0.3056 3.03603,-0.7332 4.49124,-0.9501 1.45521,-0.2169 3.32071,-0.3951 4.14555,-0.3959 0.82484,-9e-4 1.68805,-0.074 1.91823,-0.1622 0.31426,-0.1206 0.41707,-0.5325 0.4127,-1.6536 -0.003,-0.877 -0.20804,-1.9383 -0.49592,-2.5722 -0.26957,-0.5935 -0.81017,-1.3309 -1.20135,-1.6386 -0.39118,-0.3077 -1.13992,-0.7009 -1.66388,-0.8739 -0.57824,-0.1908 -1.6566,-0.2553 -2.74378,-0.1642 -1.41118,0.1183 -2.25795,0.3915 -3.99176,1.2879 -1.55224,0.8024 -2.52622,1.1387 -3.3057,1.1413 -0.71552,0 -1.36841,-0.1928 -1.85208,-0.5537 -0.41086,-0.3066 -1.13347,-1.1996 -1.60581,-1.9844 -0.47234,-0.7848 -0.85929,-1.7336 -0.8599,-2.1084 -6e-4,-0.3748 0.2668,-0.9276 0.59422,-1.2284 0.32742,-0.3008 1.45034,-0.9738 2.49536,-1.4955 1.04503,-0.5217 2.53331,-1.1917 3.30729,-1.4888 0.77399,-0.2972 2.40511,-0.7165 3.62472,-0.9319 1.21961,-0.2154 3.01627,-0.3917 3.99257,-0.3917 0.97631,0 2.6757,0.2304 3.77643,0.5119 1.10073,0.2815 2.62798,0.8294 3.39389,1.2175 0.76591,0.3881 2.00785,1.2876 2.75989,1.9988 0.75203,0.7113 1.68145,1.8703 2.06538,2.5758 0.38393,0.7054 0.87804,2.0461 1.09803,2.9794 0.32383,1.3738 0.40072,3.8491 0.40389,13.0017 l 0.004,11.3048 -0.65437,0.4288 c -0.51665,0.3385 -1.18129,0.4094 -3.15809,0.3368 -2.32088,-0.085 -2.56017,-0.146 -3.27645,-0.8327 -0.42499,-0.4074 -0.91363,-1.2111 -1.08586,-1.7859 -0.17223,-0.5749 -0.40599,-1.0452 -0.51948,-1.0452 -0.11349,0 -0.68255,0.4076 -1.26458,0.9058 -0.58203,0.4982 -1.76432,1.2584 -2.62731,1.6893 -0.86299,0.4308 -2.16438,0.9111 -2.89199,1.0672 -0.7276,0.1561 -1.79916,0.3219 -2.38125,0.3685 -0.58208,0.047 -1.83224,0.01 -2.77812,-0.084 z m 7.46264,-7.0035 c 0.6638,-0.2261 1.69704,-0.8307 2.29609,-1.3435 l 1.08918,-0.9323 v -1.9108 c 0,-1.1335 -0.12917,-2.04 -0.3175,-2.2284 -0.17922,-0.1792 -1.0378,-0.3175 -1.97135,-0.3175 -0.90962,0 -2.28479,0.132 -3.05594,0.2933 -0.77114,0.1613 -1.96144,0.5936 -2.64511,0.9606 -0.78583,0.4219 -1.39406,0.9856 -1.65365,1.5327 -0.22584,0.4759 -0.41061,1.1074 -0.41061,1.4034 0,0.2959 0.11609,0.8434 0.25799,1.2166 0.14189,0.3732 0.6479,0.9163 1.12447,1.2069 0.61412,0.3744 1.33441,0.5286 2.47301,0.5293 0.88358,5e-4 2.14962,-0.1841 2.81342,-0.4103 z m 54.82075,6.9021 c -0.88741,-0.1957 -2.20466,-0.6554 -2.9272,-1.0215 -0.72255,-0.3661 -1.76607,-1.1664 -2.31894,-1.7784 -0.55286,-0.6119 -1.23411,-1.6301 -1.51387,-2.2625 -0.27976,-0.6325 -0.57909,-1.9041 -0.66517,-2.8259 -0.10913,-1.1687 -0.0268,-2.1224 0.27215,-3.1506 0.23576,-0.811 0.82335,-2.0473 1.30576,-2.7473 0.48241,-0.7 1.525,-1.7214 2.31685,-2.2697 0.79186,-0.5483 2.27317,-1.308 3.29182,-1.6883 1.01865,-0.3803 2.94589,-0.9166 4.28277,-1.1919 1.33688,-0.2752 3.69234,-0.582 5.23435,-0.6817 1.542,-0.1 2.86365,-0.2784 2.93699,-0.397 0.0733,-0.1187 0.14122,-0.8754 0.15085,-1.6817 0.0124,-1.0356 -0.16528,-1.8331 -0.60518,-2.7168 -0.37028,-0.7439 -0.97187,-1.4507 -1.48408,-1.7436 -0.47376,-0.271 -1.56808,-0.5568 -2.43181,-0.6351 -0.86374,-0.078 -2.11124,-0.01 -2.77223,0.1602 -0.66099,0.1664 -2.06699,0.7107 -3.12444,1.2094 -1.05745,0.4987 -2.24374,0.9851 -2.63619,1.0808 -0.39245,0.096 -1.14724,0.031 -1.67731,-0.1441 -0.7563,-0.2496 -1.21495,-0.7063 -2.13072,-2.122 -0.64183,-0.9921 -1.16696,-2.0424 -1.16696,-2.334 0,-0.2915 0.16769,-0.6978 0.37264,-0.9027 0.20496,-0.205 0.97043,-0.7563 1.70106,-1.2251 0.73063,-0.4688 2.36427,-1.2748 3.63032,-1.7909 1.26605,-0.5162 3.20925,-1.1003 4.31822,-1.2981 1.10896,-0.1979 2.76546,-0.3639 3.6811,-0.3689 0.91564,-0.01 2.58252,0.1745 3.70417,0.3992 1.12165,0.2246 2.7804,0.7663 3.68612,1.2038 0.90571,0.4374 2.28476,1.3785 3.06457,2.0912 0.7798,0.7127 1.79195,1.9977 2.24923,2.8557 0.45729,0.8579 1.01124,2.3227 1.231,3.255 0.32254,1.3684 0.40034,3.8239 0.40349,12.7355 l 0.004,11.0402 -0.66086,0.433 c -0.53467,0.3504 -1.18731,0.4136 -3.41832,0.331 -2.21235,-0.082 -2.86412,-0.1986 -3.29697,-0.5904 -0.29672,-0.2685 -0.73258,-1.0695 -0.96857,-1.78 -0.23598,-0.7105 -0.52729,-1.2918 -0.64735,-1.2918 -0.12006,0 -0.72833,0.4261 -1.35171,0.947 -0.62339,0.5208 -1.70805,1.2381 -2.41035,1.594 -0.7023,0.3559 -1.9597,0.8129 -2.79421,1.0157 -0.83451,0.2028 -2.35073,0.4306 -3.36937,0.5063 -1.10355,0.082 -2.50419,-0.01 -3.46557,-0.218 z m 9.2864,-7.1138 c 0.7276,-0.3398 1.70987,-0.9445 2.18281,-1.3439 0.82352,-0.6953 0.8599,-0.8067 0.8599,-2.6339 0,-1.1312 -0.12926,-2.0372 -0.3175,-2.2255 -0.17463,-0.1746 -0.85924,-0.3151 -1.52136,-0.3122 -0.66212,0 -2.01169,0.122 -2.99905,0.2648 -0.98736,0.1428 -2.3836,0.5577 -3.10277,0.9222 -0.77647,0.3934 -1.47124,0.9791 -1.71053,1.4418 -0.22163,0.4286 -0.39874,1.1721 -0.39358,1.6523 0.005,0.4801 0.16709,1.1576 0.35985,1.5053 0.19276,0.3478 0.63503,0.7901 0.98281,0.9828 0.35158,0.1949 1.45467,0.3535 2.48442,0.3573 1.39694,0.01 2.17718,-0.145 3.175,-0.611 z m -257.4962,6.8689 c -0.613219,-0.2 -1.64502,-0.6743 -2.292891,-1.054 -0.647871,-0.3796 -1.600658,-1.1841 -2.117304,-1.7877 -0.516646,-0.6036 -1.142709,-1.7058 -1.391251,-2.4493 -0.268875,-0.8043 -0.440373,-2.0851 -0.423449,-3.1625 0.01585,-1.009 0.241276,-2.4048 0.509142,-3.1525 0.264383,-0.738 1.000496,-1.9205 1.635806,-2.6279 0.63531,-0.7073 1.660565,-1.5823 2.278345,-1.9443 0.617781,-0.362 1.838277,-0.9488 2.712214,-1.3039 0.873938,-0.3551 2.784789,-0.8894 4.246335,-1.1872 1.461547,-0.2979 3.709846,-0.608 4.996219,-0.6891 1.286374,-0.081 2.606752,-0.2024 2.934174,-0.2695 0.541751,-0.1109 0.595312,-0.2724 0.595312,-1.795 0,-1.2365 -0.158994,-1.9738 -0.609266,-2.8253 -0.416433,-0.7875 -0.973919,-1.3449 -1.761406,-1.7614 -0.824612,-0.436 -1.593975,-0.6092 -2.706372,-0.6092 -0.866211,0 -2.266037,0.2397 -3.162191,0.5416 -0.884377,0.298 -2.202068,0.8524 -2.928202,1.2321 -0.770595,0.4029 -1.78829,0.7006 -2.444485,0.715 -0.618333,0.014 -1.443083,-0.1458 -1.832778,-0.3543 -0.389694,-0.2085 -1.188818,-1.1396 -1.77583,-2.069 -0.710794,-1.1255 -1.039928,-1.9265 -0.985362,-2.3981 0.06199,-0.5358 0.425723,-0.9132 1.494427,-1.5505 0.776871,-0.4632 2.504822,-1.3213 3.839891,-1.9069 1.458719,-0.6397 3.363724,-1.2278 4.773727,-1.4737 1.290481,-0.225 3.110902,-0.4092 4.045379,-0.4092 0.934477,0 2.555991,0.1912 3.603363,0.4248 1.047373,0.2336 2.635426,0.7692 3.529009,1.1903 0.893582,0.4211 2.220432,1.3012 2.948556,1.9559 0.728125,0.6546 1.693527,1.7663 2.145338,2.4704 0.451812,0.7041 1.059727,2.2117 1.350923,3.3503 0.488063,1.9083 0.529446,2.9342 0.529446,13.1252 v 11.0552 l -0.588038,0.4119 c -0.426927,0.299 -1.242448,0.4118 -2.976562,0.4115 -1.74551,-3e-4 -2.636649,-0.125 -3.310202,-0.4631 -0.705784,-0.3542 -1.035515,-0.7716 -1.407669,-1.782 -0.267295,-0.7258 -0.52908,-1.3626 -0.581744,-1.4153 -0.05266,-0.053 -0.890069,0.4711 -1.860899,1.1639 -0.970831,0.6927 -2.556479,1.5561 -3.523662,1.9185 -1.452639,0.5443 -2.333788,0.6744 -5.065807,0.7484 -2.30639,0.062 -3.644713,-0.02 -4.422236,-0.2741 z m 10.904527,-7.0051 c 0.873125,-0.4173 1.864229,-1.0594 2.202454,-1.4268 0.508084,-0.552 0.618171,-0.9706 0.633469,-2.4091 0.01179,-1.109 -0.112951,-1.8995 -0.343606,-2.1774 -0.305422,-0.368 -0.75674,-0.4157 -2.882427,-0.3045 -1.678747,0.088 -3.022975,0.3239 -4.0257,0.7071 -0.909882,0.3476 -1.825702,0.9399 -2.315104,1.4973 -0.633337,0.7214 -0.809711,1.1688 -0.809711,2.0542 0,0.894 0.152885,1.2743 0.727604,1.8098 0.400183,0.3729 0.906198,0.743 1.12448,0.8224 0.218281,0.079 1.230312,0.1537 2.248958,0.1651 1.520426,0.017 2.136361,-0.1152 3.439583,-0.7381 z m 66.410423,7.0037 c -0.58209,-0.1841 -1.41553,-0.522 -1.85209,-0.7508 -0.43656,-0.2288 -1.25657,-0.8739 -1.82224,-1.4335 -0.56566,-0.5596 -1.30889,-1.6215 -1.65162,-2.3598 -0.34272,-0.7382 -0.7431,-1.9749 -0.88974,-2.7481 -0.14663,-0.7732 -0.26661,-4.4256 -0.26661,-8.1166 v -6.7107 h -1.73181 c -1.48595,0 -1.82403,-0.092 -2.38125,-0.6495 -0.58549,-0.5854 -0.64944,-0.8662 -0.64944,-2.8515 0,-1.5649 0.11919,-2.3723 0.41188,-2.7902 0.35189,-0.5023 0.6559,-0.588 2.08736,-0.588 1.22672,0 1.83493,-0.1291 2.27084,-0.4821 0.48108,-0.3895 0.79136,-1.3672 1.61641,-5.0932 0.79189,-3.5763 1.14648,-4.7151 1.57993,-5.0742 0.45565,-0.3775 1.08341,-0.463 3.39897,-0.463 2.41542,0 2.90558,0.072 3.27798,0.4839 0.37364,0.4128 0.43788,1.1892 0.43788,5.2916 v 4.8078 h 3.68527 c 2.99747,0 3.76287,0.078 4.10104,0.4158 0.32383,0.3238 0.41578,1.0148 0.41578,3.1244 0,1.9186 -0.10932,2.8585 -0.37477,3.2223 -0.33207,0.4551 -0.80681,0.5287 -4.16719,0.6459 l -3.79242,0.1323 -0.0683,6.2177 c -0.0603,5.493 -0.0141,6.3253 0.39688,7.1409 0.26567,0.5272 0.77121,1.0293 1.17874,1.1706 0.51977,0.1802 1.1552,0.1137 2.33964,-0.2449 1.17826,-0.3568 1.74587,-0.4168 2.06109,-0.2179 0.23927,0.1509 1.07141,1.3247 1.84921,2.6085 1.18805,1.9609 1.3714,2.428 1.14665,2.9213 -0.14714,0.3229 -0.90103,0.8941 -1.6753,1.2692 -0.77428,0.3751 -2.1174,0.8642 -2.98472,1.0869 -0.93797,0.2409 -2.6533,0.3978 -4.23333,0.3873 -1.46101,-0.01 -3.13264,-0.1684 -3.71472,-0.3524 z m -157.7651,-0.3064 -0.58803,-0.4119 v -19.6871 c 0,-18.5234 0.0275,-19.7019 0.46578,-19.9365 0.25619,-0.1371 2.2463,-0.9152 4.42248,-1.7291 2.17617,-0.8139 4.21418,-1.4798 4.52889,-1.4798 0.31472,0 0.69655,0.1498 0.8485,0.3329 0.17617,0.2123 0.31647,3.8314 0.38718,9.988 0.061,5.3104 0.2036,9.9244 0.3169,10.2534 0.1133,0.329 0.48943,0.6693 0.83584,0.7563 0.34641,0.087 0.91927,0.085 1.27301,0 0.45296,-0.1137 1.60019,-1.511 3.87945,-4.725 1.77996,-2.51 3.5207502,-4.9507 3.8684302,-5.4238 0.34768,-0.4731 0.97726,-1.0386 1.39908,-1.2568 0.5867,-0.3034 1.75101,-0.3966 4.95453,-0.3966 3.36189,0 4.30355,0.081 4.77564,0.4119 0.32342,0.2265 0.58804,0.6626 0.58804,0.9689 0,0.3064 -0.8566,1.6986 -1.90355,3.0939 -1.04695001,1.3952 -3.00594,3.9263 -4.35331,5.6245 -1.34737,1.6983 -2.86892,3.4222 -3.38123,3.831 l -0.93145,0.7432 0.75687,0.7993 c 0.41627,0.4395 1.51974,2.0494 2.45215,3.5773 0.93241,1.528 3.08903,5.1651 4.79248999,8.0825 1.70346001,2.9174 3.09719001,5.5624 3.09719001,5.8777 0,0.3153 -0.23029,0.6965 -0.51177,0.8472 -0.29871,0.1598 -2.47421001,0.2723 -5.22552,0.27 -3.2389,0 -4.92071,-0.1076 -5.37521,-0.3351 -0.48162,-0.2412 -1.52468,-1.9965 -3.8365702,-6.4564 -1.74631,-3.3689 -3.44652,-6.4923 -3.77823,-6.9409 -0.52797,-0.7142 -0.76128,-0.8158 -1.87238,-0.8158 h -1.26927 l -0.31031,1.6841 c -0.17068,0.9263 -0.31032,4.0152 -0.31032,6.8642 0,5.0529 -0.0144,5.1901 -0.58804,5.5919 -0.47103,0.3299 -1.40691,0.4119 -4.70363,0.4119 -3.29671,0 -4.23259,-0.082 -4.70363,-0.4119 z m 44.18542,0 -0.58804,-0.4119 v -16.2508 -16.2507 l 0.64838,-0.4249 c 0.52886,-0.3465 1.25918,-0.4086 3.962144,-0.3368 2.945502,0.078 3.37536,0.1497 3.867969,0.643 0.370827,0.3713 0.663392,1.203 0.884212,2.5135 0.181507,1.0772 0.419598,1.9351 0.529092,1.9065 0.109493,-0.029 0.620423,-0.604 1.135399,-1.2784 0.514976,-0.6745 1.639965,-1.7443 2.499975,-2.3774 1.003705,-0.7389 2.070849,-1.2646 2.979987,-1.468 0.884467,-0.198 2.073526,-0.2466 3.166407,-0.1296 1.047539,0.1122 1.984857,0.3775 2.334939,0.661 l 0.584866,0.4736 -0.357373,2.6146 c -0.196555,1.4381 -0.505481,3.255 -0.686503,4.0376 -0.181022,0.7827 -0.49004,1.5252 -0.686706,1.65 -0.196666,0.1249 -1.438069,0.153 -2.758674,0.063 -1.572249,-0.1077 -2.729537,-0.056 -3.352549,0.1496 -0.523297,0.1727 -1.441039,0.6686 -2.039426,1.1021 -0.598388,0.4335 -1.321718,1.1715 -1.6074,1.64 -0.49186,0.8067 -0.519475,1.3809 -0.520412,10.8207 l -9.89e-4,9.9688 -0.69714,0.5484 c -0.635566,0.4999 -1.051002,0.5484 -4.703628,0.5484 -3.19797,0 -4.12516,-0.083 -4.59453,-0.4119 z m 75.935421,0 -0.588038,-0.4119 v -10.2944 c 0,-9.907 -0.01926,-10.3048 -0.511773,-10.5683 -0.281474,-0.1507 -0.930716,-0.2739 -1.442758,-0.2739 -0.512043,0 -1.228319,-0.1355 -1.591725,-0.3011 -0.363406,-0.1656 -0.785727,-0.6596 -0.938491,-1.0978 -0.152764,-0.4382 -0.277753,-1.5607 -0.277753,-2.4945 0,-0.9337 0.123252,-1.928 0.273892,-2.2095 0.235595,-0.4402 0.568557,-0.5117 2.38125,-0.5117 h 2.107358 l 0.0046,-1.9183 c 0.0025,-1.055 0.177311,-2.7334 0.388408,-3.7297 0.211098,-0.9963 0.797456,-2.5512 1.303019,-3.4552 0.505562,-0.904 1.525015,-2.2104 2.26545,-2.903 0.740435,-0.6925 1.967712,-1.5317 2.727283,-1.8648 0.759571,-0.3331 2.025356,-0.7582 2.812857,-0.9446 0.96493,-0.2284 2.49816,-0.2929 4.702,-0.1977 2.04416,0.088 3.42065,0.2661 3.67151,0.4743 0.28629,0.2376 0.3631,0.6437 0.26798,1.4167 -0.0733,0.5961 -0.20755,1.898 -0.29826,2.8933 -0.11544,1.2666 -0.31662,1.9612 -0.67051,2.3151 -0.40603,0.406 -0.88861,0.5055 -2.45083,0.5055 -1.58003,0 -2.11135,0.112 -2.82996,0.5963 -0.4866,0.3279 -1.11367,0.9882 -1.39349,1.4673 -0.28786,0.4929 -0.56676,1.5936 -0.64233,2.5351 -0.0813,1.013 -0.0136,1.888 0.17304,2.2368 0.29014,0.5421 0.49035,0.5729 3.72757,0.5729 3.11142,0 3.44575,0.046 3.69486,0.5117 0.15064,0.2815 0.27389,1.6422 0.27389,3.0239 0,1.9308 -0.0962,2.6082 -0.41577,2.9278 -0.33474,0.3347 -1.07695,0.4157 -3.80815,0.4157 -2.92991,0 -3.41558,0.06 -3.56257,0.4436 -0.0936,0.2439 -0.15716,4.8576 -0.14124,10.2526 0.0159,5.395 -0.0475,10.0057 -0.141,10.246 -0.0935,0.2403 -0.42961,0.5066 -0.746966,0.5917 -0.317355,0.085 -2.187627,0.1564 -4.156159,0.1584 -2.815558,0 -3.704604,-0.084 -4.167188,-0.4083 z m 97.723569,0 c -0.37057,-0.3706 -0.41533,-2.5493 -0.41172,-20.0422 0.002,-10.7945 0.0915,-19.7595 0.19844,-19.9222 0.10691,-0.1627 1.88136,-0.9759 3.94322,-1.8071 2.06186,-0.8313 4.02341,-1.4721 4.359,-1.424 0.33559,0.048 0.76022,0.385 0.94362,0.7488 0.23581,0.4677 0.33459,2.2681 0.33735,6.1483 l 0.004,5.4868 1.49648,-0.9573 c 0.82307,-0.5265 2.14606,-1.1856 2.93999,-1.4647 0.79393,-0.279 2.17434,-0.5721 3.06758,-0.6512 0.89324,-0.079 2.39063,-0.017 3.32753,0.1383 0.9369,0.1552 2.36565,0.6051 3.175,0.9996 0.80935,0.3945 2.13317,1.3798 2.94182,2.1895 1.06891,1.0702 1.66542,1.962 2.18509,3.2665 0.39315,0.987 0.83049,2.5943 0.97188,3.5719 0.14139,0.9776 0.25943,6.547 0.26231,12.3764 0.004,8.7344 -0.0607,10.6892 -0.36975,11.1125 -0.33736,0.4621 -0.77709,0.5222 -4.38257,0.5991 -3.32533,0.071 -4.11731,0.014 -4.6521,-0.3369 l -0.64451,-0.4223 -0.006,-11.1725 c -0.005,-10.3234 -0.0433,-11.255 -0.49833,-12.2571 -0.27089,-0.5965 -0.89335,-1.3704 -1.38325,-1.7198 -0.75351,-0.5374 -1.19644,-0.634 -2.87511,-0.6274 -1.40193,0.01 -2.25618,0.1506 -2.91041,0.4942 -0.50933,0.2676 -1.313,0.7761 -1.78594,1.1302 l -0.8599,0.6436 v 11.6282 c 0,11.2755 -0.0161,11.6443 -0.52916,12.1574 -0.48191,0.4819 -0.88195,0.5292 -4.47902,0.5292 -3.238,0 -4.02478,-0.075 -4.36563,-0.4158 z m 82.6634,-0.1134 -0.52917,-0.5292 v -19.4279 c 0,-15.9819 0.0635,-19.4915 0.35811,-19.7861 0.19696,-0.197 0.82204,-0.5586 1.38906,-0.8036 0.56703,-0.245 2.26399,-0.9257 3.77104,-1.5128 1.50704,-0.5871 2.90603,-1.0675 3.10885,-1.0675 0.20283,0 0.6069,0.2382 0.89794,0.5292 l 0.52917,0.5292 v 20.887 20.8871 l -0.58804,0.4119 c -0.46782,0.3277 -1.38739,0.4119 -4.49792,0.4119 -3.5571,0 -3.95762,-0.048 -4.43904,-0.5292 z m -81.57001,-46.2359 c -0.077,-0.4002 -0.0772,-2.2754 -3e-4,-4.1672 0.1009,-2.484 0.24194,-3.5215 0.50765,-3.7345 0.27955,-0.2241 1.52425,0.036 5.1817,1.083 2.99214,0.8564 4.91722,1.5419 5.08715,1.8113 0.20058,0.318 0.1689,0.5302 -0.11901,0.7968 -0.21582,0.1999 -0.86864,0.5476 -1.45073,0.7727 -0.58208,0.225 -2.80586,1.2543 -4.94173,2.2873 -2.13587,1.033 -3.9377,1.8782 -4.00405,1.8782 -0.0664,0 -0.18366,-0.3274 -0.26068,-0.7276 z m 36.33549,-11.2998 c -0.30067,-0.3623 0.008,-1.1668 2.16315,-5.6408 1.38261,-2.8701 3.3875,-7.097 4.45533,-9.3933 1.60016,-3.441 2.05596,-4.2037 2.59263,-4.3384 0.35813,-0.09 0.83373,-0.048 1.0569,0.092 0.22317,0.1408 1.10186,2.1526 1.95264,4.4707 0.91838,2.5024 1.51625,4.5373 1.47151,5.0085 -0.0633,0.6671 -0.50397,1.1104 -2.76113,2.7781 -1.47717,1.0915 -4.27514,3.1632 -6.2177,4.6038 -1.94257,1.4407 -3.71885,2.6694 -3.9473,2.7304 -0.22844,0.061 -0.57316,-0.079 -0.76603,-0.3115 z m -9.66653,-1.331 c -0.14552,-0.063 -3.30067,-0.3636 -7.01145,-0.6669 -4.75584,-0.3887 -6.85516,-0.6589 -7.11379,-0.9155 -0.2018,-0.2002 -0.30133,-0.5349 -0.22117,-0.7438 0.0802,-0.2089 1.37635,-1.0977 2.88045,-1.9752 1.50409,-0.8776 4.40159,-2.5121 6.43888,-3.6325 2.03729,-1.1203 4.12155,-2.0979 4.63167,-2.1724 0.6979,-0.102 1.04173,-0.01 1.38891,0.3743 0.26445,0.2922 0.87945,2.2813 1.44075,4.6599 0.89717,3.8019 0.94387,4.1855 0.55659,4.5728 -0.23252,0.2325 -0.94104,0.466 -1.5745,0.5187 -0.63346,0.053 -1.27081,0.044 -1.41634,-0.019 z m 47.9201,-15.8035 c -0.21428,-0.3321 -0.87435,-1.7104 -1.46683,-3.063 -0.59247,-1.3526 -1.07722,-2.737 -1.07722,-3.0765 0,-0.3394 0.14883,-0.7357 0.33073,-0.8805 0.1819,-0.1448 2.91953,-1.2955 6.08362,-2.557 3.16409,-1.2616 6.24437,-2.4672 6.84506,-2.6791 0.80135,-0.2827 1.02423,-0.2974 0.83703,-0.055 -0.14033,0.1816 -0.89888,1.1126 -1.68569,2.0688 -0.7868,0.9563 -2.93657,3.4788 -4.77728,5.6057 -1.8407,2.1269 -3.50758,4.0903 -3.70417,4.3631 -0.19658,0.2727 -0.50103,0.5817 -0.67653,0.6866 -0.18894,0.1129 -0.47803,-0.056 -0.70872,-0.4131 z m 22.19449,-0.4606 c -0.43656,-0.1097 -2.40109,-0.5685 -4.36563,-1.0195 -1.96453,-0.4511 -5.41148,-1.2461 -7.65989,-1.7668 -2.24842,-0.5207 -4.14026,-0.999 -4.2041,-1.0629 -0.0638,-0.064 1.40835,-1.935 3.27154,-4.1581 1.86319,-2.2232 3.46576,-4.1338 3.56127,-4.2459 0.0955,-0.1121 2.36792,2.441 5.04981,5.6736 2.68189,3.2326 5.03175,6.0926 5.2219,6.3554 0.19015,0.2629 0.24968,0.4657 0.13229,0.4508 -0.11739,-0.015 -0.57063,-0.1168 -1.00719,-0.2266 z m 0.88879,-1.3999 c -0.65808,-0.764 -2.98833,-3.5322 -5.17833,-6.1516 -2.19001,-2.6194 -4.71615,-5.6257 -5.61365,-6.6807 -1.44561,-1.6993 -1.56243,-1.9176 -1.02369,-1.9127 0.33447,0 2.275,0.1797 4.3123,0.3927 2.03729,0.2131 7.03791,0.6865 11.1125,1.0522 4.07458,0.3656 8.35789,0.7544 9.51846,0.8639 l 2.11013,0.1992 -2.62612,3.0427 c -1.44436,1.6735 -3.92968,4.4715 -5.52293,6.2177 -1.59325,1.7463 -3.37407,3.4429 -3.9574,3.7703 -0.58332,0.3275 -1.25727,0.5953 -1.49767,0.5953 -0.2404,0 -0.97552,-0.625 -1.6336,-1.389 z m -41.38735,-10.0386 c -2.72819,-2.7035 -4.85548,-5.0183 -4.8138,-5.2381 0.0411,-0.2166 0.28972,-0.4352 0.55255,-0.4858 0.26282,-0.051 3.43952,0.7074 7.05933,1.6846 4.44569,1.2002 6.63194,1.9083 6.73701,2.1821 0.0942,0.2454 -0.59661,1.5429 -1.75097,3.2887 -1.04859,1.5859 -2.12907,3.0026 -2.40107,3.1481 -0.42386,0.2269 -1.19337,-0.4278 -5.38305,-4.5796 z m 53.59543,-3.1579 c -1.52796,-0.1235 -4.98078,-0.4567 -7.67291,-0.7405 -2.69214,-0.2838 -7.73534,-0.7852 -11.20713,-1.1142 -4.20198,-0.3983 -6.3533,-0.705 -6.43487,-0.9176 -0.0674,-0.1756 1.2068,-3.6345 2.83154,-7.6865 1.62475,-4.0519 4.00049,-10.046 5.27942,-13.3202 1.27894,-3.2743 2.78576,-7.1137 3.3485,-8.532 0.56274,-1.4184 1.08709,-2.5793 1.16522,-2.5797 0.0781,-5e-4 0.78179,1.3981 1.5637,3.108 0.78191,1.7099 2.18779,4.8353 3.12419,6.9453 0.93639,2.1101 2.56925,5.6819 3.62857,7.9375 1.05933,2.2556 3.25069,6.9162 4.8697,10.3569 1.61901,3.4408 2.94366,6.3875 2.94366,6.5485 0,0.1609 -0.14883,0.276 -0.33073,0.2557 -0.1819,-0.02 -1.58089,-0.1378 -3.10886,-0.2612 z m 2.76617,-3.3331 c -0.55688,-1.2771 -2.24488,-4.9906 -3.75111,-8.2522 -1.50623,-3.2616 -2.64494,-6.0116 -2.53047,-6.1112 0.11447,-0.1 2.6489,-1.1375 5.63208,-2.3065 2.98318,-1.1691 5.99216,-2.3355 6.68663,-2.5921 0.69447,-0.2566 1.33418,-0.3951 1.42158,-0.3077 0.0874,0.087 -0.56207,2.3966 -1.44326,5.1314 -0.88119,2.7349 -2.3346,7.5919 -3.22979,10.7934 -0.8952,3.2015 -1.66037,5.8537 -1.70039,5.8938 -0.04,0.04 -0.52839,-0.9719 -1.08527,-2.2489 z m -32.97897,-3.0607 c -2.13534,-1.631 -5.11092,-3.9106 -6.61242,-5.0658 -1.50149,-1.1552 -4.39686,-3.4215 -6.43415,-5.0362 -2.03729,-1.6147 -5.25198,-4.1481 -7.14375,-5.6298 -1.89177,-1.4816 -4.86833,-3.8051 -6.61458,-5.1633 -2.45432,-1.9088 -3.19372,-2.6285 -3.25746,-3.1708 -0.0453,-0.3858 0.0454,-0.9404 0.20165,-1.2324 0.16025,-0.2994 0.6576,-0.5916 1.14079,-0.6701 0.47118,-0.077 5.61918,-0.5028 11.44002,-0.9471 5.82083,-0.4443 13.97661,-1.0999 18.12395,-1.4569 4.14735,-0.3571 9.36346,-0.8456 11.59136,-1.0858 2.50757,-0.2703 4.1448,-0.3426 4.29767,-0.1897 0.15287,0.1529 -0.52108,2.1577 -1.7691,5.2626 -1.10882,2.7586 -2.87691,7.2183 -3.92908,9.9105 -1.05218,2.6921 -3.01349,7.6332 -4.35848,10.9802 -1.34498,3.347 -2.52385,6.1697 -2.61971,6.2728 -0.0958,0.103 -1.92137,-1.1471 -4.05671,-2.7782 z m 38.48706,-7.6667 c 0.0708,-0.1846 0.75634,-2.2979 1.52335,-4.6963 0.76701,-2.3985 1.41695,-4.3912 1.44429,-4.4283 0.0273,-0.037 2.09302,0.4225 4.59037,1.0214 2.49736,0.599 4.54065,1.176 4.54065,1.2823 0,0.1063 -0.62508,0.5318 -1.38906,0.9457 -0.76399,0.4138 -3.43864,1.9806 -5.94368,3.4816 -2.50504,1.5011 -4.63114,2.7292 -4.72466,2.7292 -0.0935,0 -0.11209,-0.151 -0.0413,-0.3356 z"
       id="path26" /></g></svg>
