<?xml version="1.0" encoding="UTF-8" standalone="no"?>
<!-- Created with Inkscape (http://www.inkscape.org/) -->

<svg
   width="385.11295mm"
   height="100.1395mm"
   viewBox="0 0 385.11295 100.1395"
   version="1.1"
   id="svg1"
   xml:space="preserve"
   xmlns="http://www.w3.org/2000/svg"
   xmlns:svg="http://www.w3.org/2000/svg"><defs
     id="defs1" /><g
     id="layer1"
     transform="translate(-27.93207,-1109.8344)"><path
       style="fill:#ffffff"
       d="m 72.363045,1209.9213 c -0.43656,-0.062 -2.28203,-0.3625 -4.10104,-0.6684 -1.81901,-0.3059 -4.55745,-0.9505 -6.08542,-1.4324 -1.52797,-0.4819 -3.67109,-1.2478 -4.7625,-1.7021 -1.0914,-0.4542 -2.9964,-1.3716 -4.23333,-2.0387 -1.23693,-0.667 -3.14193,-1.8103 -4.23333,-2.5406 -1.09141,-0.7304 -2.81782,-2.0139 -3.83646,-2.8522 -1.01865,-0.8383 -2.51997,-2.2197 -3.33627,-3.0697 -0.8163,-0.85 -2.17072,-2.3683 -3.00983,-3.3741 -0.83911,-1.0058 -2.11837,-2.7322 -2.84281,-3.8365 -0.72444,-1.1043 -2.06875,-3.5556 -2.98735,-5.4473 -0.91861,-1.8918 -2.02728,-4.5707 -2.46371,-5.9532 -0.43643,-1.3824 -1.10787,-4.1208 -1.49209,-6.0854 -0.38422,-1.9645 -0.8067,-5.1697 -0.93886,-7.1226 -0.14577,-2.1541 -0.14379,-4.8148 0.005,-6.7645 0.13492,-1.7675 0.53775,-4.7093 0.89519,-6.5372 0.35743,-1.8279 1.02569,-4.5413 1.48502,-6.0298 0.45933,-1.4884 1.45643,-4.0926 2.21578,-5.787 0.75936,-1.6944 1.86957,-3.9142 2.46714,-4.9328 0.59757,-1.0187 1.78297,-2.8246 2.63421,-4.0133 0.85125,-1.1886 2.3752,-3.081 3.38657,-4.2053 1.01136,-1.1243 2.88744,-2.9169 4.16907,-3.9836 1.28162,-1.0667 3.2228,-2.5418 4.31372,-3.2779 1.09093,-0.7362 3.26297,-1.9824 4.82677,-2.7695 1.56379,-0.7871 3.79576,-1.8061 4.95993,-2.2643 1.16416,-0.4583 3.66448,-1.2293 5.55625,-1.7133 1.89177,-0.484 5.04692,-1.0842 7.01146,-1.3338 2.61603,-0.3323 4.59851,-0.4145 7.40833,-0.3071 2.11005,0.081 5.14615,0.3462 6.74687,0.5901 1.60073,0.244 4.3098,0.8459 6.02014,1.3377 1.71035,0.4918 4.15113,1.3232 5.42396,1.8476 1.27283,0.5244 3.305965,1.483 4.518085,2.1302 1.21212,0.6472 2.5218,1.3767 2.91042,1.621 0.38861,0.2443 1.83766,1.243 3.2201,2.2192 1.38245,0.9762 3.40651,2.5892 4.49792,3.5844 1.09141,0.9952 2.70103,2.5827 3.57694,3.5278 0.87591,0.9451 2.31403,2.7304 3.19583,3.9674 0.8818,1.2369 2.04513,2.9867 2.58517,3.8884 0.54005,0.9017 1.46679,2.6876 2.05943,3.9687 0.59264,1.2811 1.41946,3.2551 1.83739,4.3866 0.41792,1.1316 1.05778,3.2036 1.4219,4.6046 0.36413,1.401 0.85866,3.928 1.09897,5.6156 0.24031,1.6876 0.43915,4.7352 0.44186,6.7725 0.003,2.0782 -0.1878,5.0422 -0.43412,6.7522 -0.24147,1.6765 -0.85292,4.558 -1.35877,6.4035 -0.50585,1.8456 -1.54855,4.8197 -2.3171,6.6093 -0.76855,1.7896 -2.04018,4.3253 -2.82585,5.635 -0.78567,1.3097 -2.22226,3.4528 -3.19242,4.7625 -0.97017,1.3097 -2.6874,3.3608 -3.81607,4.558 -1.12868,1.1972 -3.08413,2.9978 -4.34546,4.0012 -1.26133,1.0035 -3.12676,2.3593 -4.14541,3.0128 -1.01864,0.6536 -2.74505,1.6665 -3.83646,2.2508 -1.0914,0.5844 -3.055925,1.5063 -4.365615,2.0487 -1.30969,0.5424 -3.51235,1.341 -4.89479,1.7747 -1.38245,0.4337 -4.00183,1.0832 -5.82084,1.4433 -2.72592,0.5397 -4.284,0.6711 -8.86354,0.7479 -3.05594,0.051 -5.91344,0.043 -6.35,-0.019 z m 11.37708,-4.901 c 1.3985,-0.1624 2.95502,-0.5347 3.77151,-0.9021 0.9795,-0.4407 1.47326,-0.8439 1.6712,-1.3645 0.15452,-0.4064 0.20792,-1.1281 0.11868,-1.6039 -0.13194,-0.7033 -0.83951,-1.4455 -3.78617,-3.9715 -1.99314,-1.7086 -4.81529,-4.1664 -6.27143,-5.4617 -1.45615,-1.2954 -4.26281,-3.8806 -6.23702,-5.745 -1.97422,-1.8645 -4.04059,-3.7484 -4.59194,-4.1865 -0.55135,-0.4382 -1.39887,-0.8711 -1.88337,-0.9619 -0.48451,-0.091 -1.27709,-0.034 -1.7613,0.1252 -0.60208,0.1987 -1.35831,0.8971 -2.39227,2.2091 -0.83154,1.0551 -2.73591,3.5258 -4.23194,5.4903 -1.49603,1.9645 -3.18298,4.2067 -3.74878,4.9825 -0.5658,0.7759 -1.19045,1.8801 -1.38811,2.4538 -0.30424,0.8831 -0.30294,1.1782 0.008,1.9235 0.20231,0.4841 0.72562,1.1351 1.16291,1.4464 0.4373,0.3114 1.67116,0.9751 2.74192,1.4748 1.07076,0.4998 2.77937,1.2208 3.79691,1.6022 1.01755,0.3814 3.2202,1.036 4.89479,1.4546 1.67459,0.4187 4.17581,0.89 5.55826,1.0473 1.38244,0.1573 2.93026,0.3315 3.43958,0.387 0.50932,0.055 2.23573,0.051 3.83646,-0.011 1.60073,-0.062 3.98198,-0.2364 5.29166,-0.3886 z m 17.139315,-5.5558 c 0.90536,-0.4537 2.37642,-1.3428 3.26904,-1.9758 0.89261,-0.633 1.93441,-1.521 2.3151,-1.9735 0.52787,-0.6273 0.69333,-1.1161 0.69704,-2.059 l 0.005,-1.2365 -3.5106,-3.301 c -1.93083,-1.8156 -5.239835,-5.0303 -7.353345,-7.1438 -2.11352,-2.1135 -4.80465,-4.9143 -5.98029,-6.224 -1.17564,-1.3096 -2.90445,-3.2742 -3.8418,-4.3656 -0.93735,-1.0914 -2.8502,-3.4131 -4.25078,-5.1594 -1.40057,-1.7462 -2.97338,-3.5857 -3.49513,-4.0878 -0.71197,-0.6851 -1.17898,-0.9128 -1.87195,-0.9128 -0.51032,0 -1.23997,0.2364 -1.63128,0.5286 -0.38938,0.2907 -1.7554,2.3088 -3.0356,4.4847 -1.2802,2.1758 -2.58169,4.707 -2.8922,5.6249 -0.39789,1.1761 -0.51113,1.9535 -0.38357,2.6335 0.0995,0.5306 0.39693,1.387 0.66085,1.9031 0.26392,0.5161 1.46815,1.9938 2.67606,3.2839 1.20791,1.29 4.34842,4.3264 6.97891,6.7475 2.63049,2.4211 6.62531,5.8921 8.87737,7.7134 2.25207,1.8213 4.74197,3.7716 5.53313,4.3339 0.79116,0.5624 1.92226,1.2422 2.51355,1.5108 0.59128,0.2685 1.52494,0.4909 2.0748,0.4941 0.60059,0 1.65692,-0.3236 2.645825,-0.8192 z m -50.843745,-7.3195 c 0.63838,-0.696 2.5299,-3.2013 4.20339,-5.5675 1.67349,-2.3662 3.61648,-5.1007 4.31775,-6.0768 0.70128,-0.9761 1.56448,-2.3363 1.91823,-3.0227 0.35375,-0.6864 0.64319,-1.496 0.64319,-1.7991 0,-0.3031 -0.18061,-0.9004 -0.40135,-1.3272 -0.22075,-0.4269 -0.76997,-0.9668 -1.22049,-1.1998 -0.52817,-0.2731 -2.00685,-0.5033 -4.16271,-0.6481 -1.83897,-0.1235 -6.32014,-0.3055 -9.95816,-0.4045 -4.52968,-0.1233 -6.9536,-0.088 -7.69015,0.1115 -0.59156,0.1603 -1.36547,0.6004 -1.71979,0.9779 -0.54221,0.5778 -0.64248,0.9448 -0.63318,2.3181 0.009,1.2771 0.21838,2.1071 0.96523,3.8195 0.5248,1.2034 1.44762,3.0488 2.0507,4.1011 0.60308,1.0522 1.73557,2.7782 2.51665,3.8354 0.78108,1.0573 1.78562,2.3386 2.23231,2.8473 0.44668,0.5088 1.41389,1.4594 2.14934,2.1126 1.14659,1.0183 1.50046,1.1876 2.48277,1.1876 1.02957,0 1.26313,-0.1281 2.30627,-1.2653 z m 63.483015,-3.829 c 0.48674,-0.328 1.6652,-1.6244 2.61882,-2.8809 0.95361,-1.2565 2.23986,-3.2347 2.85832,-4.396 0.72106,-1.3539 1.12448,-2.4516 1.12448,-3.0597 0,-0.5216 -0.13721,-1.2495 -0.30491,-1.6176 -0.16771,-0.368 -1.20951,-1.4126 -2.31511,-2.3212 -1.1056,-0.9086 -4.25916,-3.5003 -7.0079,-5.7594 -2.74875,-2.259 -6.14203,-5.0386 -7.54063,-6.1768 -1.3986,-1.1382 -3.710365,-2.9525 -5.137265,-4.0318 -1.81245,-1.3709 -3.04848,-2.0957 -4.10105,-2.405 -1.32941,-0.3906 -1.91134,-0.4064 -4.94625,-0.1344 -1.89177,0.1695 -3.88256,0.4315 -4.42397,0.5821 -0.54142,0.1507 -1.16649,0.5339 -1.38906,0.8517 -0.22258,0.3177 -0.40468,0.9143 -0.40468,1.3257 0,0.4115 0.19693,1.1291 0.43762,1.5948 0.24069,0.4657 1.33568,2.0374 2.43332,3.4926 1.09764,1.4552 2.93951,3.7769 4.09304,5.1594 1.15354,1.3824 3.42206,3.9894 5.04116,5.7933 1.6191,1.8038 4.55339,4.7804 6.520635,6.6146 1.96725,1.8341 4.46756,4.0581 5.55625,4.9421 1.08869,0.884 2.45355,1.9258 3.03303,2.3151 0.65938,0.443 1.41199,0.7078 2.0114,0.7078 0.55563,0 1.32936,-0.2504 1.84275,-0.5964 z m 8.57414,-18.0888 c 0.23557,-0.09 0.59244,-0.4817 0.79305,-0.8697 0.20061,-0.3879 0.56201,-1.6534 0.80312,-2.8122 0.2411,-1.1588 0.50545,-3.5951 0.58744,-5.4142 0.086,-1.9081 0.022,-4.2483 -0.15138,-5.5316 -0.16525,-1.2235 -0.51215,-2.5927 -0.7709,-3.0428 -0.25875,-0.45 -0.91126,-1.0353 -1.45003,-1.3006 l -0.97957,-0.4823 -5.09848,0.823 c -2.80416,0.4526 -6.64629,1.1272 -8.53806,1.4991 -2.44587,0.4808 -3.61157,0.8352 -4.03489,1.2268 -0.32825,0.3036 -0.59154,0.8564 -0.5869,1.2322 0.005,0.3748 0.15345,0.8621 0.33073,1.0828 0.17727,0.2208 1.632,1.4752 3.23273,2.7876 1.60073,1.3124 4.93448,3.9925 7.40833,5.9557 2.47386,1.9632 4.91464,3.8924 5.42396,4.2871 0.55691,0.4316 1.26018,0.7188 1.7643,0.7205 0.46104,0 1.03099,-0.071 1.26655,-0.1614 z m -56.794265,-2.0595 c 0.39295,-0.2044 0.96812,-0.6509 1.27815,-0.9921 0.31002,-0.3413 1.30844,-1.9897 2.21871,-3.6632 0.96299,-1.7704 1.70612,-3.4852 1.77722,-4.101 0.093,-0.8052 -0.0118,-1.2282 -0.43809,-1.7683 -0.40155,-0.5088 -0.95233,-0.7847 -1.94403,-0.9737 -0.76106,-0.1451 -2.57437,-0.3361 -4.02958,-0.4245 -1.45521,-0.088 -4.49131,-0.3282 -6.74688,-0.533 -2.25557,-0.2048 -8.10157,-0.7575 -12.9911,-1.2282 l -8.89006,-0.8559 -0.89952,0.5179 c -0.49474,0.2848 -1.13765,0.9908 -1.42869,1.5689 -0.46047,0.9145 -0.52798,1.5662 -0.52002,5.0197 0.008,3.265 0.0933,4.141 0.48347,4.9405 0.27846,0.5705 0.82094,1.1318 1.31376,1.3594 0.60696,0.2803 2.8546,0.4768 8.11549,0.7094 4.00183,0.177 9.35964,0.41 11.90626,0.5179 2.54661,0.1078 5.85651,0.2145 7.35532,0.237 1.89473,0.029 2.94283,-0.072 3.43959,-0.3308 z m 16.06029,-16.0409 c 2.47386,-0.1474 6.33144,-0.5015 8.57241,-0.7868 2.68888,-0.3423 4.4587,-0.7047 5.20428,-1.0657 0.62138,-0.3008 1.45335,-0.9711 1.84883,-1.4896 0.39547,-0.5185 1.42791,-2.5663 2.2943,-4.5507 0.866395,-1.9844 2.532635,-5.9893 3.702765,-8.8997 1.17013,-2.9104 2.34991,-5.9354 2.62173,-6.7222 0.27182,-0.7867 0.49378,-1.9178 0.49324,-2.5135 -5.5e-4,-0.6046 -0.22773,-1.4549 -0.51428,-1.9249 -0.28231,-0.463 -1.44273,-1.4969 -2.5787,-2.2975 -1.13598,-0.8007 -3.256025,-2.0478 -4.711235,-2.7715 -1.45521,-0.7236 -3.8425,-1.7313 -5.30508,-2.2392 -1.46259,-0.508 -3.90337,-1.1723 -5.42396,-1.4764 -1.52059,-0.304 -3.95306,-0.6899 -5.40547,-0.8576 -1.53333,-0.1769 -4.19628,-0.2422 -6.35,-0.1555 -2.38877,0.096 -4.90856,0.3916 -7.07815,0.8302 -1.8529,0.3746 -4.5566,1.0897 -6.00822,1.5892 -1.45163,0.4994 -3.63843,1.3962 -4.85956,1.9927 -1.22114,0.5966 -2.92624,1.5435 -3.78912,2.1042 -0.86288,0.5607 -2.00514,1.5023 -2.53835,2.0925 -0.54342,0.6015 -1.04681,1.4853 -1.14542,2.011 -0.10186,0.5429 -0.012,1.6358 0.21331,2.5954 0.2141,0.9117 1.01145,3.8008 1.77191,6.4202 0.76045,2.6193 2.03393,6.8461 2.82996,9.3927 0.79602,2.5466 1.74115,5.133 2.10028,5.7476 0.3737,0.6395 1.1309,1.3975 1.77042,1.7723 0.6146,0.3601 1.5937,0.73 2.17578,0.822 0.58208,0.092 2.60615,0.259 4.49792,0.3712 1.89177,0.1123 5.16599,0.2206 7.27604,0.2408 2.11005,0.02 5.86052,-0.084 8.33437,-0.2312 z m -6.03397,-7.4245 c -0.84483,-0.1235 -2.24227,-0.601 -3.10542,-1.061 -0.86314,-0.4601 -2.11501,-1.4198 -2.78192,-2.1328 -0.66692,-0.713 -1.5081,-1.9418 -1.8693,-2.7308 -0.3612,-0.789 -0.79193,-2.1615 -0.95719,-3.0502 -0.23263,-1.2509 -0.22414,-1.9854 0.0376,-3.2534 0.18593,-0.9008 0.63688,-2.2697 1.00212,-3.042 0.36523,-0.7724 1.29928,-2.0549 2.07565,-2.8502 0.88277,-0.9041 2.04731,-1.7433 3.10858,-2.2399 1.06741,-0.4995 2.33666,-0.8539 3.42117,-0.9551 1.04834,-0.098 2.28262,-0.029 3.14886,0.1747 0.78357,0.1847 1.96046,0.605 2.6153,0.934 0.65485,0.329 1.80426,1.188 2.55427,1.9088 0.75,0.7209 1.63136,1.8344 1.95858,2.4744 0.32722,0.6401 0.75396,1.7591 0.94832,2.4867 0.19436,0.7276 0.3548,2.0565 0.35653,2.953 0.002,0.8966 -0.21692,2.3371 -0.48587,3.2013 -0.26895,0.8641 -0.85522,2.1034 -1.30282,2.754 -0.44761,0.6505 -1.46469,1.685 -2.2602,2.2987 -0.7955,0.6137 -2.08446,1.335 -2.86436,1.6027 -0.77989,0.2678 -2.0133,0.5465 -2.74091,0.6193 -0.7276,0.073 -2.01414,0.031 -2.85897,-0.092 z m 5.01312,-5.4209 c 0.69799,-0.4316 1.62445,-1.2903 2.05881,-1.9083 0.624,-0.8878 0.81077,-1.4696 0.88994,-2.7719 0.0864,-1.4204 -0.003,-1.8378 -0.64926,-3.0205 -0.41221,-0.7547 -1.20379,-1.7302 -1.75906,-2.1677 -0.55812,-0.4397 -1.63229,-0.9348 -2.40206,-1.1071 -1.16697,-0.2611 -1.63526,-0.241 -2.89183,0.1243 -0.82465,0.2397 -1.90853,0.7951 -2.40862,1.2342 -0.50008,0.4391 -1.15546,1.3069 -1.45638,1.9286 -0.35977,0.7432 -0.54714,1.6542 -0.54714,2.6603 0,0.8416 0.1825,1.9148 0.40557,2.3848 0.22306,0.4701 0.84945,1.2882 1.39198,1.8179 0.54253,0.5298 1.46135,1.1434 2.04183,1.3637 0.62162,0.2359 1.67229,0.3688 2.55628,0.3234 1.11075,-0.057 1.83073,-0.2811 2.76994,-0.8617 z m -28.9729,10.8365 c 0.29922,-0.2707 0.49271,-0.8044 0.49271,-1.3588 0,-0.5022 -0.18429,-1.6446 -0.40952,-2.5387 -0.22524,-0.8941 -0.63078,-2.3401 -0.9012,-3.2132 -0.27042,-0.8731 -0.9307,-3.0758 -1.4673,-4.8948 -0.53659,-1.819 -1.33108,-4.4074 -1.76553,-5.7519 -0.55117,-1.7058 -0.99429,-2.6054 -1.46615,-2.9766 -0.37194,-0.2925 -0.83844,-0.5319 -1.03668,-0.5319 -0.19823,0 -0.84582,0.4385 -1.43908,0.9745 -0.59326,0.536 -1.82066,2.1135 -2.72755,3.5057 -0.9069,1.3922 -2.2551,3.7814 -2.99601,5.3094 -0.74091,1.5279 -1.65698,3.7665 -2.03571,4.9746 -0.37873,1.208 -0.68595,2.6368 -0.68272,3.175 0.003,0.5382 0.2116,1.2324 0.46302,1.5428 0.25143,0.3104 0.72679,0.7025 1.05635,0.8713 0.32957,0.1688 2.88941,0.5944 5.68854,0.9457 2.79914,0.3512 5.56558,0.6744 6.14767,0.7181 0.58208,0.044 1.40216,-0.01 1.82239,-0.1129 0.42024,-0.1058 0.98578,-0.393 1.25677,-0.6383 z m 58.637905,-1.683 c 2.36637,-0.4343 5.46195,-1.0318 6.87907,-1.3278 2.11506,-0.4416 2.71878,-0.6802 3.37043,-1.332 0.64679,-0.6469 0.78939,-1.0033 0.76978,-1.9242 -0.0142,-0.6664 -0.41307,-2.03 -0.972,-3.3228 -0.52136,-1.2059 -1.52256,-3.1424 -2.22489,-4.3033 -0.70233,-1.161 -2.02835,-3.0654 -2.94672,-4.2322 -0.96646,-1.2279 -2.01311,-2.2657 -2.48492,-2.4641 -0.44833,-0.1885 -1.02442,-0.288 -1.2802,-0.2212 -0.25577,0.067 -0.7592,0.4383 -1.11873,0.8254 -0.35952,0.387 -1.16561,1.9538 -1.7913,3.4818 -0.6257,1.528 -1.48844,3.6115 -1.91721,4.6302 -0.42878,1.0186 -1.07578,2.5664 -1.43779,3.4396 -0.362,0.8731 -1.00967,2.4756 -1.43926,3.561 -0.45462,1.1487 -0.71942,2.2191 -0.63357,2.5612 0.0811,0.3232 0.33441,0.7746 0.56287,1.003 0.22845,0.2285 0.85335,0.4153 1.38866,0.4152 0.53531,-10e-5 2.90941,-0.3555 5.27578,-0.7898 z m 75.73397,50.5259 c -0.65484,-0.1144 -1.52434,-0.338 -1.93221,-0.4968 -0.40787,-0.1588 -1.2011,-0.658 -1.76274,-1.1093 -0.56163,-0.4514 -1.38057,-1.495 -1.81987,-2.3192 -0.43929,-0.8242 -0.94254,-2.2791 -1.11833,-3.2332 -0.24269,-1.3171 -0.24769,-2.1444 -0.0208,-3.4368 0.16436,-0.9361 0.67044,-2.458 1.12464,-3.382 0.58875,-1.1976 1.16271,-1.9192 1.99943,-2.5135 0.64549,-0.4585 1.73354,-1.0371 2.4179,-1.2857 0.68435,-0.2486 1.86519,-0.4569 2.62409,-0.463 0.7589,-0.01 1.94952,0.1797 2.64583,0.4127 0.69631,0.233 1.88225,0.885 2.63541,1.4489 1.03439,0.7745 1.58456,1.4623 2.24896,2.8116 0.82774,1.6811 0.87957,1.9507 0.87957,4.575 0,2.6241 -0.0519,2.8941 -0.87957,4.5762 -0.66782,1.3572 -1.21724,2.0425 -2.28218,2.8466 -1.03708,0.783 -1.87663,1.1594 -3.22147,1.4443 -1.00038,0.212 -1.93793,0.3734 -2.08345,0.3588 -0.14552,-0.015 -0.80036,-0.1201 -1.45521,-0.2346 z m 4.16757,-2.5246 c 0.93848,-0.4676 1.61283,-1.0583 2.17201,-1.9025 0.44603,-0.6734 0.94231,-1.7077 1.10283,-2.2984 0.16287,-0.5992 0.2285,-1.9264 0.14851,-3.0027 -0.10874,-1.4629 -0.33047,-2.2616 -0.91804,-3.3073 -0.43462,-0.7734 -1.26622,-1.727 -1.89448,-2.1723 -0.99573,-0.7058 -1.33214,-0.7937 -3.036,-0.7937 -1.67208,0 -2.08156,0.1022 -3.2143,0.8025 -0.9936,0.6143 -1.48527,1.1685 -2.09592,2.3626 -0.70395,1.3764 -0.7978,1.8267 -0.7978,3.8276 0,1.955 0.1015,2.4684 0.73599,3.7229 0.4048,0.8004 1.09968,1.7407 1.54418,2.0895 0.4445,0.3489 1.24439,0.7902 1.77754,0.9806 0.53316,0.1904 1.45201,0.3515 2.0419,0.3579 0.64092,0.01 1.62025,-0.2614 2.43358,-0.6667 z m 180.28184,2.5196 c -0.6356,-0.1303 -1.6761,-0.4888 -2.3121,-0.7967 -0.636,-0.3079 -1.63,-1.0978 -2.2088,-1.7555 -0.5789,-0.6576 -1.3128,-1.868 -1.6308,-2.6898 -0.4356,-1.1253 -0.5765,-2.0492 -0.571,-3.7431 0.01,-1.6832 0.1577,-2.6428 0.6052,-3.8149 0.3288,-0.8614 1.071,-2.0793 1.6492,-2.7066 0.5782,-0.6273 1.723,-1.4704 2.544,-1.8736 1.2568,-0.6172 1.827,-0.7324 3.6093,-0.729 1.636,0 2.417,0.1412 3.4396,0.6083 0.7276,0.3325 1.7796,1.0451 2.3379,1.5836 0.5583,0.5385 1.3023,1.5403 1.6533,2.2263 0.351,0.6859 0.7541,2.0645 0.8957,3.0634 0.1715,1.2088 0.1665,2.382 -0.015,3.5074 -0.1498,0.9301 -0.5889,2.2727 -0.9759,2.9837 -0.3869,0.7109 -1.223,1.7499 -1.8579,2.3088 -0.635,0.5589 -1.7105,1.1949 -2.3902,1.4134 -0.6797,0.2184 -1.7715,0.4543 -2.4264,0.5242 -0.6548,0.07 -1.7107,0.02 -2.3464,-0.1099 z m 4.414,-2.61 c 0.5922,-0.3022 1.3776,-0.9438 1.7454,-1.4259 0.3677,-0.4821 0.8509,-1.3129 1.0736,-1.8461 0.2541,-0.608 0.4041,-1.7863 0.4025,-3.1607 0,-1.7506 -0.1284,-2.4574 -0.628,-3.5142 -0.344,-0.7276 -0.9679,-1.6441 -1.3865,-2.0365 -0.4185,-0.3925 -1.2037,-0.8985 -1.7447,-1.1245 -0.541,-0.226 -1.5531,-0.4083 -2.249,-0.4051 -0.6959,0 -1.7415,0.2263 -2.3236,0.4958 -0.5821,0.2695 -1.3771,0.8324 -1.7668,1.251 -0.3897,0.4185 -0.9553,1.3904 -1.2568,2.1598 -0.3676,0.938 -0.5483,2.004 -0.5483,3.2358 0,1.0747 0.1813,2.3057 0.4368,2.9667 0.2402,0.6214 0.7323,1.5296 1.0935,2.0182 0.3612,0.4886 1.266,1.1795 2.0107,1.5353 1.0657,0.5092 1.6423,0.6205 2.7091,0.5233 0.7455,-0.068 1.8399,-0.3708 2.4321,-0.6729 z m -162.01047,2.1273 c -0.58333,-0.265 -1.43393,-0.907 -1.89022,-1.4267 -0.45629,-0.5197 -0.98814,-1.4016 -1.1819,-1.9597 -0.25453,-0.7333 -0.35407,-2.7769 -0.35874,-7.3649 l -0.006,-6.35 1.10732,-0.08 1.10733,-0.081 0.0833,6.4305 c 0.0762,5.8855 0.12866,6.509 0.61852,7.3566 0.31696,0.5484 1.01416,1.1688 1.70971,1.5213 0.64596,0.3274 1.54075,0.5953 1.9884,0.5953 0.44765,0 1.33826,-0.2679 1.97913,-0.5953 0.79317,-0.4052 1.33906,-0.9332 1.70971,-1.6536 0.49562,-0.9634 0.55262,-1.6224 0.63503,-7.3422 l 0.0905,-6.2839 h 1.0502 1.0502 l -0.0824,6.813 c -0.0778,6.4343 -0.11486,6.8737 -0.66612,7.9043 -0.32104,0.6001 -0.94982,1.3992 -1.39728,1.7757 -0.44746,0.3765 -1.25635,0.8076 -1.79754,0.9579 -0.54118,0.1503 -1.81741,0.2713 -2.83605,0.2689 -1.21873,0 -2.21478,-0.1691 -2.91269,-0.4861 z m -57.28002,-8.5024 v -8.7312 h 5.15937 5.15938 v 0.9191 0.9192 l -4.0349,0.073 -4.03489,0.073 v 2.9104 2.9104 l 3.63802,0.074 3.63802,0.074 v 0.9111 0.9111 l -3.63802,0.074 -3.63802,0.074 -0.0734,3.7703 -0.0734,3.7704 h -1.05107 -1.05107 z m 81.75625,-0.014 v -8.7457 l 1.24732,0.081 1.24732,0.081 2.3468,3.3073 c 1.29075,1.819 2.75032,3.9026 3.24351,4.6302 0.49318,0.7276 1.4219,2.0771 2.06382,2.9989 0.64192,0.9218 1.29996,1.8088 1.4623,1.9711 0.21718,0.2172 0.29518,-1.4706 0.29518,-6.3875 v -6.6827 l 1.12448,0.081 1.12448,0.081 v 8.5989 8.599 h -1.15703 -1.15703 l -4.6638,-6.671 c -2.5651,-3.669 -4.75311,-6.6753 -4.86225,-6.6807 -0.10914,-0.01 -0.19843,3.0263 -0.19843,6.7371 v 6.7469 h -1.05834 -1.05833 z m 29.36875,0.015 v -8.795 l 4.16719,0.1134 c 3.50535,0.095 4.36366,0.2018 5.40429,0.6695 0.68041,0.3059 1.76825,1.0457 2.41743,1.6441 0.64917,0.5984 1.46125,1.7103 1.80462,2.4709 0.51551,1.142 0.62412,1.821 0.62327,3.8966 -8.5e-4,2.0594 -0.10698,2.7286 -0.58743,3.7041 -0.32252,0.6549 -0.95094,1.6318 -1.39647,2.1709 -0.46182,0.5588 -1.56195,1.3504 -2.55902,1.8413 -1.69929,0.8365 -1.86429,0.8641 -5.81142,0.9701 l -4.06246,0.1092 z m 8.86354,5.9256 c 0.58209,-0.3018 1.43614,-1.0416 1.89789,-1.6439 0.49129,-0.6408 0.97795,-1.7134 1.17318,-2.5858 0.25566,-1.1424 0.26502,-1.8912 0.04,-3.2046 -0.18545,-1.0826 -0.56879,-2.1113 -1.04088,-2.7932 -0.50677,-0.7319 -1.21574,-1.297 -2.20253,-1.7554 -1.23335,-0.573 -1.83842,-0.6771 -3.96875,-0.6831 l -2.51354,-0.01 -0.0707,6.7102 -0.0707,6.7101 2.84887,-0.099 c 2.22894,-0.078 3.07918,-0.2186 3.90721,-0.648 z m 17.51921,2.6207 c -0.0683,-0.1168 0.5834,-1.8793 1.44818,-3.9166 0.86477,-2.0373 2.3823,-5.6092 3.37227,-7.9375 0.98998,-2.3284 1.88321,-4.5012 1.98496,-4.8287 0.15564,-0.5008 0.37246,-0.5953 1.3661,-0.5953 0.88617,0 1.22193,0.1156 1.34462,0.463 0.0899,0.2547 0.84557,2.0704 1.67919,4.0349 0.83363,1.9646 2.13792,5.0602 2.89844,6.8792 0.76051,1.819 1.60848,3.8284 1.88437,4.4654 0.27589,0.637 0.50162,1.262 0.50162,1.3891 0,0.127 -0.5177,0.2309 -1.15044,0.2309 -1.07623,0 -1.1783,-0.064 -1.58231,-0.9922 -0.23753,-0.5457 -0.64616,-1.5875 -0.90807,-2.3151 l -0.47619,-1.3229 -4.11091,-0.073 -4.1109,-0.073 -0.9485,2.3216 -0.94849,2.3216 -1.0599,0.08 c -0.58294,0.044 -1.11575,-0.015 -1.18404,-0.1323 z m 11.18808,-6.8887 c 0,-0.1067 -0.62507,-1.7725 -1.38906,-3.7018 -0.76398,-1.9294 -1.49981,-3.472 -1.63518,-3.4282 -0.13536,0.044 -0.87951,1.6716 -1.65365,3.6173 -0.77414,1.9457 -1.40752,3.5757 -1.40752,3.6221 0,0.046 1.36922,0.084 3.04271,0.084 1.67349,0 3.0427,-0.087 3.0427,-0.1939 z m 21.34306,6.8967 c -0.097,-0.097 -0.17639,-3.6093 -0.17639,-7.8052 v -7.6288 h -2.92718 -2.92718 l 0.0829,-0.8599 0.0829,-0.8599 6.94531,-0.07 6.94532,-0.071 v 0.9215 0.9215 l -2.84428,0.075 -2.84427,0.075 -0.0701,7.739 -0.0701,7.7391 h -1.01024 c -0.55563,0 -1.08962,-0.079 -1.18663,-0.1764 z m 21.64575,-0.1406 c -0.0737,-0.1921 -0.10252,-4.0987 -0.064,-8.6812 l 0.07,-8.332 1.12811,-0.082 1.12812,-0.081 -0.0698,8.6805 -0.0698,8.6805 -0.99431,0.082 c -0.64273,0.053 -1.0417,-0.041 -1.12834,-0.267 z m 47.23415,-8.4142 v -8.7313 h 1.2575 1.2576 l 4.164,5.887 c 2.2902,3.2378 4.4585,6.2442 4.8183,6.6807 l 0.6544,0.7938 0.01,-6.6807 0.01,-6.6808 h 1.0583 1.0584 v 8.7465 8.7464 l -1.1122,-0.081 -1.1123,-0.081 -4.7524,-6.6692 c -2.6139,-3.6681 -4.8518,-6.6079 -4.9732,-6.5328 -0.1214,0.075 -0.2208,3.1059 -0.2208,6.7354 v 6.5989 h -1.0583 -1.0583 z m -183.63394,-21.4297 c -0.80756,-0.1286 -2.14795,-0.4882 -2.97865,-0.799 -0.8307,-0.3108 -2.05543,-0.8698 -2.72163,-1.2421 -0.66619,-0.3723 -1.78316,-1.2489 -2.48215,-1.9479 -0.69899,-0.699 -1.6885,-1.963 -2.1989,-2.8089 -0.51041,-0.846 -1.2331,-2.5111 -1.60597,-3.7003 -0.37288,-1.1892 -0.8019,-3.1506 -0.95338,-4.3586 -0.15148,-1.2081 -0.27552,-6.9027 -0.27564,-12.6545 -1.2e-4,-5.7519 -0.12142,-11.7361 -0.26955,-13.2981 -0.14813,-1.5621 -0.38871,-3.1541 -0.53463,-3.5379 -0.18661,-0.4909 -0.17553,-0.806 0.0374,-1.0625 0.22589,-0.2722 1.09504,-0.3647 3.42637,-0.3647 2.47582,0 3.20922,0.086 3.53602,0.4123 0.348,0.348 0.3819,0.8535 0.21733,3.2411 -0.10723,1.5559 -0.19497,8.1271 -0.19497,14.6028 0,10.262 0.0597,12.042 0.4648,13.8614 0.25564,1.1481 0.83143,2.815 1.27952,3.7042 0.4481,0.8892 1.18628,2.005 1.6404,2.4795 0.45413,0.4745 1.33757,1.1105 1.9632,1.4134 0.62563,0.3029 1.76188,0.7169 2.525,0.92 0.76312,0.2032 2.30408,0.3708 3.42436,0.3725 1.44739,0 2.6456,-0.1891 4.14034,-0.6613 1.66985,-0.5275 2.37842,-0.923 3.43717,-1.9182 0.8497,-0.7988 1.62945,-1.8866 2.14871,-2.9975 0.44826,-0.9591 0.99402,-2.626 1.21279,-3.7042 0.25158,-1.2399 0.45647,-4.3427 0.55752,-8.4427 0.0988,-4.0091 0.0277,-9.1069 -0.18637,-13.3615 -0.19038,-3.7835 -0.35431,-7.534 -0.36429,-8.3343 l -0.0181,-1.4552 3.04271,-0.067 c 1.67349,-0.037 3.20867,0.041 3.41151,0.1714 0.31185,0.2013 0.31687,0.6202 0.0325,2.7125 -0.20373,1.4991 -0.41565,7.6366 -0.53766,15.5712 -0.16326,10.6178 -0.28247,13.4404 -0.62978,14.9115 -0.23562,0.998 -0.76763,2.6219 -1.18223,3.6087 -0.41461,0.9868 -1.29723,2.5004 -1.96138,3.3635 -0.66415,0.8631 -1.61705,1.8817 -2.11756,2.2634 -0.5005,0.3818 -1.6113,1.0483 -2.46845,1.4812 -0.85715,0.433 -2.27283,0.9815 -3.14595,1.219 -0.91214,0.2481 -2.99452,0.4762 -4.89479,0.5361 -1.81901,0.057 -3.96802,0 -4.77557,-0.1296 z m 37.85521,-0.4711 c -2.54292,-0.04 -4.73184,-0.1811 -4.86429,-0.3135 -0.14468,-0.1447 -0.0571,-0.6965 0.21946,-1.3826 0.33869,-0.8401 0.52981,-2.5044 0.72361,-6.3011 0.14901,-2.9191 0.20051,-11.1909 0.1186,-19.05 -0.11677,-11.2056 -0.22446,-14.2486 -0.55709,-15.7427 -0.22678,-1.0186 -0.3559,-2.0009 -0.28693,-2.1828 0.0971,-0.2561 2.26146,-0.3305 9.59255,-0.3299 7.42238,7e-4 9.98147,0.091 11.84841,0.4171 1.30968,0.2289 3.24088,0.7739 4.29155,1.2112 1.05067,0.4372 2.64722,1.2712 3.54789,1.8533 0.90068,0.5822 2.34867,1.7334 3.21776,2.5583 0.8691,0.8249 2.05509,2.1393 2.63553,2.9208 0.58045,0.7815 1.57273,2.5131 2.20508,3.848 0.63235,1.3349 1.39108,3.4339 1.68608,4.6645 0.37241,1.5535 0.53692,3.142 0.53821,5.1967 10e-4,1.6276 -0.17491,3.7996 -0.39097,4.8267 -0.21605,1.027 -0.75564,2.8082 -1.19908,3.9581 -0.44345,1.1499 -1.28506,2.8315 -1.87025,3.7369 -0.58519,0.9054 -1.67507,2.2923 -2.42195,3.082 -0.74688,0.7897 -2.13952,2.0118 -3.09475,2.7157 -0.95522,0.7039 -2.35501,1.5902 -3.11063,1.9697 -0.75562,0.3795 -2.4225,0.9963 -3.70417,1.3709 -1.36931,0.4001 -3.25775,0.727 -4.57926,0.7928 -1.23693,0.062 -3.97537,0.1435 -6.08542,0.1822 -2.11005,0.039 -5.91703,0.038 -8.45994,0 z m 13.22938,-5.0901 c 1.23311,-0.1474 3.10575,-0.5764 4.16142,-0.9534 1.05567,-0.3769 2.63841,-1.15 3.51719,-1.718 0.87879,-0.568 2.14876,-1.5975 2.82217,-2.2878 0.67341,-0.6904 1.66644,-1.9368 2.20672,-2.7699 0.54029,-0.8331 1.28745,-2.2769 1.66037,-3.2085 0.37292,-0.9315 0.81574,-2.7285 0.98406,-3.9934 0.229,-1.7208 0.23112,-2.9349 0.008,-4.8232 -0.17964,-1.5232 -0.60036,-3.3032 -1.06136,-4.4904 -0.42007,-1.0818 -1.26912,-2.7426 -1.88678,-3.6906 -0.61767,-0.948 -1.83628,-2.3691 -2.70802,-3.158 -0.87174,-0.7889 -2.43111,-1.8427 -3.46525,-2.3418 -1.03414,-0.4991 -2.83275,-1.1226 -3.99692,-1.3854 -1.67436,-0.3781 -3.30537,-0.4801 -7.80521,-0.4881 l -5.68854,-0.01 -0.068,17.7933 -0.068,17.7932 h 4.57287 c 2.51507,0 5.58177,-0.1206 6.81488,-0.268 z m -106.63403,4.6549 c 0,-0.2065 0.20836,-1.1293 0.46303,-2.0505 0.42089,-1.5226 0.46302,-3.3841 0.46302,-20.4604 0,-17.2955 -0.0375,-18.9068 -0.47305,-20.3159 -0.26017,-0.8417 -0.40197,-1.6454 -0.31511,-1.7859 0.0878,-0.1421 1.6127,-0.2555 3.43399,-0.2555 2.3303,0 3.33786,0.096 3.49011,0.3307 0.11773,0.1819 0.16965,4.5872 0.11538,9.7896 -0.0752,7.2109 -0.0236,9.4588 0.21733,9.4588 0.17381,0 0.45735,-0.1488 0.63009,-0.3307 0.17274,-0.1819 1.74614,-1.9381 3.49644,-3.9026 1.75031,-1.9645 4.70974,-5.3245 6.57653,-7.4666 1.86678,-2.142 4.00558,-4.7228 4.75288,-5.735 0.81821,-1.1081 1.6639,-1.9533 2.12583,-2.1245 0.42189,-0.1564 1.67205,-0.2776 2.77812,-0.2694 1.10607,0.01 2.42631,0.1571 2.93386,0.3307 0.51233,0.1754 0.96326,0.5268 1.01373,0.79 0.0611,0.3184 -1.11499,1.709 -3.58024,4.2333 -2.01913,2.0676 -4.57316,4.7117 -5.67562,5.8759 -1.10245,1.1641 -3.62795,3.8942 -5.61222,6.0668 l -3.60775,3.9502 0.48118,0.5477 c 0.26466,0.3013 3.70137,4.0601 7.63715,8.353 3.93577,4.2928 8.66787,9.2732 10.51578,11.0674 2.13206,2.07 3.32884,3.4236 3.27501,3.7041 -0.0739,0.385 -0.58655,0.4515 -3.97634,0.5152 l -3.89153,0.073 -0.71116,-1.1315 c -0.39114,-0.6223 -1.67455,-2.2014 -2.85203,-3.509 -1.17747,-1.3076 -2.69055,-2.9745 -3.36239,-3.7041 -0.67184,-0.7297 -3.27651,-3.6485 -5.78816,-6.4861 -2.51165,-2.8377 -5.08883,-5.725 -5.72706,-6.4162 -0.63823,-0.6912 -1.27801,-1.2567 -1.42173,-1.2567 -0.16708,0 -0.25617,3.1725 -0.24705,8.7973 0.008,4.8386 0.11355,9.7453 0.2349,10.9037 0.12134,1.1584 0.16171,2.2598 0.0897,2.4474 -0.0982,0.2558 -1.05029,0.3411 -3.80677,0.3411 -2.99807,0 -3.67586,-0.069 -3.67586,-0.3755 z m 138.01311,-0.031 c -0.0888,-0.2314 0.014,-0.7599 0.22834,-1.1745 0.21438,-0.4145 0.52032,-1.8655 0.67986,-3.2243 0.1919,-1.6344 0.25895,-8.2918 0.1981,-19.6686 -0.0887,-16.5788 -0.11162,-17.2523 -0.63733,-18.7094 -0.31015,-0.8596 -0.45441,-1.6583 -0.3345,-1.852 0.16455,-0.2659 1.99914,-0.3407 8.35611,-0.3407 6.796,0 8.49591,0.077 10.26194,0.4656 1.16417,0.256 2.84461,0.8211 3.73432,1.2556 0.88971,0.4346 2.2125,1.2637 2.93954,1.8426 0.72704,0.5789 1.75279,1.6807 2.27944,2.4485 0.52665,0.7678 1.20373,2.1104 1.50464,2.9836 0.40791,1.1836 0.54568,2.2365 0.54153,4.1389 -0.004,1.9308 -0.14021,2.9114 -0.55915,4.0311 -0.30448,0.8138 -1.01298,2.1659 -1.57445,3.0048 -0.56146,0.8388 -1.59535,1.9513 -2.29752,2.4721 -0.70218,0.5207 -1.72043,1.1997 -2.26279,1.5088 -0.54237,0.3091 -1.77295,0.805 -2.73465,1.102 -0.96169,0.2971 -1.85441,0.6055 -1.98382,0.6855 -0.12941,0.08 0.4359,1.063 1.25624,2.1844 0.82033,1.1215 2.10541,2.8725 2.85571,3.8911 0.7503,1.0187 2.56198,3.4594 4.02596,5.424 1.46398,1.9645 3.4027,4.3772 4.30828,5.3615 1.03068,1.1203 1.59008,1.9367 1.49565,2.1828 -0.12386,0.3228 -0.83712,0.3932 -3.98447,0.3932 h -3.83361 l -0.7234,-1.2568 c -0.39786,-0.6912 -1.3152,-2.1497 -2.03852,-3.2412 -0.72332,-1.0914 -2.60457,-3.7897 -4.18055,-5.9962 -1.57598,-2.2065 -3.64023,-4.8562 -4.58721,-5.8881 l -1.72179,-1.8762 v -2.0567 c 0,-1.4332 0.12485,-2.2349 0.41188,-2.6447 0.31308,-0.447 0.67801,-0.5892 1.52135,-0.5926 0.61021,0 1.93175,-0.1788 2.93674,-0.3917 1.005,-0.213 2.31469,-0.6378 2.91042,-0.9441 0.59573,-0.3063 1.54387,-0.9933 2.10696,-1.5265 0.5631,-0.5333 1.30608,-1.5649 1.65106,-2.2925 0.49743,-1.0491 0.62725,-1.761 0.62725,-3.4396 0,-1.6631 -0.13229,-2.4002 -0.61735,-3.4396 -0.33955,-0.7276 -1.09672,-1.755 -1.6826,-2.2831 -0.58588,-0.5282 -1.76141,-1.2207 -2.6123,-1.5391 -0.85089,-0.3184 -2.13287,-0.6899 -2.84886,-0.8257 -0.71598,-0.1358 -2.90063,-0.2469 -4.85478,-0.2469 h -3.55301 l 0.13777,18.9839 c 0.0758,10.4411 0.17283,19.5196 0.21568,20.1744 l 0.0779,1.1907 -3.73929,0.073 c -3.21787,0.063 -3.7618,0.015 -3.90073,-0.3475 z m 38.91209,0.2373 c -0.10094,-0.1009 -0.18352,-0.3549 -0.18352,-0.5644 0,-0.2094 0.34207,-0.8147 0.76017,-1.3449 0.41809,-0.5303 1.23536,-1.9166 1.81615,-3.0808 0.58079,-1.1642 1.65486,-3.4859 2.38682,-5.1594 0.73196,-1.6735 2.84684,-6.6146 4.69973,-10.9802 1.85289,-4.3656 3.75647,-8.89 4.23019,-10.0542 0.47372,-1.1641 1.90016,-4.6765 3.16988,-7.8052 1.26971,-3.1287 2.44459,-5.776 2.61083,-5.8829 0.16625,-0.1069 1.38084,-0.1962 2.69909,-0.1984 1.56138,0 2.56167,0.1164 2.86973,0.3417 0.26009,0.1902 0.80145,1.1725 1.20301,2.1828 0.40156,1.0104 2.01285,4.9922 3.5806,8.8485 1.5678,3.8563 3.0829,7.6068 3.3668,8.3344 0.2838,0.7276 1.1161,2.7516 1.8494,4.4979 0.7333,1.7462 1.9874,4.7228 2.7868,6.6146 0.7994,1.8917 2.1797,5.0469 3.0674,7.0114 0.8876,1.9646 2.0152,4.2638 2.5058,5.1094 0.4905,0.8456 0.8248,1.7122 0.7429,1.9257 -0.123,0.3204 -0.7861,0.3754 -3.7925,0.3146 l -3.6434,-0.074 -0.6151,-1.9844 c -0.3383,-1.0914 -1.0768,-3.2345 -1.6411,-4.7625 -0.5643,-1.5279 -1.2321,-3.3139 -1.4839,-3.9687 -0.2518,-0.6548 -0.5696,-1.3395 -0.7064,-1.5214 -0.1913,-0.2546 -2.6059,-0.3307 -10.49049,-0.3307 h -10.24196 l -0.28912,0.8599 c -0.15901,0.473 -0.78793,2.1696 -1.3976,3.7703 -0.60967,1.6008 -1.4382,4.0415 -1.84119,5.424 l -0.73269,2.5135 -3.55141,0.073 c -1.95327,0.04 -3.63399,-0.01 -3.73492,-0.1102 z m 30.09668,-18.1531 c -0.1003,-0.3275 -0.95655,-2.5003 -1.90266,-4.8287 -0.9461,-2.3283 -2.4629,-6.0788 -3.37065,-8.3344 -0.90776,-2.2555 -1.86756,-4.5475 -2.13289,-5.0932 -0.26534,-0.5457 -0.57387,-0.9922 -0.68563,-0.9922 -0.11176,0 -0.45816,0.5656 -0.76979,1.2568 -0.31162,0.6912 -0.72494,1.6735 -0.91849,2.1828 -0.19354,0.5093 -0.78312,1.9381 -1.31017,3.175 -0.52706,1.2369 -1.90525,4.6009 -3.06265,7.4754 -1.1574,2.8745 -2.10436,5.345 -2.10436,5.4901 0,0.1695 2.93476,0.2637 8.21992,0.2637 h 8.21987 z m 29.3431,17.9161 c -0.089,-0.2317 -0.022,-0.7268 0.1478,-1.1004 0.1702,-0.3735 0.4209,-1.8244 0.5571,-3.2243 0.1363,-1.3998 0.2508,-10.0335 0.2546,-19.186 l 0.01,-16.641 -4.5641,0.158 c -3.2045,0.1109 -5.2734,0.3221 -6.9453,0.709 -1.3097,0.3031 -2.7087,0.62 -3.1088,0.7042 -0.6378,0.1342 -0.7277,0.073 -0.7277,-0.4963 0,-0.3572 0.1327,-1.6507 0.2948,-2.8743 0.1622,-1.2237 0.4149,-2.3738 0.5616,-2.5557 0.2085,-0.2584 4.0199,-0.3307 17.4388,-0.3307 h 17.1721 l 0.244,0.6418 c 0.1342,0.353 0.2667,1.6701 0.2944,2.927 0.028,1.2569 -0.055,2.3893 -0.1844,2.5164 -0.1343,0.1323 -0.8747,0.014 -1.7304,-0.2756 -0.8226,-0.2788 -2.6085,-0.6352 -3.9687,-0.7921 -1.3603,-0.1568 -3.9615,-0.2486 -5.7805,-0.2039 l -3.3073,0.081 0.014,18.2562 c 0.011,14.0846 0.092,18.5284 0.3553,19.4469 0.1878,0.6549 0.3602,1.4883 0.383,1.8521 l 0.042,0.6615 -3.6435,0.074 c -3.1324,0.063 -3.6661,0.015 -3.8051,-0.3477 z"
       id="path25" /></g></svg>
