<?xml version="1.0" encoding="UTF-8" standalone="no"?>
<svg
   width="2650"
   height="367.02661"
   viewBox="0 0 2650 367.02661"
   version="1.1"
   id="svg422"
   xml:space="preserve"
   xmlns="http://www.w3.org/2000/svg"
   xmlns:svg="http://www.w3.org/2000/svg"><defs
     id="defs414" /><path
     style="fill:#ffffff"
     d="m 207.50004,365.7819 c -3.85,-0.4909 -11.275,-1.602 -16.5,-2.469 -5.225,-0.867 -10.85,-1.7848 -12.5,-2.0397 -1.65,-0.2549 -3.9,-0.8237 -5,-1.264 -4.5084,-1.8049 -15.372,-5.0631 -16.8813,-5.0631 -0.8903,0 -1.6187,-0.45 -1.6187,-1 0,-0.55 -0.7214,-1 -1.6031,-1 -0.8817,0 -7.1844,-2.7418 -14.006,-6.0928 -19.6649,-9.6602 -35.1406,-20.7008 -50.154404,-35.7808 -8.6771,-8.7153 -20.6241,-23.391 -22.0475,-27.083 -0.5595,-1.4514 -3.1887,-4.8152 -6.3557,-8.1315 -0.9166,-0.9599 -1.4571,-1.9548 -1.201,-2.2109 0.2562,-0.2561 -0.4563,-2.1073 -1.5833,-4.1138 -1.1269,-2.0064 -2.049,-4.3094 -2.049,-5.1176 0,-0.8083 -0.4517,-1.4696 -1.0038,-1.4696 -0.5521,0 -1.5455,-2.025 -2.2074,-4.5 -0.662,-2.475 -1.5603,-4.5 -1.9962,-4.5 -0.4359,0 -0.7926,-1.125 -0.7926,-2.5 0,-1.375 -0.45,-2.5 -1,-2.5 -0.55,0 -1,-1.3766 -1,-3.059 0,-1.7847 -0.4166,-2.8016 -1,-2.441 -0.5776,0.357 -1,-0.5896 -1,-2.241 0,-1.5724 -0.4675,-3.3265 -1.0388,-3.8978 -1.4123,-1.4123 -5.0025,-18.3041 -5.6559,-26.6112 -0.2921,-3.7125 -0.9302,-6.75 -1.4181,-6.75 -1.1775,0 -1.1498,-41.3276 0.028,-42.55 0.5037,-0.5225 1.1336,-3.65 1.3999,-6.95 0.6734,-8.3466 3.5252,-22.4251 5.2471,-25.9036 0.7905,-1.597 1.4373,-3.9861 1.4373,-5.3091 0,-1.3489 0.4392,-2.1339 1,-1.7873 0.5834,0.3606 1,-0.6563 1,-2.441 0,-1.6824 0.45,-3.059 1,-3.059 0.55,0 1,-0.6811 1,-1.5136 0,-0.8324 0.45,-2.4074 1,-3.5 0.55,-1.0925 1.45,-2.8803 2,-3.9728 0.55,-1.0926 1,-2.6676 1,-3.5 0,-0.8325 0.3577,-1.5136 0.795,-1.5136 0.4372,0 1.655,-2.085598 2.7062,-4.634698 1.0512,-2.549 3.1684,-6.3701 4.705,-8.4913 1.5366,-2.1212 2.7938,-4.2731 2.7938,-4.782 0,-0.5089 0.3375,-1.0753 0.75,-1.2587 0.9873,-0.4388 7.25,-8.5286 7.25,-9.3652 0,-2.383 23.1929,-26.0084 31.000004,-31.578 2.475,-1.7657 4.725,-3.4932 5,-3.8389 0.275,-0.3457 3.875,-2.8954 8,-5.6661 9.4305,-6.3341 27.6265,-15.5004 35.5,-17.883 3.3,-0.9987 6.4275,-2.1952 6.95,-2.6589 0.5225,-0.4638 1.5671,-0.8432 2.3214,-0.8432 0.7543,0 2.0465,-0.675 2.8715,-1.4999991 0.825,-0.825 3.0163,-1.5 4.8695,-1.5 1.8533,0 3.617,-0.4003 3.9193,-0.8895 0.3024,-0.4892 2.0164,-1.1189 3.809,-1.3993 1.7926,-0.2803 8.2093,-1.4782 14.2593,-2.662 10.1005,-1.9763 14.3342,-2.15969996 51.7738,-2.24359996 22.4256,-0.05 41.0631,0.1979 41.4167,0.55149996 0.3535,0.3536 2.0303,0.6434 3.7262,0.6441 1.6958,6e-4 6.4583,0.6896 10.5833,1.5309 4.125,0.8414 9.1985,1.8016 11.2744,2.1338 2.0759,0.3322 4.0149,0.9933 4.309,1.469 0.294,0.4758 2.3222,0.8651 4.507,0.8651 2.6085,0 4.17,0.515 4.548,1.5 0.3166,0.8250001 1.6585,1.5000001 2.9822,1.5000001 1.3236,0 3.1879,0.4331 4.143,0.9624 0.955,0.5294 4.8864,2.0548 8.7364,3.3897 3.85,1.335 10.3369,4.0519 14.4153,6.0376 4.0784,1.9857 7.8223,3.6103 8.3198,3.6103 0.4975,0 2.8667,1.35 5.2649,3 2.3982,1.65 4.5869,3 4.8637,3 0.6634,0 10.9916,6.3143 11.6363,7.1139 0.275,0.341199 2.975,2.224299 6,4.1849 3.025,1.9605 7.075,4.9443 9,6.6306 1.925,1.6862 3.8443,3.067 4.2652,3.0682 1.1008,0 29.5434,28.1619 31.5763,31.2608 0.9372,1.4287 3.3813,4.4104 5.4313,6.6261 2.0499,2.2156 3.7272,4.4658 3.7272,5.0005 0,0.5347 0.5938,1.5668 1.3195,2.2936 2.526,2.5296 10.6805,14.048497 10.6805,15.086997 0,0.5751 1.0261,2.4381 2.2801,4.14 1.2541,1.7019 3.1666,5.0017 4.25,7.3329 1.0835,2.3312 2.3074,4.2437 2.7199,4.25 0.4125,0.01 0.75,0.8891 0.75,1.9618 0,1.0727 0.5914,2.3102 1.3143,2.75 0.7228,0.4398 2.368,3.4997 3.6559,6.7997 1.2879,3.3 2.7215,6.4275 3.1857,6.95 0.4643,0.5225 0.8441,1.7049 0.8441,2.6276 0,0.9226 0.6398,2.2085 1.4218,2.8575 0.782,0.649 1.7212,2.9518 2.087,5.1172 0.3659,2.1655 1.0761,4.1911 1.5782,4.5015 0.5022,0.3103 0.913,1.6627 0.913,3.0052 0,1.3426 0.45,2.441 1,2.441 0.55,0 1,1.35 1,3 0,1.65 0.45,3 1,3 0.55,0 1,0.9179 1,2.0398 0,1.1219 0.8881,3.7806 1.9735,5.9083 1.0854,2.1276 2.2695,5.7196 2.6314,7.9823 0.3618,2.2627 1.0487,4.3555 1.5265,4.6508 0.4777,0.2952 0.8686,1.4103 0.8686,2.4778 0,1.0676 0.45,1.941 1,1.941 0.55,0 1,0.8734 1,1.941 0,1.0675 0.45,2.2191 1,2.559 0.55,0.3399 1,1.7165 1,3.059 0,1.3426 0.45,2.441 1,2.441 0.55,0 1,0.8486 1,1.8857 0,2.8908 2.658,7.532 3.399,5.9351 0.3371,-0.7264 0.3781,-0.089 0.091,1.4171 -0.4779,2.5065 0.9139,6.4459 2.7642,7.8237 0.4148,0.3089 2.5703,4.1339 4.79,8.5 5.0663,9.9656 8.7517,16.2702 11.9558,20.4531 8.6481,11.2898 11.6976,15.0265 15.9018,19.4853 10.2055,10.8235 26.3665,23.5722 34.1707,26.9557 2.4351,1.0558 5.1025,2.4316 5.9275,3.0574 2.2832,1.7321 16.9797,7.222 21.5,8.0314 2.2,0.394 4.4848,1.0982 5.0774,1.5651 6.417,5.0555 60.101,6.4449 86.4226,2.2367 1.375,-0.2199 4.1875,-0.6619 6.25,-0.9824 2.0625,-0.3205 3.75,-0.9255 3.75,-1.3445 0,-0.419 2.3265,-1.0704 5.1701,-1.4476 5.5742,-0.7394 15.2265,-3.0808 16.8584,-4.0894 0.5525,-0.3415 2.1826,-0.8345 3.6226,-1.0956 1.4399,-0.2611 5.145,-1.5227 8.2335,-2.8035 3.0885,-1.2808 7.4154,-2.8937 9.6154,-3.5842 5.604,-1.759 21.1219,-9.5755 26.5,-13.3483 2.475,-1.7362 5.85,-3.8305 7.5,-4.6538 3.7731,-1.8828 9.2623,-6.6282 17.1775,-14.8499 4.4314,-4.6031 6.6519,-6.2347 7.856,-5.7726 2.0291,0.7786 1.3391,4.5913 -1.5704,8.6774 -1.0472,1.4706 -1.6814,2.8964 -1.4094,3.1685 0.2721,0.272 -0.1912,1.0638 -1.0295,1.7595 -0.8383,0.6958 -1.5242,1.8849 -1.5242,2.6425 0,0.7577 -0.45,1.3776 -1,1.3776 -0.55,0 -1,0.675 -1,1.5 0,0.825 -0.45,1.5 -1,1.5 -0.55,0 -1,0.6405 -1,1.4234 0,0.7829 -1.575,3.4868 -3.5,6.0087 -1.925,2.5218 -3.5,4.931 -3.5,5.3537 0,0.4227 -1.2375,2.1697 -2.75,3.8824 -1.5125,1.7127 -4.775,5.4886 -7.25,8.3909 -6.1465,7.2078 -16.6581,17.2248 -21.5,20.4883 -2.2,1.4828 -4.1468,3.0818 -4.3263,3.5532 -0.1795,0.4715 -2.092,1.8496 -4.25,3.0624 -2.158,1.2129 -3.9237,2.5724 -3.9237,3.0211 0,0.4488 -0.6199,0.8159 -1.3776,0.8159 -0.7576,0 -1.9073,0.6384 -2.5548,1.4186 -0.6476,0.7802 -4.3027,2.8849 -8.1225,4.6771 -3.8198,1.7922 -6.9451,3.6554 -6.9451,4.1404 0,0.4851 -0.4784,0.5863 -1.063,0.225 -0.5847,-0.3614 -1.8222,0.016 -2.75,0.8382 -0.9279,0.8223 -3.712,2.1949 -6.187,3.0502 -2.475,0.8553 -4.05,1.6283 -3.5,1.7178 0.55,0.09 -0.575,0.505 -2.5,0.9235 -1.925,0.4184 -6.875,1.9242 -11,3.3462 -20.0704,6.9189 -61.7388,10.7964 -81.8847,7.6199 -3.6384,-0.5736 -9.5403,-1.5084 -13.1153,-2.0771 -10.7869,-1.7162 -20.2038,-4.1131 -25.7785,-6.5615 -2.9032,-1.2751 -6.1657,-2.3183 -7.25,-2.3183 -1.0843,0 -1.9715,-0.3596 -1.9715,-0.7991 0,-0.4395 -1.6875,-1.4006 -3.75,-2.1358 -2.0625,-0.7351 -4.9008,-2.1444 -6.3074,-3.1318 -1.4065,-0.9873 -5.794,-3.4196 -9.75,-5.4049 -3.9559,-1.9854 -7.1926,-3.9347 -7.1926,-4.3319 0,-0.3973 -0.8374,-1.1665 -1.8608,-1.7094 -3.4012,-1.8043 -9.9817,-6.4032 -11.823,-8.2629 -0.9989,-1.0089 -3.7414,-3.3199 -6.0945,-5.1357 -4.6273,-3.5707 -8.6498,-7.5841 -17.2217,-17.1829 -3.025,-3.3874 -6.7375,-7.3012 -8.25,-8.6975 -1.5125,-1.3963 -2.75,-3.0842 -2.75,-3.751 0,-0.6667 -0.6865,-1.782 -1.5256,-2.4783 -1.894,-1.5719 -14.2897,-19.2272 -16.8354,-23.9788 -1.0313,-1.925 -3.172,-5.4351 -4.7571,-7.8001 -1.585,-2.3651 -2.8819,-4.7276 -2.8819,-5.25 0,-0.5225 -0.4766,-0.9499 -1.059,-0.9499 -0.5825,0 -0.8073,-0.4072 -0.4997,-0.905 0.5027,-0.8134 -3.0986,-8.8626 -4.5166,-10.095 -1.3654,-1.1867 -6.6529,-12.6319 -7.4883,-16.209 -0.3479,-1.4899 -1.2635,-3.2325 -2.0345,-3.8724 -0.7711,-0.6399 -1.4019,-2.0084 -1.4019,-3.041 0,-1.0327 -0.3989,-1.8776 -0.8865,-1.8776 -0.4875,0 -1.1885,-2.0145 -1.5577,-4.4767 -0.3693,-2.4622 -1.0954,-4.7387 -1.6136,-5.059 -0.5182,-0.3203 -0.9422,-1.4558 -0.9422,-2.5233 0,-1.0676 -0.45,-1.941 -1,-1.941 -0.55,0 -1,-1.3766 -1,-3.059 0,-1.6825 -0.3742,-2.8278 -0.8315,-2.5451 -0.4573,0.2826 -1.4465,-1.7443 -2.198,-4.5044 -0.7516,-2.76 -1.7274,-5.2413 -2.1685,-5.5139 -0.4411,-0.2726 -0.802,-1.539 -0.802,-2.8142 0,-1.2752 -0.675,-2.8787 -1.5,-3.5634 -0.825,-0.6847 -1.5,-2.2773 -1.5,-3.5391 0,-1.2618 -0.4621,-2.4483 -1.0269,-2.6365 -0.5648,-0.1883 -1.6246,-2.6077 -2.3549,-5.3765 -0.7304,-2.7688 -2.0348,-6.5898 -2.8985,-8.491 -0.8638,-1.9013 -1.8649,-4.9194 -2.2246,-6.7069 -0.3597,-1.7875 -1.0597,-3.25 -1.5555,-3.25 -0.4958,0 -1.1839,-1.125 -1.529,-2.5 -0.3451,-1.375 -1.0286,-2.5 -1.519,-2.5 -0.4904,0 -0.8916,-0.8635 -0.8916,-1.919 0,-1.6976 -2.6617,-7.74 -4,-9.0802 -0.275,-0.2755 -2.5133,-4.507 -4.9741,-9.4035 -2.4607,-4.8964 -4.9509,-9.3964 -5.5337,-10 -0.5829,-0.6035 -2.3279,-3.2806 -3.8778,-5.9491 -1.5499,-2.6685 -3.5597,-5.6106 -4.4662,-6.5379 -0.9065,-0.9273 -3.2772,-4.039 -5.2683,-6.914798 -10.7196,-15.4832 -37.3329,-39.2693 -52.5565,-46.9733 -2.2972,-1.1625 -4.9972,-2.5652 -6,-3.117 -4.8041,-2.6437 -15.2815,-7.1052 -16.686,-7.1052 -0.8671,0 -3.0528,-0.8243 -4.857,-1.8318 -3.5278,-1.9698 -14.9835,-5.164 -26.2804,-7.3276 -10.8623,-2.0803 -55.4845,-1.7684 -66.5,0.4649 -9.8439,1.9957 -19.0615,4.5419 -20.5,5.6627 -0.55,0.4285 -3.925,1.7842 -7.5,3.0126 -3.575,1.2285 -8.525,3.4069 -11,4.841 -2.475,1.4341 -6.975,3.801 -10,5.2599 -3.025,1.4589 -6.5095,3.8373 -7.7434,5.2854 -1.2338,1.4481 -2.6929,2.6329 -3.2424,2.6329 -2.6636,0 -21.0675,18.3423 -29.0142,28.9171 -4.5977,6.1182 -14.9209,25.658098 -14.9687,28.332898 -0.017,0.9625 -0.4813,1.75 -1.0313,1.75 -0.55,0 -1,0.5798 -1,1.2886 0,0.7087 -0.9,3.0538 -2,5.2114 -1.1,2.1576 -2,5.6277 -2,7.7114 0,2.0837 -0.4027,3.7886 -0.895,3.7886 -0.4922,0 -1.1447,1.6875 -1.4501,3.75 -0.3053,2.0625 -1.085,6.9 -1.7326,10.75 -1.5468,9.1959 -1.532,53.9092 0.021,62.5 0.6462,3.575 1.4206,8.1875 1.721,10.25 0.3003,2.0625 0.8861,3.75 1.3017,3.75 0.4157,0 1.0295,2.3117 1.3641,5.1371 0.3347,2.8255 1.2973,5.8984 2.1393,6.8288 0.842,0.9304 1.5309,2.4436 1.5309,3.3628 0,0.9192 0.3518,1.6713 0.7817,1.6713 0.4299,0 1.3906,2.0624 2.1349,4.5832 0.7443,2.5207 1.9675,4.8188 2.7183,5.1069 0.7508,0.2882 1.3651,1.2841 1.3651,2.2132 0,0.9292 1.5635,4.1435 3.4744,7.143 1.9109,2.9995 3.4859,5.8116 3.5,6.2491 0.014,0.4375 1.1506,1.9205 2.5256,3.2955 1.375,1.375 2.5,2.8631 2.5,3.3069 0,0.4438 4.4497,5.3224 9.8883,10.8414 9.1979,9.334 15.4018,14.3289 26.9771,21.7201 2.549,1.6277 4.7846,3.3152 4.9679,3.75 0.1834,0.4349 1.0479,0.7907 1.9213,0.7907 0.8734,0 2.3464,0.6864 3.2734,1.5253 0.927,0.839 4.3374,2.4521 7.5787,3.5847 3.2413,1.1327 7.2433,2.6753 8.8933,3.428 7.5371,3.4383 25.5735,8.462 30.3808,8.462 1.4955,0 3.1467,0.4078 3.6692,0.9062 0.5225,0.4984 2.975,1.1747 5.45,1.5029 2.475,0.3282 7.2,1.0428 10.5,1.588 9.8527,1.6278 44.9242,1.2417 56.1848,-0.6186 5.3983,-0.8918 10.2427,-2.0168 10.7652,-2.5 0.5225,-0.4832 2.1482,-0.8785 3.6126,-0.8785 1.4645,0 6.3328,-0.9135 10.8186,-2.0299 7.5549,-1.8803 10.3706,-2.7986 15.6188,-5.0938 1.1,-0.481 4.6697,-1.779 7.9326,-2.8844 3.2629,-1.1054 7.4512,-2.9058 9.3072,-4.0009 3.9575,-2.335 5.2602,-2.4946 5.2602,-0.6446 0,3.1429 -3.3813,7.687 -7.5285,10.1175 -2.4506,1.4361 -5.4846,3.6067 -6.7423,4.8236 -3.0751,2.9751 -11.3198,8.7125 -12.5202,8.7125 -0.5303,0 -1.5414,0.6956 -2.2471,1.5459 -1.3962,1.6823 -24.9099,13.4541 -26.8741,13.4541 -0.6632,0 -0.9277,0.45 -0.5878,1 0.3584,0.58 -0.6156,1 -2.3189,1 -2.6882,0 -7.6051,1.5788 -12.6811,4.072 -1.9848,0.9748 -3.6641,1.3147 -21,4.2499 -22.2566,3.7684 -45.7963,4.7077 -63,2.5139 z m 353.2288,0.5596 c -0.3325,-0.3325 -4.795,-1.4819 -9.9167,-2.5542 -16.9497,-3.5489 -18.0905,-3.8278 -19.2055,-4.6961 -1.7437,-1.3578 -10.7165,-4.1451 -13.3438,-4.1451 -1.3326,0 -2.1087,-0.4403 -1.7628,-1 0.3399,-0.55 -0.1053,-1 -0.9893,-1 -0.884,0 -3.4701,-0.9 -5.7468,-2 -2.2768,-1.1 -4.6925,-2 -5.3684,-2 -0.6759,0 -1.3788,-0.3711 -1.5622,-0.8248 -0.1833,-0.4536 -3.7083,-2.4966 -7.8333,-4.5401 -4.125,-2.0435 -8.4,-4.2656 -9.5,-4.938 -1.1,-0.6724 -4.25,-2.5452 -7,-4.1618 -2.75,-1.6166 -5.225,-3.2197 -5.5,-3.5623 -0.275,-0.3427 -3.2646,-2.4861 -6.6435,-4.763 -3.379,-2.277 -6.754,-4.7278 -7.5,-5.4463 -0.7461,-0.7185 -2.7065,-2.3325 -4.3565,-3.5866 -6.5919,-5.0105 -23.9997,-22.0005 -27.8454,-27.1771 -2.2473,-3.025 -5.2171,-6.7699 -6.5997,-8.3219 -1.3825,-1.5521 -5.0959,-6.7271 -8.252,-11.5 -3.156,-4.773 -6.2028,-9.2216 -6.7706,-9.8859 -0.5678,-0.6643 -1.0323,-1.9018 -1.0323,-2.75 0,-0.8482 -0.5818,-1.5422 -1.2929,-1.5422 -0.7111,0 -2.1342,-2.475 -3.1624,-5.5 -1.0283,-3.025 -2.194,-5.5 -2.5905,-5.5 -0.3965,0 -0.9707,-0.7875 -1.2759,-1.75 -0.3053,-0.9625 -1.2195,-2.875 -2.0317,-4.25 -2.2812,-3.862 -4.6466,-9.6358 -4.6466,-11.3421 0,-0.8469 -0.45,-1.818 -1,-2.1579 -0.55,-0.3399 -1,-1.7165 -1,-3.059 0,-1.3426 -0.45,-2.441 -1,-2.441 -0.55,0 -1,-1.125 -1,-2.5 0,-1.375 -0.45,-2.5 -1,-2.5 -0.55,0 -1,-1.35 -1,-3 0,-1.65 -0.45,-3 -1,-3 -0.55,0 -1,-1.0984 -1,-2.441 0,-1.3425 -0.45,-2.7191 -1,-3.059 -0.55,-0.3399 -1,-1.6899 -1,-3 0,-1.3101 -0.45,-2.6601 -1,-3 -0.55,-0.3399 -1.0028,-1.379 -1.0062,-2.309 0,-0.9301 -0.6771,-2.9776 -1.4973,-4.5501 -1.4928,-2.8623 -4.2254,-11.7308 -5.2013,-16.8807 -0.2856,-1.5069 -0.862,-2.528 -1.2809,-2.269 -0.4189,0.2589 -1.0527,-1.7233 -1.4084,-4.4048 -0.3558,-2.6815 -1.3126,-5.428 -2.1264,-6.1034 -0.8137,-0.6753 -1.4795,-2.2978 -1.4795,-3.6054 0,-1.3077 -0.45,-2.3776 -1,-2.3776 -0.55,0 -1,-0.9266 -1,-2.059 0,-1.2509 -0.4345,-1.7905 -1.1071,-1.3748 -0.7401,0.4574 -0.8901,3e-4 -0.4525,-1.3784 0.6359,-2.0037 -0.6422,-5.1978 -3.1889,-7.9691 -0.6867,-0.7472 -1.523,-2.4521 -1.8584,-3.7886 -0.3355,-1.3366 -1.0111,-2.4301 -1.5015,-2.4301 -0.4904,0 -0.8916,-0.675 -0.8916,-1.5 0,-0.825 -0.4981,-1.5 -1.107,-1.5 -0.6088,0 -0.8661,-0.6277 -0.5717,-1.395 0.2944,-0.7672 -1.0085,-3.7913 -2.8955,-6.7201 -1.8869,-2.9288 -3.685,-6.1261 -3.9957,-7.105 -0.3107,-0.979 -0.9846,-1.7799 -1.4975,-1.7799 -0.5129,0 -0.9326,-0.675 -0.9326,-1.5 0,-0.825 -0.45,-1.5 -1,-1.5 -0.55,0 -1,-0.9 -1,-2 0,-1.1 -0.3959,-2 -0.8799,-2 -0.4839,0 -2.6872,-2.3625 -4.8963,-5.25 -11.4553,-14.973397 -29.8634,-29.767197 -44.7238,-35.942597 -3.85,-1.6 -7.9,-3.3158 -9,-3.8131 -7.7731,-3.5139 -20.8618,-6.0245 -34.5,-6.6175 -5.775,-0.2511 -11.4714,-0.9426 -12.6586,-1.5367 -1.2295,-0.6153 -3.8121,-0.7919 -6,-0.4105 -2.1128,0.3684 -7.6664,1.0723 -12.3414,1.5641 -11.1993,1.1783 -17.7978,2.4771 -22.4418,4.4175 -2.0913,0.8738 -4.4197,1.5888 -5.1741,1.5888 -2.7838,0 -20.8834,9.2309 -25.3108,12.9086 -7.8408,6.5131 -11.0733,7.5993 -11.0733,3.721 0,-2.7126 10.7014,-13.9704 18,-18.936 2.475,-1.6839 4.725,-3.346 5,-3.6936 1.0479,-1.3245 9.9099,-7 10.9302,-7 0.5884,0 1.0698,-0.45 1.0698,-1 0,-0.55 0.7521,-1 1.6713,-1 0.9192,0 2.3817,-0.6311 3.25,-1.4025 1.7055,-1.515 20.3503,-7.5975 23.2889,-7.5975 0.9844,0 1.7898,-0.4066 1.7898,-0.9035 0,-2.3871 39.0847,-3.825 55.2156,-2.0314 6.4814,0.7207 11.7844,1.6759 11.7844,2.1226 0,0.4468 1.0125,0.8041 2.25,0.794 3.4122,-0.028 25.0291,6.164 26.8287,7.6844 0.8683,0.7337 2.5558,1.3339 3.75,1.3339 1.1942,0 2.1713,0.3596 2.1713,0.7991 0,1.2298 6.8379,3.4191 8.1487,2.609 0.7216,-0.446 0.8901,-0.2799 0.4456,0.4393 -0.4326,0.6999 0.2575,1.5259 1.7484,2.0928 1.3547,0.515 2.7645,1.4243 3.133,2.0205 0.3685,0.5962 3.2247,2.4275 6.3471,4.0695 6.5475,3.4431 8.8446,4.877 11.1646,6.9698 0.9146,0.825 2.8228,2.4 4.2403,3.5 6.9607,5.4013 22.4015,20.4371 26.0259,25.3433 2.246,3.0402 5.2661,6.765097 6.7113,8.277397 1.4453,1.5124 3.2819,4.0164 4.0814,5.5645 0.7996,1.5481 2.391,3.8541 3.5367,5.1244 1.1456,1.2703 3.1706,4.5259 4.5,7.2345 1.3293,2.7086 2.7545,4.9318 3.167,4.9403 0.4125,0.01 0.75,0.9156 0.75,2.0156 0,1.1111 0.6667,2 1.5,2 0.825,0 1.5029,0.7875 1.5065,1.75 0,0.9625 2.4527,6.6005 5.4424,12.529 2.9898,5.9284 5.4727,10.9888 5.5176,11.2452 0.7663,4.3775 1.4527,6.6168 2.1627,7.0556 0.4789,0.296 0.8708,1.6367 0.8708,2.9792 0,1.3426 0.45,2.441 1,2.441 0.55,0 1,0.6811 1,1.5136 0,0.8324 0.3975,2.2949 0.8833,3.25 0.9237,1.8156 2.8445,6.3238 4.1485,9.7364 0.4204,1.1 1.4852,3.643 2.3662,5.6511 0.8811,2.0081 1.602,3.9528 1.602,4.3215 0,0.3686 0.6127,1.2829 1.3615,2.0317 0.7488,0.7488 1.6531,3.1858 2.0097,5.4155 0.3565,2.2297 1.4728,5.5224 2.4806,7.3171 1.0078,1.7947 2.1404,4.9054 2.5168,6.9126 0.3764,2.0072 1.3474,4.1998 2.1579,4.8725 0.8104,0.6726 1.4735,2.0678 1.4735,3.1004 0,1.0327 0.45,1.8776 1,1.8776 0.55,0 1,0.9266 1,2.059 0,1.1325 0.45,1.7809 1,1.441 0.5796,-0.3582 1,0.6113 1,2.3061 0,1.6083 0.7875,3.9974 1.75,5.309 1.6956,2.3108 2.5327,3.9148 7.4393,14.2541 3.5459,7.4721 4.2236,8.6308 5.0478,8.6308 0.4196,0 0.7629,0.7181 0.7629,1.5957 0,1.765 3.0685,7.7125 4.25,8.2376 0.4125,0.1834 0.75,0.9709 0.75,1.75 0,0.7792 0.3793,1.4167 0.8428,1.4167 0.4635,0 1.8875,2.0313 3.1644,4.514 1.2769,2.4827 2.9227,5.0128 3.6572,5.6225 0.7346,0.6096 1.3356,1.7283 1.3356,2.4859 0,0.7577 0.3671,1.3776 0.8159,1.3776 0.4487,0 1.7692,1.6875 2.9345,3.75 1.1652,2.0625 4.0606,6.0398 6.4341,8.8383 2.3735,2.7986 6.1148,7.2986 8.3139,10 4.5402,5.5774 5.781,6.8368 17.6455,17.9117 8.6473,8.0718 16.7239,14.2042 18.1061,13.7477 0.4125,-0.1362 0.75,0.3748 0.75,1.1357 0,0.7608 0.7875,1.6478 1.75,1.9709 1.9098,0.6413 4.0321,1.924 8.9709,5.4219 3.9137,2.7719 15.2637,8.2219 17.1248,8.223 0.7401,4e-4 2.5401,0.6297 4,1.3983 3.1507,1.6589 11.3375,4.1991 12.4043,3.8488 0.4125,-0.1355 0.75,0.591 0.75,1.6144 0,1.4979 -1.0236,1.9837 -5.25,2.4913 -6.6032,0.7932 -8.2635,0.8011 -9.0212,0.043 z M 1168.5,364.1482 c -4.95,-1.2638 -10.4358,-2.6729 -12.1906,-3.1312 -1.7548,-0.4584 -5.2989,-2.0119 -7.8759,-3.4522 -2.577,-1.4403 -5.5553,-2.6187 -6.6185,-2.6187 -1.0632,0 -1.6666,-0.4311 -1.341,-0.958 0.3257,-0.5269 -1.6728,-1.9323 -4.441,-3.1231 -2.7681,-1.1909 -5.033,-2.517 -5.033,-2.947 0,-0.43 -2.1375,-2.0269 -4.75,-3.5487 -6.4136,-3.7359 -26.2392,-23.7434 -29.3188,-29.5877 -0.6768,-1.2845 -1.5118,-2.5605 -1.8554,-2.8355 -0.3436,-0.275 -1.7387,-2.6624 -3.1003,-5.3052 -1.3615,-2.6429 -3.263,-5.6616 -4.2255,-6.7082 -0.9625,-1.0466 -1.75,-2.8218 -1.75,-3.9448 0,-1.123 -0.45,-2.0418 -1,-2.0418 -0.55,0 -1,-0.8679 -1,-1.9286 0,-1.0607 -0.5853,-2.5232 -1.3007,-3.25 -1.4477,-1.4707 -4.6595,-11.412 -5.4347,-16.8214 -0.2759,-1.925 -1.0108,-4.1316 -1.6331,-4.9035 -1.6999,-2.1086 -1.5865,-61.2779 0.1185,-61.8464 0.6875,-0.2292 1.2565,-1.6168 1.2646,-3.0834 0.013,-2.3295 1.7567,-8.5615 3.6847,-13.1667 0.3454,-0.825 0.7045,-1.725 0.7981,-2 0.094,-0.275 0.695,-1.7668 1.3364,-3.3151 0.6414,-1.5483 1.1662,-3.4874 1.1662,-4.309 0,-0.8217 0.45,-1.2158 1,-0.8759 0.55,0.3399 1,-0.041 1,-0.8465 0,-1.7095 4.1492,-9.9976 5.25,-10.4868 0.4125,-0.1834 0.75,-0.6946 0.75,-1.1361 0,-3.7519 19.1755,-25.5717 30.4004,-34.5924 6.9338,-5.5724 21.2429,-14.0972 26.8378,-15.989 2.6061,-0.8812 4.9951,-2.0177 5.3091,-2.5257 0.3139,-0.5079 1.6317,-0.9235 2.9284,-0.9235 1.2967,0 2.5252,-0.5027 2.73,-1.1171 0.3585,-1.0755 6.4443,-2.5487 21.2943,-5.1545 9.0132,-1.5817 40.076,-1.5747 48.5,0.011 16.1655,3.0426 20.447,4.1016 20.7943,5.1437 0.2048,0.6144 1.2349,1.1171 2.289,1.1171 1.0542,0 1.9167,0.3517 1.9167,0.7816 0,0.43 2.0001,1.3723 4.4446,2.094 9.4743,2.7975 27.6677,15.796 38.6903,27.6428 4.9437,5.3134 17.3011,23.1293 18.3626,26.4737 0.3505,1.1043 1.0059,2.0079 1.4563,2.0079 0.4505,0 1.1228,2.025 1.4939,4.5 0.3712,2.475 1.0455,4.5 1.4985,4.5 1.079,0 3.9226,8.7634 4.7117,14.521 0.3418,2.4935 1.0086,4.7728 1.4818,5.0653 0.4731,0.2924 0.8603,2.2676 0.8603,4.3893 0,2.1268 0.5423,4.0385 1.2086,4.2605 1.5924,0.5309 3.3069,30.7705 2.3335,41.1583 l -0.7127,7.6056 h -96.8211 -96.8211 l 0.5509,2.25 c 0.3029,1.2375 0.8955,2.7 1.3168,3.25 0.4214,0.55 1.0824,2.6925 1.469,4.761 0.3865,2.0686 1.1018,4.0077 1.5895,4.3091 0.4876,0.3013 0.8866,1.4214 0.8866,2.4889 0,1.0676 0.4012,1.941 0.8916,1.941 0.4904,0 1.1606,1.0125 1.4893,2.25 0.642,2.4164 3.7826,6.2974 11.5451,14.2668 4.4292,4.5474 20.1624,13.9303 23.4236,13.9694 0.6327,0.01 2.5004,0.544 4.1504,1.1919 1.65,0.648 7.7722,1.6467 13.6049,2.2194 12.2344,1.2012 25.9558,0.022 35.1606,-3.0225 11.1961,-3.7027 26.4178,-13.1984 26.6499,-16.625 0.046,-0.6875 0.4284,-1.25 0.8485,-1.25 0.4202,0 1.8764,-1.8 3.2361,-4 1.3597,-2.2 2.8159,-4 3.2361,-4 0.4201,0 0.7639,-1.1092 0.7639,-2.4648 0,-3.5842 3.1064,-4.9354 7.3094,-3.1793 1.8453,0.771 8.3806,2.8788 14.5228,4.684 6.1423,1.8052 11.1678,3.5973 11.1678,3.9825 0,0.3851 1.125,0.4852 2.5,0.2223 1.375,-0.2628 2.5,-0.074 2.5,0.4204 0,0.494 2.1375,1.5119 4.75,2.2619 2.6125,0.7501 5.2341,1.7383 5.8258,2.1962 0.5917,0.4579 3.1147,0.955 5.6067,1.1047 l 4.5309,0.2721 -0.1067,4.232 c -0.059,2.3383 -0.6585,4.4468 -1.3398,4.7121 -0.6783,0.2641 -0.9676,1.1722 -0.6431,2.018 0.3246,0.8459 0.092,1.5379 -0.5168,1.5379 -0.6089,0 -1.107,0.6891 -1.107,1.5314 0,0.8422 -0.6344,1.7748 -1.4098,2.0723 -0.7753,0.2976 -1.6839,1.6334 -2.019,2.9687 -0.3351,1.3352 -1.0507,2.4276 -1.5903,2.4276 -0.5395,0 -0.9809,0.4814 -0.9809,1.0698 0,4.7941 -21.3202,26.4103 -34.7317,35.2139 -5.6275,3.6939 -10.8105,6.7163 -11.5179,6.7163 -0.7074,0 -2.9552,1.1342 -4.9952,2.5204 -2.04,1.3862 -5.182,2.7727 -6.9822,3.081 -1.8001,0.3084 -4.173,0.9429 -5.273,1.41 -8.6293,3.6643 -14.488,4.2132 -46.5,4.3565 -27.7385,0.1242 -30.0374,-0.01 -38.5,-2.1658 z m 98.6141,-157.9974 c -0.6127,-0.2043 -1.121,-1.7964 -1.1294,-3.538 -0.012,-2.4124 -0.2462,-2.8094 -0.9847,-1.6667 -0.7571,1.1715 -0.9727,0.9055 -0.9847,-1.2145 -0.013,-2.343 -4.1707,-11.327 -5.9167,-12.7855 -0.3292,-0.275 -2.2932,-2.6094 -4.3645,-5.1876 -2.0712,-2.5783 -4.6587,-4.9711 -5.75,-5.3174 -1.0912,-0.3464 -1.9952,-1.162 -2.0087,-1.8124 -0.048,-2.3163 -16.5411,-9.169 -26.4754,-11.0003 -7.6233,-1.4053 -20.1305,-1.3938 -28.5,0.026 -8.813,1.4952 -24.6929,7.5119 -27,10.2299 -0.275,0.324 -2.7992,2.4843 -5.6094,4.8008 -5.87,4.8386 -13.3906,14.1635 -13.3906,16.6032 0,0.9117 -0.3975,1.6576 -0.8834,1.6576 -0.4858,0 -1.1447,0.7875 -1.4641,1.75 -0.3194,0.9625 -1.2651,3.55 -2.1016,5.75 -0.8364,2.2 -1.5276,4.1092 -1.5358,4.2426 -0.01,0.1335 28.8974,0.3585 64.2349,0.5 55.6825,0.2231 64.2986,0.062 64.6141,-1.2046 0.2003,-0.804 -0.1372,-1.629 -0.75,-1.8333 z m 415.9997,157.2091 c -6.9376,-1.6974 -14.8602,-4.2849 -17.6058,-5.75 -2.7457,-1.4651 -6.0347,-2.6638 -7.3091,-2.6638 -1.2743,0 -2.0776,-0.3872 -1.7852,-0.8604 0.2925,-0.4732 -1.3219,-1.6963 -3.5875,-2.718 -2.2656,-1.0216 -4.6258,-2.3641 -5.245,-2.9832 -0.6191,-0.6192 -3.1407,-2.3943 -5.6035,-3.9447 -5.1422,-3.2373 -16.8104,-12.6657 -16.9105,-13.6645 -0.037,-0.3689 -1.7547,-2.4521 -3.8172,-4.6293 -7.7905,-8.2237 -10.2285,-11.1671 -12.0232,-14.5156 -1.0167,-1.8969 -2.6086,-4.209 -3.5377,-5.138 -2.9635,-2.9636 -2.2453,-4.7075 3.4422,-8.3576 1.4472,-0.9288 6.0769,-4.1637 10.2883,-7.1887 4.2113,-3.025 9.7772,-6.9428 12.3687,-8.7063 2.5914,-1.7634 5.9079,-4.1259 7.3699,-5.25 1.4619,-1.124 3.1494,-2.0437 3.75,-2.0437 0.6005,0 1.0918,-0.45 1.0918,-1 0,-0.55 0.4821,-1 1.0714,-1 0.5893,0 1.6641,-0.5625 2.3884,-1.25 5.7366,-5.4448 6.5645,-5.5197 8.5313,-0.7715 0.6884,1.6618 1.6469,3.0215 2.1302,3.0215 0.4833,0 0.8787,0.4904 0.8787,1.0898 0,0.5994 1.0866,2.2869 2.4146,3.75 1.3281,1.4631 4.7659,5.2555 7.6397,8.4276 8.3376,9.2029 20.43,16.8721 33.4457,21.2118 17.0668,5.6904 42.9139,5.4652 56.043,-0.4884 5.2859,-2.397 12.4195,-9.3809 12.4429,-12.1818 0.01,-0.93 0.4641,-1.9691 1.0141,-2.309 0.55,-0.3399 1,-2.3915 1,-4.559 0,-2.1676 -0.45,-3.941 -1,-3.941 -0.55,0 -1,-0.9524 -1,-2.1164 0,-2.4843 -6.9134,-9.3276 -11.3987,-11.2829 -7.1143,-3.1015 -38.6268,-8.8937 -62.6013,-11.5066 -8.5268,-0.9292 -15.9944,-2.5643 -19.2364,-4.2117 -0.9551,-0.4853 -2.6487,-0.8824 -3.7636,-0.8824 -1.1149,0 -2.8085,-0.3957 -3.7636,-0.8793 -0.955,-0.4835 -4.1991,-1.6898 -7.2091,-2.6805 -12.4017,-4.0818 -29.0507,-16.5678 -34.2559,-25.6902 -1.1768,-2.0625 -2.4864,-3.75 -2.9102,-3.75 -0.4238,0 -1.0602,-1.5438 -1.4142,-3.4307 -0.354,-1.8869 -1.2744,-3.6728 -2.0453,-3.9687 -0.7709,-0.2958 -1.4017,-1.812 -1.4017,-3.3692 0,-1.5573 -0.5625,-3.3939 -1.25,-4.0814 -0.9203,-0.9203 -1.25,-6.7633 -1.25,-22.15 0,-15.3867 0.3297,-21.2297 1.25,-22.15 0.6875,-0.6875 1.25,-2.2584 1.25,-3.491 0,-1.2325 0.4283,-2.5057 0.9517,-2.8292 0.5234,-0.3234 2.3669,-3.4629 4.0966,-6.9764 4.3678,-8.8722 15.1317,-20.2038 26.1369,-27.5154 4.9986,-3.3209 9.8143,-6.0397 10.7016,-6.0417 0.8872,0 3.0866,-0.9021 4.8874,-2 1.8008,-1.098 4.1258,-1.9963 5.1666,-1.9963 1.0409,0 2.0601,-0.5027 2.2649,-1.1171 0.3971,-1.1913 8.0989,-2.9258 24.2943,-5.4713 10.8618,-1.7071 38.0228,-1.462 48.5,0.4377 12.0986,2.1937 19.2449,3.9233 19.8565,4.8057 0.3539,0.5107 3.9729,2.4003 8.0422,4.1993 10.5177,4.6497 22.6174,12.956 29.6013,20.3212 10.8943,11.489 14.9604,16.5445 16.1457,20.0745 0.3231,0.9625 1.1619,1.75 1.8639,1.75 1.4098,0 2.4904,2.1696 2.4904,5.0002 0,1.0253 -1.5682,2.8059 -3.5497,4.0305 -3.4656,2.1418 -17.966,13.2694 -21.9503,16.8446 -1.1,0.987 -3.35,2.6359 -5,3.6642 -1.65,1.0283 -5.025,3.5169 -7.5,5.5303 -2.475,2.0134 -5.4719,3.9638 -6.6597,4.3342 -1.8387,0.5733 -2.3451,0.1104 -3.4075,-3.1153 -0.6863,-2.0838 -2.6395,-5.5616 -4.3403,-7.7284 -2.8211,-3.594 -4.7466,-5.4993 -12.4938,-12.3626 -3.0868,-2.7346 -14.9569,-8.5073 -20.5987,-10.0174 -9.675,-2.5898 -13.9812,-3.1803 -23.1932,-3.1803 -21.0345,0 -34.7577,5.7165 -38.1683,15.8992 -3.5064,10.4689 0.717,19.0112 11.1196,22.491 9.2721,3.1015 25.1058,6.6098 29.8319,6.6098 2.6356,0 5.0314,0.3874 5.324,0.8609 0.2927,0.4735 3.3568,1.1561 6.8091,1.5169 3.4523,0.3607 8.9769,1.0739 12.2769,1.5848 3.3,0.5109 8.925,1.2468 12.5,1.6353 3.575,0.3885 6.725,1.0239 7,1.4119 0.275,0.388 4.1,1.4943 8.5,2.4585 12.637,2.7692 18.1469,4.8895 32.0864,12.347 1.3522,0.7235 6.2065,5.0633 10.7873,9.6441 9.0466,9.0466 13.657,16.8143 15.7527,26.5406 1.484,6.8877 2.2956,34.7665 1.0577,36.3361 -0.5049,0.6401 -1.2236,3.5657 -1.5971,6.5011 -0.3735,2.9355 -1.0558,6.0855 -1.5163,7 -0.4606,0.9146 -1.4313,3.0128 -2.1572,4.6628 -0.7259,1.65 -2.8034,5.1385 -4.6167,7.7523 -1.8132,2.6138 -3.3079,5.0888 -3.3215,5.5 -0.072,2.1652 -17.2178,18.1658 -22.771,21.2494 -1.4874,0.8259 -5.2984,2.971 -8.469,4.7669 -6.308,3.5728 -10.6857,5.1729 -21.0794,7.7048 -5.5642,1.3554 -12.8356,1.7007 -38.8862,1.8469 l -32.0422,0.1797 z m 478.2813,1.3452 c -11.9351,-3.0136 -14.6876,-3.988 -22.8951,-8.1054 -16.1278,-8.0908 -34.3179,-23.1818 -42.5852,-35.3299 -1.8056,-2.653 -3.5711,-5.0487 -3.9234,-5.3237 -0.3523,-0.275 -1.732,-2.525 -3.066,-5 -1.334,-2.475 -2.7629,-4.65 -3.1754,-4.8333 -0.4125,-0.1834 -0.75,-1.1959 -0.75,-2.25 0,-1.0542 -0.45,-1.9167 -1,-1.9167 -0.55,0 -1,-0.6143 -1,-1.3651 0,-0.7509 -0.8442,-2.4384 -1.8759,-3.75 -1.0318,-1.3117 -1.9515,-2.8349 -2.0437,-3.3849 -0.6129,-3.6533 -1.3262,-6.231 -2.1408,-7.7364 -0.5168,-0.9551 -0.9396,-2.8676 -0.9396,-4.25 0,-1.3825 -0.4047,-2.5136 -0.8993,-2.5136 -0.4946,0 -1.1345,-1.9125 -1.4219,-4.25 -0.2874,-2.3375 -1.108,-6.725 -1.8237,-9.75 -1.6789,-7.0971 -1.6521,-49.9604 0.037,-58.5 0.6526,-3.3 1.441,-7.685 1.7519,-9.7444 0.311,-2.0595 0.9684,-3.4954 1.4609,-3.191 0.4925,0.3044 0.8955,-0.6042 0.8955,-2.0192 0,-1.4149 0.3897,-3.3539 0.866,-4.309 1.6533,-3.3153 3.068,-8.5342 2.5434,-9.3829 -0.2901,-0.4694 -0.1055,-0.8535 0.4103,-0.8535 0.5157,0 1.4968,-1.35 2.1803,-3 0.6835,-1.65 1.638,-3 2.1213,-3 0.4833,0 0.8787,-0.9 0.8787,-2 0,-1.1 0.45,-2 1,-2 0.55,0 1,-0.9 1,-2 0,-1.1 0.45,-2 1,-2 0.55,0 1,-0.5902 1,-1.3114 0,-0.7213 0.9,-2.2775 2,-3.4582 1.1,-1.1807 2,-2.6156 2,-3.1886 0,-0.573 0.4197,-1.0418 0.9326,-1.0418 0.5129,0 1.2495,-0.9984 1.6368,-2.2187 0.8644,-2.7234 20.4228,-22.048 25.9306,-25.6206 9.6948,-6.2884 21.2735,-12.1607 23.978,-12.1607 0.8371,0 1.522,-0.45 1.522,-1 0,-0.55 0.8625,-1 1.9167,-1 1.0541,0 2.0666,-0.45 2.25,-0.9999 0.314,-0.942 7.316,-2.7536 19.8333,-5.1316 9.1015,-1.729 36.5976,-2.2354 44.5,-0.8195 11.6364,2.0848 21.9564,4.8202 22.3218,5.9165 0.1897,0.569 0.8264,1.0345 1.415,1.0345 2.289,0 12.5514,5.4996 18.2632,9.7872 6.9622,5.2262 14.5162,12.6742 17.8761,17.6254 l 2.3495,3.4622 0.7135,-14.0543 c 0.3923,-7.7298 0.9522,-14.6767 1.2441,-15.4374 0.4336,-1.1298 5.4341,-1.3831 27.3072,-1.3831 h 26.7763 l 0.603,2.25 c 0.3317,1.2375 0.6091,57.0217 0.6166,123.9648 0.013,119.3197 -0.024,121.7352 -1.9206,122.75 -3.0594,1.6374 -59.2025,1.3869 -61.4742,-0.2743 -1.5612,-1.1415 -1.7427,-2.5842 -1.4154,-11.25 l 0.3754,-9.9405 -6.4948,6.2521 c -3.5721,3.4387 -7.2961,6.5065 -8.2757,6.8174 -0.9795,0.3109 -1.781,0.9849 -1.781,1.4979 0,0.5129 -0.5625,0.9345 -1.25,0.9369 -0.6875,0 -3.275,1.3504 -5.75,2.9957 -2.475,1.6453 -5.4225,2.9934 -6.55,2.9957 -1.1275,0 -2.4775,0.3624 -3,0.8002 -1.1387,0.9539 -6.6783,2.7806 -11.2745,3.7178 -1.8285,0.3729 -15.6007,0.7473 -30.6049,0.8321 -22.9794,0.1299 -28.3675,-0.1203 -34.1755,-1.5868 z m 55.9647,-55.366 c 12.8051,-1.4224 28.7432,-9.7624 37.2471,-19.4904 7.149,-8.178 7.8097,-9.0778 9.29,-12.6526 0.7401,-1.7875 1.7411,-3.25 2.2244,-3.25 0.4833,0 0.8787,-0.9 0.8787,-2 0,-1.1 0.3989,-2 0.8865,-2 0.4875,0 1.2046,-2.1375 1.5935,-4.75 0.389,-2.6125 1.06,-5.2 1.4913,-5.75 3.0227,-3.8552 3.0388,-41.9106 0.019,-46 -0.4061,-0.55 -1.0461,-3.127 -1.4222,-5.7267 -0.3762,-2.5997 -1.108,-4.9887 -1.6262,-5.309 -0.5182,-0.3203 -0.9422,-1.4558 -0.9422,-2.5233 0,-1.0676 -0.4596,-1.941 -1.0214,-1.941 -0.5618,0 -1.5459,-1.2375 -2.1869,-2.75 -3.0721,-7.2489 -15.2328,-19.6694 -23.6888,-24.1949 -13.9225,-7.4512 -32.8281,-10.2135 -49.6029,-7.2477 -11.3174,2.001 -26.5,7.9641 -26.5,10.4082 0,0.4314 -0.469,0.7844 -1.0422,0.7844 -1.6847,0 -10.7177,8.2779 -15.6368,14.3298 -2.8885,3.5535 -6.923,12.0814 -8.3597,17.6702 -0.6363,2.475 -1.5623,4.9954 -2.0578,5.6009 -0.4955,0.6055 -1.1622,3.3055 -1.4816,6 -0.3194,2.6945 -1.029,5.833 -1.5768,6.9744 -1.9181,3.9963 0.8185,33.4467 3.1833,34.258 0.5344,0.1834 0.9716,1.427 0.9716,2.7636 0,1.3366 0.45,3.3241 1,4.4167 0.55,1.0925 1.45,2.8803 2,3.9728 0.55,1.0926 1,2.6676 1,3.5 0,0.8325 0.45,1.5136 1,1.5136 0.55,0 1,0.5937 1,1.3194 0,1.9889 7.2712,11.3295 12.6989,16.3131 4.0975,3.7621 22.3011,14.2852 22.3011,12.8917 0,-0.2611 1.2375,0.039 2.75,0.6663 3.9476,1.6379 19.9563,3.691 25.25,3.2383 2.475,-0.2116 7.1369,-0.6777 10.3598,-1.0358 z M 987.66674,361.2794 c -0.3667,-0.3666 -0.6667,-81.5435 -0.6667,-180.393 0,-147.440097 0.2358,-179.8167971 1.3127,-180.23009706 0.7221,-0.277 7.3596,-0.568 14.74996,-0.6466 13.9033,-0.1479 24.5766,1.38409996 30.5552,4.38569996 5.9467,2.9856 14.3821,12.6345001 14.3821,16.4511991 0,1.089801 0.45,2.2596 1,2.5995 1.564,0.9666 1.3655,335.734498 -0.2,337.299998 -0.8793,0.8793 -9.1185,1.2 -30.8333,1.2 -16.2984,0 -29.93336,-0.3 -30.29996,-0.6667 z m 368.90466,-0.9047 C 1355.16,358.9632 1355,346.3582 1355,236.5747 c 0,-93.7334 0.2798,-122.5084 1.2,-123.4286 0.8723,-0.8723 8.362,-1.2 27.4291,-1.2 h 26.2291 l 1.0095,5.25 c 0.5552,2.8875 1.3063,9.2338 1.6692,14.1029 l 0.6598,8.8528 1.9382,-3.1872 c 2.2935,-3.7712 8.5925,-10.191 14.8651,-15.1499 5.0348,-3.9804 15.6175,-9.8686 17.7366,-9.8686 0.7598,0 1.1433,-0.3854 0.8522,-0.8564 -0.5347,-0.865 10.8135,-3.9795 21.9714,-6.0299 8.5047,-1.5629 29.4285,-1.3538 38.9398,0.3892 16.1331,2.9564 25.9676,5.4316 21.9167,5.5162 -0.5042,0.011 1.7833,1.2228 5.0833,2.6939 13.1807,5.8757 31.8953,22.7994 36.8095,33.287 1.1597,2.475 2.7116,5.1167 3.4486,5.8705 0.7371,0.7538 1.5993,2.6663 1.916,4.25 0.3167,1.5837 0.9697,2.8795 1.4509,2.8795 0.4812,0 0.875,0.8734 0.875,1.941 0,1.0675 0.45,2.2191 1,2.559 0.55,0.3399 1,1.9149 1,3.5 0,1.5851 0.45,3.1601 1,3.5 0.55,0.3399 1.0028,2.054 1.0062,3.809 0,1.7551 0.5996,4.3282 1.3251,5.7182 2.1783,4.1738 2.6618,7.2756 1.3768,8.8334 -0.9472,1.1484 -0.9382,1.5555 0.042,1.8853 0.9867,0.3322 1.25,18.0881 1.25,84.3022 0,81.9078 -0.046,83.9059 -1.9343,84.9167 -2.0645,1.1049 -56.8095,1.4787 -60.7771,0.415 l -2.2114,-0.5929 -0.2886,-81.289 c -0.269,-75.7772 -0.4073,-81.4201 -2.0386,-83.2222 -0.9625,-1.0633 -1.75,-2.9368 -1.75,-4.1635 0,-1.2266 -0.3938,-1.9869 -0.8751,-1.6894 -0.4813,0.2975 -1.1615,-1.2504 -1.5116,-3.4398 -0.3813,-2.3845 -1.4338,-4.4785 -2.6249,-5.2223 -1.0936,-0.683 -1.9905,-1.6961 -1.9932,-2.2513 -0.011,-2.2973 -7.2607,-8.6557 -13.1663,-11.5472 -7.596,-3.7193 -15.7115,-5.4233 -25.8289,-5.4233 -8.3135,0 -19.7811,1.8422 -21.3722,3.4333 -0.5653,0.5653 -1.818,1.0278 -2.7838,1.0278 -6.8346,0 -23.827,16.9706 -23.8397,23.809 0,1.2839 -0.4483,2.0346 -1.0043,1.691 -0.5834,-0.3606 -1,0.6563 -1,2.441 0,1.6824 -0.4008,3.059 -0.8906,3.059 -2.0555,0 -2.4234,11.2616 -2.7756,84.9522 -0.2865,59.9293 -0.6489,77.6293 -1.602,78.2347 -0.6775,0.4304 -14.5872,0.7894 -30.9104,0.7978 -25.6608,0.013 -29.8913,-0.1974 -31.25,-1.5561 z m 500.1129,0.3214 c -1.5878,-1.169 -1.6812,-12.8173 -1.4411,-179.75 L 1855.5,2.4461029 l 19.1557,-0.2713 c 17.4406,-0.2469 19.6612,-0.082 24.803,1.8417 6.7752,2.535 12.8665,8.4881001 17.098,16.7104001 l 2.9433,5.7192 v 91.307297 91.3074 l 19.5,-19.895 c 40.7519,-41.5772 73.5125,-75.4374 73.8333,-76.3116 0.1914,-0.5214 15.8401,-0.9081 36.75,-0.9081 20.7025,0 36.4167,-0.3853 36.4167,-0.893 0,-0.4912 0.7261,-1.1717 1.6136,-1.5122 1.3669,-0.5245 1.5116,-0.076 0.9465,2.9363 -0.5472,2.9173 -4.2025,7.1087 -20.3635,23.3507 -37.3189,37.506 -74.1966,75.411 -74.1966,76.2636 0,0.47 0.45,0.8546 1,0.8546 0.55,0 1,0.675 1,1.5 0,0.825 0.45,1.5 1,1.5 0.55,0 1,0.675 1,1.5 0,0.825 0.4072,1.5 0.905,1.5 0.4977,0 2.1852,2.0771 3.75,4.6159 1.5647,2.5387 3.2998,5.3512 3.8557,6.25 4.6131,7.4586 9.2223,14.1681 11.6228,16.9189 1.5766,1.8066 2.8665,3.7492 2.8665,4.3167 0,0.5676 1.125,2.5069 2.5,4.3096 1.375,1.8027 2.5,3.728 2.5,4.2783 0,0.5503 0.9,1.8151 2,2.8106 1.1,0.9955 2,2.4152 2,3.155 0,0.7397 0.45,1.345 1,1.345 0.55,0 1,0.4487 1,0.9972 0,0.5484 1.9125,3.6374 4.25,6.8644 4.6186,6.3761 9.1052,13.3426 12.25,19.0212 1.1,1.9863 2.7175,4.2877 3.5944,5.1143 1.7146,1.6162 16.9056,24.5383 16.9056,25.5093 0,0.3215 1.0901,1.6746 2.4224,3.0069 1.3323,1.3323 2.7127,3.3369 3.0674,4.4546 0.3547,1.1176 1.0647,2.0321 1.5776,2.0321 0.5129,0 0.9326,0.694 0.9326,1.5422 0,0.8482 0.4554,2.0857 1.0119,2.75 3.302,3.941 6.9881,9.0939 6.9881,9.7687 0,0.4322 1.5955,2.8762 3.5457,5.431 2.4093,3.1564 3.3491,5.264 2.9326,6.5766 -0.5894,1.857 -1.879,1.9315 -33.4207,1.9315 -18.0442,0 -34.2738,-0.2933 -36.0659,-0.6517 -1.9689,-0.3937 -3.4495,-1.3831 -3.7416,-2.5 -0.2659,-1.0166 -0.8809,-1.8483 -1.3667,-1.8483 -0.4859,0 -0.8834,-0.5902 -0.8834,-1.3114 0,-0.7213 -0.8729,-2.2484 -1.9398,-3.3936 -1.0669,-1.1452 -1.7385,-2.2834 -1.4924,-2.5295 0.246,-0.246 -0.6762,-1.9814 -2.0493,-3.8564 -1.3732,-1.875 -4.2989,-6.1091 -6.5015,-9.4091 -2.2027,-3.3 -4.6996,-6.9 -5.5488,-8 -0.8492,-1.1 -2.2885,-3.6875 -3.1985,-5.75 -0.91,-2.0625 -2.018,-3.75 -2.4621,-3.75 -0.4442,0 -0.8076,-0.675 -0.8076,-1.5 0,-0.825 -0.386,-1.5 -0.8579,-1.5 -0.8161,0 -8.1421,-11.1509 -8.1421,-12.3931 0,-0.3254 -1.0125,-1.754 -2.25,-3.1746 -1.2375,-1.4207 -3.375,-4.5138 -4.75,-6.8737 -3.136,-5.3824 -10.4309,-15.8466 -12.465,-17.8807 -0.8442,-0.8443 -1.535,-1.8458 -1.535,-2.2257 0,-0.97 -7.1376,-12.6726 -8.7057,-14.2736 -0.7119,-0.7268 -1.2943,-1.9643 -1.2943,-2.75 0,-1.5951 -1.6476,-1.9584 -2.1667,-0.4778 -0.1833,0.5229 -6.9708,7.7407 -15.0833,16.0395 L 1920,287.0251 v 36.2605 c 0,26.8693 -0.3108,36.5713 -1.2,37.4605 -1.7528,1.7528 -59.7303,1.7061 -62.1157,-0.05 z m 511.1805,0.5828 c -0.8994,-0.2394 -1.9119,-1.8185 -2.25,-3.509 -0.7984,-3.992 -0.806,-242.162 -0.01,-244.242 0.5327,-1.3881 3.8996,-1.5818 27.5,-1.5818 H 2420 v 3.8089 c 0,2.0948 0.6607,4.6823 1.4682,5.75 1.0774,1.4245 1.4792,4.8688 1.5095,12.9411 l 0.041,11 3.8147,-6 c 6.2698,-9.8615 19.4462,-20.7413 29.4021,-24.2773 2.6203,-0.9307 4.7642,-2.0365 4.7642,-2.4574 0,-0.4209 1.3766,-0.7653 3.059,-0.7653 1.6825,0 2.8062,-0.4091 2.4971,-0.9092 -0.8382,-1.3563 11.5231,-3.1377 23.4439,-3.3786 l 10.5,-0.2122 0.2634,32.5548 0.2634,32.5549 -6.2634,-0.01 c -14.9458,-0.019 -21.2639,0.4284 -19.7634,1.3981 1.0912,0.7052 0.2724,0.9735 -3.0043,0.9847 -4.4722,0.015 -16.4685,3.7846 -20.5447,6.4554 -4.0369,2.6451 -11.4548,10.7269 -12.0604,13.1398 -0.3341,1.3311 -0.9729,2.4201 -1.4196,2.4201 -1.0523,0 -2.4069,5.8159 -2.0642,8.8623 0.1507,1.3399 -0.1574,2.1008 -0.712,1.758 -1.1514,-0.7115 -1.6877,2.2751 -3.6595,20.3797 -1.1219,10.3008 -1.4781,27.6338 -1.5028,73.143 -0.029,53.445 -0.1969,59.7061 -1.6143,60.25 -1.7686,0.6787 -57.9873,0.6227 -60.5534,-0.06 z M 2602,360.9725 c -12.2533,-0.5843 -19.9058,-1.993 -27.7971,-5.117 -1.2633,-0.5002 -3.4274,-0.9094 -4.809,-0.9094 -1.42,0 -2.2433,-0.4347 -1.8939,-1 0.3399,-0.55 0.1366,-1 -0.4519,-1 -1.9792,0 -10.2986,-4.3276 -12.8307,-6.6743 -1.3802,-1.2792 -2.9133,-2.3257 -3.407,-2.3257 -1.4418,0 -11.356,-10.4065 -13.421,-14.0874 -1.0392,-1.8524 -3.0748,-4.6787 -4.5235,-6.2806 -1.4488,-1.6019 -3.4374,-5.6619 -4.4191,-9.0223 -0.9817,-3.3603 -2.1588,-6.5372 -2.6158,-7.0597 -0.4571,-0.5225 -0.831,-2.21 -0.831,-3.75 0,-1.54 -0.45,-2.8 -1,-2.8 -0.55,0 -1,-2.025 -1,-4.5 0,-2.475 -0.4181,-4.5 -0.929,-4.5 -1.8312,0 -2.2204,-20.1915 -2.6546,-137.7084 -0.4393,-118.915997 -0.4354,-119.211097 1.5855,-120.292597 1.3614,-0.7286 11.7093,-0.9882 31.5494,-0.7916 24.9246,0.247 29.6742,0.5263 30.4904,1.7926 0.5906,0.9163 0.8678,16.1894 0.7125,39.2505 l -0.2542,37.750497 33.25,-5e-4 33.25,-5e-4 v 28.5 28.5 l -33.25,-3e-4 -33.25,-3e-4 0.2255,53.2503 c 0.2223,52.4931 0.5609,61.7503 2.2582,61.7503 0.4737,0 1.3644,1.5249 1.9795,3.3886 1.6955,5.1374 7.306,10.2972 13.3016,12.233 4.0305,1.3014 10.2403,1.7921 26.9852,2.1323 l 21.75,0.442 v 29.902 29.9021 l -17.25,-0.1649 c -9.4875,-0.091 -23.325,-0.4546 -30.75,-0.8087 z M 250.50004,326.7645 c -16.261,-1.4344 -21.4316,-2.6976 -22.1102,-5.4016 -0.9861,-3.9288 0.1985,-4.4009 10.9135,-4.3498 9.9027,0.047 18.9263,-1.4251 28.58,-4.6634 2.4108,-0.8087 4.6074,-1.2462 4.8813,-0.9723 0.274,0.2739 1.4391,-0.161 2.5893,-0.9666 1.1501,-0.8056 2.791,-1.4647 3.6465,-1.4647 4.8698,0 40.9996,-21.1482 40.9996,-23.9987 0,-0.461 1.5531,-1.7981 3.4514,-2.9713 1.8983,-1.1732 6.1984,-5.5974 9.5559,-9.8315 3.3574,-4.2342 7.0284,-8.8235 8.1577,-10.1985 1.1293,-1.375 3.1621,-4.8625 4.5174,-7.75 1.3553,-2.8875 2.8812,-5.25 3.3909,-5.25 0.5097,0 0.9295,-0.5625 0.9329,-1.25 0,-0.6875 0.5893,-2.375 1.302,-3.75 0.7127,-1.375 2.3659,-5.875 3.6738,-10 1.3079,-4.125 2.6345,-7.725 2.948,-8 1.2432,-1.0906 2.8596,-7.0887 2.392,-8.8766 -0.2729,-1.0437 -0.01,-2.2 0.5909,-2.5696 0.6007,-0.3713 1.0871,-3.5534 1.0871,-7.1128 0,-3.6273 0.4368,-6.441 1,-6.441 0.563,0 1,-2.8109 1,-6.4326 0,-5.7258 0.2389,-6.5084 2.1738,-7.1226 2.8509,-0.9048 4.5754,1.4651 4.6432,6.3813 0.029,2.0708 0.7499,5.7696 1.6029,8.2195 0.8531,2.4499 1.5575,5.049 1.5655,5.7758 0.01,0.7268 0.6628,1.9697 1.4551,2.762 0.7923,0.7923 1.7442,3.4656 2.1154,5.9408 0.3712,2.4752 1.073,4.7464 1.5595,5.0471 0.4865,0.3007 0.8846,1.6452 0.8846,2.9877 0,1.3426 0.45,2.441 1,2.441 0.55,0 1,0.9 1,2 0,1.1 0.4079,2 0.9064,2 0.4985,0 0.6922,0.8189 0.4305,1.8199 -0.2618,1.0009 0.2303,2.406 1.0936,3.1224 0.8632,0.7164 1.5695,1.9225 1.5695,2.6801 0,0.7577 0.45,1.3776 1,1.3776 0.55,0 1,0.5798 1,1.2886 0,1.9972 3.6668,8.7112 4.3723,8.0057 0.3452,-0.3452 0.6277,-0.01 0.6277,0.7452 0,1.672 7.1992,16.3268 8.25,16.7938 0.4125,0.1834 0.75,0.8626 0.75,1.5095 0,0.6468 0.8413,1.7015 1.8695,2.3436 1.0282,0.6421 2.0944,2.3442 2.3693,3.7824 0.4128,2.1594 -0.044,2.8894 -2.6195,4.1901 -1.7156,0.8663 -4.0193,2.3861 -5.1193,3.3774 -2.7171,2.4486 -23.0979,15.9948 -27.75,18.4441 -2.0625,1.0859 -3.75,2.2733 -3.75,2.6386 0,0.3653 -1.1469,0.952 -2.5486,1.3038 -1.4017,0.3518 -5.3064,1.9756 -8.6772,3.6084 -3.3707,1.6329 -6.6757,2.9688 -7.3444,2.9688 -0.6687,0 -1.4411,0.5872 -1.7165,1.3049 -0.2754,0.7176 -2.4611,1.8892 -4.857,2.6034 -2.396,0.7142 -6.1713,1.927 -8.3897,2.6951 -2.2184,0.7681 -4.8325,1.3966 -5.809,1.3966 -0.9766,0 -1.4975,0.45 -1.1576,1 0.3459,0.5597 -0.4302,1 -1.7628,1 -1.3095,0 -4.3736,0.6226 -6.8091,1.3835 -14.9443,4.6693 -43.489,6.5467 -67.4281,4.4349 z m 448.8895,-22.2457 c -1.2139,-3.1634 0.085,-5.9479 3.1418,-6.7355 1.6672,-0.4296 3.9174,-1.5812 5.0004,-2.5591 1.0831,-0.978 4.4727,-3.6419 7.5325,-5.9199 8.6258,-6.4218 20.9606,-19.1467 26.0397,-26.8635 6.4898,-9.8601 7.8961,-12.2691 7.8961,-13.5262 0,-0.6061 1.1238,-2.5753 2.4973,-4.3761 1.3939,-1.8275 2.7781,-5.3226 3.1328,-7.9102 0.3495,-2.5499 1.0257,-4.3949 1.5027,-4.1002 0.4769,0.2948 0.8672,-0.7655 0.8672,-2.3563 0,-1.5908 0.3369,-3.2293 0.7487,-3.641 0.9,-0.9 3.0615,-12.7514 3.1723,-17.3937 0.046,-1.9353 0.4942,-3.0525 1.079,-2.691 1.4365,0.8878 1.5755,-55.4764 0.1392,-56.4708 -0.6484,-0.4489 -1.9904,-8.0745 -4.8005,-27.2792 -0.3018,-2.0625 -0.9515,-3.75 -1.4437,-3.75 -0.4923,0 -0.895,-1.575 -0.895,-3.5 0,-1.925 -0.4783,-3.5 -1.0629,-3.5 -0.5845,0 -0.9306,-0.7875 -0.7691,-1.75 0.1616,-0.9625 -0.7101,-3.8826 -1.9371,-6.4891 -1.227,-2.6065 -2.2309,-5.382497 -2.2309,-6.168997 0,-0.7864 -0.6526,-2.7038 -1.4503,-4.2609 -0.7977,-1.557 -3.7709,-7.6846 -6.6072,-13.6168 -2.8363,-5.9322 -5.6715,-11.3322 -6.3003,-12 -0.6289,-0.6678 -3.2341,-4.3649 -5.7895,-8.2158 -2.5555,-3.8509 -5.5927,-7.8581 -6.7495,-8.905 -1.1567,-1.0469 -2.1032,-2.272 -2.1032,-2.7224 0,-1.0137 -16.4047,-16.9678 -18.7762,-18.2604 -0.9481,-0.5168 -1.9488,-1.2578 -2.2238,-1.6466 -1.3902,-1.9654 -15.1598,-9.966 -17.1751,-9.9793 -1.7973,-0.012 -1.9963,-0.2232 -0.8771,-0.9313 1.1209,-0.7091 0.7821,-1.0751 -1.5,-1.6206 -5.0823,-1.2148 -8.4478,-3.6767 -8.4478,-6.1798001 0,-2.8055 2.3551,-3.8962 5.3175,-2.4626 1.2004,0.5809 4.1978,1.2867 6.661,1.5684 2.4632,0.2817 4.6382,0.9912 4.8333,1.5767 0.1952,0.5855001 1.8658,1.0645001 3.7125,1.0645001 1.8467,0 3.6051,0.4003 3.9074,0.8895 0.3024,0.4892 2.0164,1.1176 3.809,1.3964 5.801,0.9023 15.0942,3.8337 21.7548,6.8623 3.5775,1.6267 7.4045,3.3199 8.5045,3.7627 7.7967,3.1385 17.6056,8.9155 30.6188,18.033 7.3265,5.1333 30.0438,27.0757 32.0352,30.9424 0.7403,1.4375 2.5814,3.9637 4.0914,5.6137 1.5099,1.65 2.7474,3.5625 2.75,4.25 0,0.6875 0.3616,1.25 0.7979,1.25 0.4364,0 2.1239,2.2411 3.75,4.9802 1.6262,2.739 3.2445,4.989 3.5963,5 0.3518,0.011 1.2376,2.0448 1.9683,4.5198 0.7308,2.474997 1.6805,4.499997 2.1104,4.499997 0.4299,0 0.7817,0.9 0.7817,2 0,1.1 0.45,2 1,2 0.55,0 1,0.9 1,2 0,1.1 0.3687,2 0.8192,2 0.4506,0 1.4397,2.2785 2.1981,5.0634 0.7583,2.7848 1.7396,5.2864 2.1807,5.559 0.4411,0.2726 0.8163,1.9316 0.8338,3.6866 0.017,1.7551 0.6925,4.0645 1.5,5.1321 0.8075,1.0676 1.4682,3.4301 1.4682,5.25 0,1.8199 0.3779,3.3089 0.8397,3.3089 1.3065,0 3.1603,17.6703 3.1603,30.1238 0,12.4539 -1.7805,28.8762 -3.1308,28.8762 -0.4781,0 -0.8692,1.1394 -0.8692,2.5321 0,1.3927 -0.675,4.1476 -1.5,6.1221 -0.825,1.9745 -1.5,4.6601 -1.5,5.9679 0,1.3079 -0.45,2.3779 -1,2.3779 -0.55,0 -1.0143,1.0125 -1.0318,2.25 -0.017,1.2375 -0.6449,3.0584 -1.3942,4.0465 -0.7494,0.988 -1.1801,2.788 -0.9571,4 0.2229,1.2119 0.1194,1.5859 -0.23,0.831 -0.3931,-0.8494 -2.0725,1.628 -4.4062,6.5 -3.2695,6.8254 -8.2021,14.2341 -15.5176,23.3072 -6.5691,8.1474 -22.1454,22.2508 -27.8842,25.2475 -1.7718,0.9252 -3.8063,2.3869 -4.5211,3.2482 -0.7149,0.8613 -3.9363,2.7493 -7.1589,4.1954 -3.2985,1.4803 -5.5818,3.0783 -5.2245,3.6563 0.3646,0.5901 0.1443,0.7239 -0.5178,0.3147 -0.6339,-0.3918 -2.3909,-0.066 -3.9045,0.7236 -2.5841,1.3483 -6.1179,2.9055 -10.7521,4.7381 -1.1,0.4349 -3.125,1.0049 -4.5,1.2664 -1.375,0.2616 -5.2,1.2445 -8.5,2.1843 -6.2729,1.7864 -19.0769,4.4876 -21.2814,4.4896 -0.7047,7e-4 -1.5278,-0.6411 -1.8291,-1.4261 z M 11.143336,196.4532 c -4.2743005,-1.3334 -8.1433005,-4.4052 -8.1433005,-6.4653 0,-0.573 -0.675,-1.0418 -1.5,-1.0418 -1.31059995,0 -1.499999953124,-5.5521 -1.499999953124,-43.9686 0,-38.6724 0.180700003124,-43.8993 1.499999953124,-43.393 0.895,0.3434 1.5,0.01 1.5,-0.8304 0,-0.773297 1.7879,-2.508897 3.9731,-3.856997 2.1852,-1.348 3.9852005,-2.8366 4.0000005,-3.308 0.015,-0.4713 0.6459,-0.6194 1.4025,-0.3291 0.7565,0.2903 2.608,-0.1116 4.1143,-0.893 1.5063,-0.7815 3.5661,-1.4209 4.5774,-1.4209 1.0112,0 2.8723,-0.4031 4.1356,-0.8959 1.2634,-0.4927 4.0971,-1.3613 6.2971,-1.9303 9.1654,-2.3704 16.2257,-4.4266 19.7702,-5.7578 2.0737,-0.7788 4.4362,-1.416 5.25,-1.416 2.4268,0 1.7719,5.3734 -1.0486,8.604 -4.2215,4.8352 -4.4716,5.2418 -4.4716,7.2705 0,1.0773 -0.3375,2.1088 -0.75,2.2922 -1.0802,0.4801 -5.25,8.762297 -5.25,10.427797 0,0.773 -0.45,1.4055 -1,1.4055 -0.55,0 -1,1.0875 -1,2.4167 0,1.3291 -0.3449,2.5666 -0.7665,2.75 -0.4216,0.1833 -1.841,4.1583 -3.1542,8.8333 -1.3132,4.675 -2.9932,9.7151 -3.7335,11.2003 -0.7402,1.4852 -1.3458,4.2977 -1.3458,6.25 0,1.9523 -0.4008,3.5497 -0.8907,3.5497 -1.3541,0 -2.3859,13.5391 -2.5142,32.9919 l -0.1154,17.492 -2.9899,0.6397 c -5.0031,1.0705 -11.7549,0.8159 -16.3465,-0.6165 z m 823.154304,0.4794 c -2.1727,-0.8749 -2.2085,-1.2341 -2.6599,-26.6867 -0.4658,-26.2587 -1.12,-35.0512 -2.7347,-36.7498 -0.4966,-0.5225 -0.903,-2.2279 -0.903,-3.7898 0,-1.562 -0.8451,-4.5095 -1.878,-6.55 -1.0328,-2.0406 -2.2092,-5.2852 -2.614,-7.2102 -0.7145,-3.3971 -6.2728,-15.992197 -7.5023,-16.999997 -0.3354,-0.275 -1.3851,-2.1665 -2.3326,-4.2034 -0.9475,-2.0368 -2.274,-4.3073 -2.9479,-5.0456 -0.6739,-0.7382 -2.0337,-2.8572 -3.0218,-4.7088 -2.7246,-5.1057 -0.2525,-5.6452 8.7966,-1.9197 4.9091,2.021 11.1876,3.8496 13.2636,3.8629 1.2449,0.01 3.0449,0.4207 4,0.9171 0.955,0.4964 3.7614,1.4403 6.2364,2.0975 2.475,0.6572 5.2814,1.6011 6.2364,2.0975 0.9551,0.4964 2.4446,0.9025 3.3101,0.9025 2.6434,0 10.8569,5.9598 13.2548,9.617797 l 2.2629,3.4521 -0.2821,40.7871 -0.2821,40.787 -3.4436,3.65 c -1.894,2.0075 -5.4616,4.3375 -7.9281,5.178 -4.8598,1.6558 -15.2883,1.9408 -18.8307,0.5145 z m -341.1924,-15.2365 c -2.2094,-9.1127 -5.4674,-19.2372 -6.3017,-19.5833 -0.4419,-0.1834 -0.8035,-1.3943 -0.8035,-2.691 0,-1.2967 -0.45,-2.6358 -1,-2.9757 -0.55,-0.3399 -1,-1.6899 -1,-3 0,-1.3101 -0.45,-2.6601 -1,-3 -0.55,-0.3399 -1,-1.518 -1,-2.618 0,-1.1 -0.45,-1.7219 -1,-1.382 -0.55,0.3399 -1,-0.3051 -1,-1.4334 0,-1.1283 -1.9763,-5.9924 -4.3918,-10.809 -2.4155,-4.8167 -5.3517,-10.8951 -6.525,-13.5076 -1.1732,-2.6125 -2.4815,-4.75 -2.9073,-4.75 -0.4258,0 -1.3195,-1.5083 -1.9861,-3.3518 -0.6667,-1.8435 -3.891,-7.131 -7.1653,-11.75 -8.2621,-11.655297 -9.9223,-13.751597 -14.7745,-18.655497 -4.8257,-4.8772 -5.3315,-7.7494 -1.8862,-10.7109 1.3001,-1.1175 4.8171,-4.2818 7.8156,-7.0318 2.9986,-2.75 7.6724,-6.8943 10.3863,-9.2096 2.7138,-2.3153 6.2843,-5.3949 7.9343,-6.8437 1.65,-1.4487 5.3625,-4.1807 8.25,-6.0711 2.8875,-1.8904 5.25,-3.8732 5.25,-4.4063 0,-0.5331 0.3375,-0.8845 0.75,-0.7809 1.002,0.2518 8.25,-4.2006 8.25,-5.0679 0,-0.3751 1.2375,-1.2215 2.75,-1.8807 1.5125,-0.6593 4.3151,-2.1562 6.2281,-3.3264 5.8251,-3.5633 22.5247,-11.9134 23.8261,-11.9134 0.6726,0 2.1168,-0.45 3.2094,-1 1.0925,-0.55 2.8803,-1.45 3.9728,-2 1.0926,-0.55 2.6194,-1 3.393,-1 0.7737,0 1.6656,-0.675 1.9822,-1.5000001 0.3523,-0.918 1.8683,-1.5 3.907,-1.5 1.8323,0 3.7589,-0.4022 4.2814,-0.8937 1.0738,-1.0102 17.286,-5.1063 20.2105,-5.1063 1.0484,0 2.1857,-0.2795 2.5274,-0.6212 1.0223,-1.02229996 59.8423,-0.52189996 64.7121,0.5506 2.475,0.5451 7.65,1.9578 11.5,3.1392 3.85,1.1815 8.2732,2.3807 9.8294,2.6649 1.5562,0.2843 3.0668,1.1355 3.357,1.8916 0.2902,0.7562001 1.0439,1.3749001 1.6749,1.3749001 1.7101,0 16.2136,7.4447 23.6387,12.1339 6.47,4.086 14.7154,10.6431 20.5765,16.3634 1.6921,1.6515 4.1671,3.9509 5.5,5.1098 1.3329,1.1588 4.6735,4.9195 7.4235,8.3569 2.75,3.4374 5.6811,6.9953 6.5135,7.9064 0.8324,0.9112 2.6108,3.2255 3.9518,5.1431 1.3411,1.9176 2.685,3.7115 2.9865,3.9865 0.3015,0.275 1.4439,2.3 2.5386,4.5 1.0948,2.2 2.2537,4.225 2.5753,4.5 0.8599,0.735 3.5992,5.9542 5.3799,10.25 2.0166,4.8649 4.3698,9.8609 5.5345,11.749997 2.5213,4.0892 4.3734,9.6646 4.4428,13.3742 0.066,3.5453 -0.2395,4.1708 -2.1729,4.4453 -1.7208,0.2444 -2.25,-0.1746 -2.25,-1.7813 0,-1.1556 -0.675,-2.36 -1.5,-2.6766 -0.825,-0.3166 -1.5143,-1.3149 -1.5318,-2.2186 -0.034,-1.7698 -0.6407,-2.6762 -6.5839,-9.84 -9.468,-11.412497 -21.0336,-21.518897 -30.2764,-26.456597 -2.732,-1.4595 -4.806,-2.8149 -4.6089,-3.012 0.3555,-0.3556 -19.2412,-8.6895 -24.999,-10.6314 -2.8208,-0.9514 -5.1807,-1.5368 -16.6928,-4.1413 -2.5811,-0.5839 -7.842,-1.0617 -11.691,-1.0617 -3.849,0 -7.2763,-0.45 -7.6162,-1 -0.7718,-1.2488 -10.76,-1.325 -12.05,-0.092 -0.5225,0.4995 -4.775,1.1388 -9.45,1.4209 -13.2027,0.7964 -16.419,1.595 -37.5,9.3108 -4.7352,1.7332 -18.3585,9.8447 -26.9201,16.0287 -7.8015,5.6351 -24.5006,23.041097 -28.38,29.581497 -0.8971,1.5125 -1.9841,2.75 -2.4155,2.75 -0.4314,0 -0.7844,0.675 -0.7844,1.5 0,0.825 -0.3509,1.5 -0.7799,1.5 -0.4289,0 -1.6664,2.2876 -2.75,5.0836 -1.0835,2.7959 -2.5366,5.5544 -3.229,6.1298 -0.6925,0.5755 -1.5362,2.7797 -1.875,4.8983 -0.3387,2.1186 -0.9731,3.6312 -1.4096,3.3614 -0.4366,-0.2698 -1.09,0.8582 -1.4521,2.5067 -0.362,1.6485 -1.0737,3.254 -1.5813,3.5677 -0.5077,0.3138 -0.9231,2.1331 -0.9231,4.0429 0,2.1641 -0.5652,3.6892 -1.5,4.048 -0.9255,0.3551 -1.5,1.8751 -1.5,3.9686 0,1.8661 -0.5041,3.393 -1.1202,3.393 -0.7494,0 -0.9779,1.9664 -0.6904,5.9413 0.2363,3.2677 0.065,5.7162 -0.3798,5.441 -0.4453,-0.2752 -0.8096,3.3512 -0.8096,8.0587 v 8.559 h -2.811 c -2.5626,0 -2.9233,-0.4637 -4.0838,-5.25 z M 425.66104,62.946103 c -3.0766,-3.3 -5.789,-6 -6.0275,-6 -0.2384,0 -1.9978,-1.4625 -3.9098,-3.25 -5.5584,-5.1965 -9.9058,-8.77 -14.6277,-12.0235 -2.4222,-1.6689 -5.1889,-3.8194 -6.1482,-4.7787 -0.9593,-0.9593 -3.815,-2.9577 -6.346,-4.441 -2.531,-1.4833 -4.6018,-3.1306 -4.6018,-3.6608 0,-0.5302 -0.4784,-0.6684 -1.063,-0.3071 -0.5847,0.3614 -1.8243,-0.032 -2.7547,-0.8739 -2.0625,-1.8665 -18.8309,-9.665 -20.7819,-9.665 -0.7702,0 -1.4004,-0.444 -1.4004,-0.9866 0,-1.2639 -5.2369,-3.4461 -13.1113,-5.4634 -6.571,-1.6834001 -8.8052,-3.5592001 -8.8569,-7.4359001 -0.03,-2.2744 0.1903,-2.3553 4.7182,-1.7315 6.0538,0.8342 171.5886,0.8069 177.6888,-0.029 4.5442,-0.6228 4.5612,-0.6139 4.5612,2.3883 0,3.5384 -1.0947,4.5802 -6.5,6.1862001 -6.6025,1.9618 -13.4654,5.3192 -12.8635,6.2931 0.3103,0.5021 -0.044,0.7938 -0.7861,0.6482 -1.6955,-0.3323 -9.7057,3.7838 -18.7518,9.6357 -3.8218,2.4724 -7.3331,4.4952 -7.8029,4.4952 -0.4697,0 -2.4159,1.4937 -4.3249,3.3193 -1.9089,1.8256 -5.4958,4.6982 -7.9708,6.3836 -2.475,1.6854 -5.3572,4.0167 -6.405,5.1807 -1.0477,1.164 -2.2187,2.1164 -2.6021,2.1164 -0.3834,0 -5.15,4.5 -10.5924,10 -5.4423,5.5 -10.6265,10 -11.5204,10 -0.8938,0 -4.1424,-2.7 -7.2191,-6 z"
     id="path423" /></svg>
