<?xml version="1.0" encoding="UTF-8" standalone="no"?>
<!-- Created with Inkscape (http://www.inkscape.org/) -->

<svg
   width="152.62482mm"
   height="45.235481mm"
   viewBox="0 0 152.62482 45.235481"
   version="1.1"
   id="svg1"
   xml:space="preserve"
   xmlns="http://www.w3.org/2000/svg"
   xmlns:svg="http://www.w3.org/2000/svg"><defs
     id="defs1" /><g
     id="layer1"
     transform="translate(-160.67569,-1294.3925)"><path
       style="fill:#ffffff"
       d="m 167.86622,1338.3915 c 0.69639,-0.8731 2.01414,-2.6591 2.92834,-3.9688 0.9142,-1.3097 2.28592,-3.425 3.04825,-4.7008 0.76234,-1.2757 2.02725,-3.6788 2.81091,-5.3402 0.78367,-1.6614 1.84626,-4.2315 2.36132,-5.7112 0.51506,-1.4797 1.17438,-3.8578 1.46514,-5.2846 0.29077,-1.4268 0.52866,-3.3701 0.52866,-4.3184 0,-0.9483 -0.14192,-2.339 -0.31538,-3.0905 -0.20893,-0.9051 -0.64547,-1.7381 -1.29329,-2.4676 l -0.97791,-1.1013 h -1.94785 c -1.63442,0 -2.23437,0.1383 -3.72839,0.8434 -0.97929,0.4623 -2.34851,1.2311 -3.0427,1.7086 -0.6942,0.4774 -2.22282,1.7902 -3.39692,2.9171 -1.17411,1.127 -2.89786,2.9987 -3.83055,4.1593 -0.93269,1.1606 -1.74146,2.0646 -1.79726,2.0088 -0.0558,-0.056 0.69913,-1.3285 1.67764,-2.8282 0.97851,-1.4996 2.64604,-3.7983 3.70562,-5.1081 1.05958,-1.3098 3.04041,-3.459 4.40185,-4.776 1.36145,-1.317 3.42785,-3.0375 4.59202,-3.8233 1.16417,-0.7857 2.90188,-1.7587 3.86159,-2.1621 0.95971,-0.4034 2.40559,-0.8111 3.21306,-0.906 0.86406,-0.1016 2.01442,-0.042 2.79581,0.1459 0.80731,0.1937 1.75575,0.6849 2.41991,1.2534 0.60074,0.5142 1.37777,1.4984 1.72674,2.1871 0.34897,0.6886 0.83661,2.2496 1.08366,3.4688 0.33524,1.6545 0.40671,2.8647 0.28178,4.771 -0.0921,1.4049 -0.41162,3.7893 -0.71012,5.2989 -0.2985,1.5095 -1.07954,4.3519 -1.73566,6.3165 -0.65611,1.9645 -2.14452,5.5206 -3.30758,7.9024 -1.16306,2.3818 -2.17526,4.2699 -2.24933,4.1958 -0.0741,-0.074 0.18595,-0.8917 0.57782,-1.817 0.39187,-0.9252 1.11886,-2.8729 1.61553,-4.3281 0.49668,-1.4552 1.25572,-4.0746 1.68677,-5.8208 0.43105,-1.7463 0.96408,-4.2933 1.18452,-5.66 0.22044,-1.3668 0.35746,-2.5284 0.30447,-2.5813 -0.053,-0.053 -0.2493,0.589 -0.43626,1.4266 -0.18697,0.8377 -0.75238,2.7136 -1.25648,4.1688 -0.50409,1.4552 -1.34301,3.6579 -1.86426,4.8948 -0.52125,1.2369 -1.65174,3.6182 -2.5122,5.2917 -0.86045,1.6735 -2.43586,4.3524 -3.50089,5.9531 -1.06504,1.6007 -2.37694,3.3867 -2.91535,3.9688 -0.81682,0.8831 -0.89965,0.9269 -0.50022,0.2645 0.26329,-0.4365 1.04552,-1.7748 1.73829,-2.9739 0.69277,-1.1991 1.80322,-3.3205 2.46767,-4.7142 0.66445,-1.3937 1.51013,-3.3296 1.87929,-4.3021 0.36917,-0.9724 0.96372,-2.6566 1.32124,-3.7425 0.35752,-1.0859 0.83201,-2.6767 1.05442,-3.535 0.22242,-0.8583 0.33819,-1.6268 0.25727,-1.7077 -0.0809,-0.081 -0.14712,-10e-4 -0.14712,0.1776 0,0.1787 -0.69331,1.8413 -1.54069,3.6947 -0.84738,1.8534 -2.47946,4.9493 -3.62684,6.8797 -1.14738,1.9304 -3.10321,4.8569 -4.34629,6.5034 -1.24307,1.6464 -3.1531,3.9309 -4.24451,5.0767 -1.09141,1.1458 -2.22002,2.2618 -2.50803,2.48 -0.28801,0.2182 0.0461,-0.3177 0.74249,-1.1908 z m 62.35513,-13.3547 c -0.65485,-0.1 -1.67717,-0.3198 -2.27184,-0.4893 -0.59467,-0.1696 -1.79359,-0.7688 -2.66427,-1.3315 -0.87068,-0.5628 -2.01866,-1.5548 -2.55107,-2.2045 -0.53241,-0.6497 -1.2948,-1.8866 -1.69421,-2.7486 -0.66778,-1.4412 -0.72677,-1.8333 -0.73334,-4.8745 -0.007,-3.2165 0.0166,-3.3546 0.85924,-5.0271 0.47652,-0.9459 1.30995,-2.2036 1.85209,-2.7948 0.54213,-0.5913 1.42581,-1.4043 1.96374,-1.8066 0.53793,-0.4023 1.78808,-1.0174 2.77812,-1.3668 1.32112,-0.4662 2.36328,-0.6359 3.91674,-0.6377 1.16417,0 2.74342,0.1644 3.50944,0.3683 0.76602,0.204 1.95664,0.6951 2.64583,1.0914 0.68919,0.3963 1.81694,1.3114 2.50611,2.0335 0.68917,0.722 1.64167,2.1022 2.11667,3.0671 0.83572,1.6976 0.86362,1.8613 0.86362,5.0671 0,3.175 -0.0351,3.3869 -0.84269,5.0917 -0.46348,0.9784 -1.38776,2.3616 -2.05396,3.0739 -0.6662,0.7122 -1.89433,1.6535 -2.72918,2.0918 -0.83486,0.4383 -1.93464,0.9196 -2.44396,1.0696 -0.50932,0.1501 -1.58089,0.3257 -2.38125,0.3905 -0.80037,0.065 -1.99099,0.036 -2.64583,-0.063 z m 4.67085,-5.5163 c 0.59588,-0.304 1.41488,-0.9449 1.82,-1.4242 0.40513,-0.4793 0.97026,-1.3974 1.25587,-2.0402 0.40979,-0.9223 0.49364,-1.5638 0.39769,-3.0427 -0.0669,-1.0307 -0.32565,-2.2672 -0.57507,-2.7477 -0.24942,-0.4806 -0.93906,-1.345 -1.53255,-1.9209 -0.72611,-0.7047 -1.55685,-1.1861 -2.53978,-1.4719 -0.93217,-0.271 -1.88716,-0.3662 -2.63928,-0.2631 -0.64821,0.089 -1.77289,0.485 -2.49929,0.8804 -0.75655,0.4118 -1.63078,1.1752 -2.04658,1.7871 -0.39922,0.5876 -0.8638,1.4731 -1.0324,1.9677 -0.1686,0.4947 -0.30132,1.5067 -0.29493,2.249 0.006,0.7423 0.17103,1.7963 0.36588,2.3423 0.19485,0.546 0.6738,1.4116 1.06433,1.9237 0.39054,0.512 1.00088,1.1215 1.35632,1.3543 0.35543,0.2329 1.09164,0.5897 1.63603,0.793 0.59804,0.2232 1.62116,0.3292 2.58506,0.2677 0.91133,-0.058 2.05979,-0.3387 2.6787,-0.6545 z m 71.66144,5.478 c -0.87312,-0.09 -2.24234,-0.4175 -3.04271,-0.7272 -0.80036,-0.3096 -1.98588,-0.9862 -2.63447,-1.5035 -0.6486,-0.5173 -1.62274,-1.5308 -2.16475,-2.2521 -0.54201,-0.7214 -1.24114,-1.9949 -1.55362,-2.8301 -0.31248,-0.8351 -0.63526,-2.3189 -0.71727,-3.2972 -0.0874,-1.0425 -0.007,-2.4664 0.1938,-3.4399 0.18861,-0.9137 0.63441,-2.2467 0.99068,-2.9622 0.35626,-0.7156 1.22967,-1.9164 1.94091,-2.6684 0.71124,-0.752 1.88263,-1.6882 2.60309,-2.0803 0.72045,-0.3921 1.8826,-0.8867 2.58255,-1.0991 0.69994,-0.2123 2.16559,-0.3867 3.257,-0.3875 1.09141,-7e-4 2.46062,0.1227 3.04271,0.2742 0.58208,0.1516 1.32622,0.4092 1.65364,0.5724 0.55925,0.2789 0.59532,0.4609 0.59532,3.0048 v 2.708 l -1.52136,-0.828 c -1.32593,-0.7215 -1.77625,-0.827 -3.50573,-0.8214 -1.38762,0 -2.26286,0.1506 -2.91041,0.4857 -0.50933,0.2635 -1.3733,0.9076 -1.91994,1.4314 -0.5678,0.544 -1.22001,1.5566 -1.52135,2.362 -0.29011,0.7754 -0.52746,1.8771 -0.52746,2.4483 0,0.5711 0.24341,1.689 0.54093,2.4842 0.31295,0.8365 0.98823,1.8931 1.60227,2.5071 0.64638,0.6464 1.5871,1.236 2.4061,1.508 0.92031,0.3057 1.82287,0.4033 2.85951,0.3093 0.83311,-0.075 2.09655,-0.4119 2.80765,-0.7475 0.7111,-0.3356 1.38221,-0.6559 1.49135,-0.7119 0.10914,-0.056 0.19844,1.1049 0.19844,2.5797 v 2.6814 l -0.99219,0.4198 c -0.54571,0.2309 -1.70656,0.4928 -2.57969,0.582 -0.87312,0.089 -2.30187,0.088 -3.175,0 z m -108.69966,-0.4095 c -0.097,-0.097 -0.17638,-4.5937 -0.17638,-9.9927 v -9.8164 l -0.66146,-0.9734 c -0.36381,-0.5354 -0.66146,-1.1623 -0.66146,-1.3933 0,-0.362 0.39091,-0.4095 2.83563,-0.3447 l 2.83563,0.075 2.09456,3.0427 c 1.15201,1.6735 3.29902,4.7691 4.77114,6.8791 l 2.67658,3.8365 0.13229,-6.8792 0.13229,-6.8791 h 2.38125 2.38125 v 11.2448 11.2447 h -2.48098 -2.48098 l -4.19332,-5.9334 c -2.30633,-3.2634 -4.31528,-6.0555 -4.46434,-6.2045 -0.18495,-0.185 -0.271,1.7201 -0.271,5.9996 v 6.2706 h -2.33715 c -1.28544,0 -2.41653,-0.079 -2.51355,-0.1764 z m 49.15712,-0.1545 c -0.0698,-0.182 -0.0959,-5.2719 -0.0579,-11.3109 l 0.0691,-10.98 5.29167,0.01 5.29166,0.01 1.36229,0.7114 c 0.74926,0.3912 1.7196,1.1448 2.1563,1.6746 0.43671,0.5298 0.93992,1.4844 1.11824,2.1213 0.17833,0.6369 0.27134,1.7959 0.20669,2.5755 -0.0647,0.7795 -0.35639,1.8829 -0.64832,2.4518 -0.29193,0.569 -1.0763,1.4428 -1.74306,1.9418 l -1.21228,0.9074 0.66818,0.5255 c 0.3675,0.2891 1.05309,1.131 1.52353,1.8708 0.47043,0.7399 1.10829,2.0815 1.41745,2.9814 0.30917,0.8999 0.66762,2.309 0.79656,3.1312 0.1725,1.1 0.15088,1.5271 -0.0819,1.6164 -0.17396,0.067 -1.30387,0.086 -2.5109,0.044 l -2.1946,-0.078 -0.50459,-1.9454 c -0.27753,-1.07 -0.7904,-2.5095 -1.13973,-3.1988 -0.34932,-0.6894 -1.05695,-1.6238 -1.57251,-2.0764 -0.51556,-0.4527 -1.34891,-0.9003 -1.85191,-0.9946 -0.50299,-0.094 -1.04132,-0.093 -1.19628,0 -0.1796,0.1109 -0.28175,1.6553 -0.28175,4.2595 v 4.0854 h -2.38955 c -1.66822,0 -2.42789,-0.1 -2.51653,-0.3309 z m 8.84339,-12.9269 c 0.47057,-0.1641 1.01261,-0.6246 1.2301,-1.0452 0.21386,-0.4136 0.38884,-0.9904 0.38884,-1.2818 0,-0.2914 -0.13219,-0.82 -0.29376,-1.1746 -0.16157,-0.3546 -0.58389,-0.7769 -0.93849,-0.9385 -0.3546,-0.1615 -1.47257,-0.2937 -2.48437,-0.2937 h -1.83963 v 2.3371 c 0,1.2855 0.0794,2.4166 0.17639,2.5136 0.097,0.097 0.79362,0.1764 1.54802,0.1764 0.75439,0 1.7502,-0.132 2.2129,-0.2933 z m 16.02213,12.7948 c -0.11302,-0.2546 -2.01392,-5.285 -4.22421,-11.1786 -2.21029,-5.8936 -3.96899,-10.805 -3.90823,-10.9141 0.0608,-0.1091 1.23036,-0.1984 2.5991,-0.1984 2.24105,0 2.5176,0.054 2.77997,0.5444 0.16025,0.2994 1.41513,3.901 2.78863,8.0036 1.37349,4.1026 2.56955,7.6379 2.65791,7.8561 0.0883,0.2183 1.42727,-3.3536 2.97537,-7.9375 l 2.81473,-8.3343 2.71198,-0.075 c 1.49159,-0.042 2.71198,-0.014 2.71198,0.061 0,0.075 -1.79836,4.9903 -3.99636,10.9233 -2.198,5.933 -4.10719,10.9957 -4.24264,11.2503 -0.20904,0.393 -0.6407,0.463 -2.8545,0.463 -2.22934,0 -2.63807,-0.067 -2.81373,-0.463 z m 16.14489,0.1321 c -0.0698,-0.182 -0.0959,-5.2719 -0.0578,-11.3109 l 0.0691,-10.98 h 2.38125 2.38125 l 0.069,11.3109 0.069,11.3109 h -2.3924 c -1.67048,0 -2.43071,-0.1 -2.51937,-0.3309 z"
       id="path20" /></g></svg>
