<?xml version="1.0" encoding="UTF-8" standalone="no"?>
<!-- Created with Inkscape (http://www.inkscape.org/) -->

<svg
   width="353.90277mm"
   height="88.050957mm"
   viewBox="0 0 353.90277 88.050957"
   version="1.1"
   id="svg1"
   xml:space="preserve"
   xmlns="http://www.w3.org/2000/svg"
   xmlns:svg="http://www.w3.org/2000/svg"><defs
     id="defs1" /><g
     id="layer1"
     transform="translate(-448.58629,-1300.8382)"><path
       style="fill:#ffffff"
       d="m 503.00543,1388.5119 c -0.74854,-0.2013 -1.66069,-0.7112 -2.21615,-1.2389 -0.5192,-0.4933 -1.1967,-1.4327 -1.50555,-2.0875 -0.51243,-1.0865 -0.56924,-1.7288 -0.64944,-7.3422 l -0.0879,-6.1516 h 1.34423 1.34423 l 0.0456,1.786 c 0.0251,0.9822 0.0115,3.16 -0.0302,4.8395 -0.0417,1.6795 0.0616,3.7156 0.22951,4.5247 0.21084,1.0156 0.55532,1.7266 1.11265,2.2967 0.44936,0.4596 1.2137,0.9019 1.724,0.9977 0.5042,0.094 1.33939,0.1033 1.85598,0.019 0.51658,-0.084 1.22182,-0.3376 1.5672,-0.5639 0.34539,-0.2263 0.83881,-0.7973 1.0965,-1.2688 0.40017,-0.7323 0.48083,-1.7163 0.55286,-6.7444 l 0.0843,-5.887 h 1.32605 1.32604 l -0.0879,6.1516 c -0.0795,5.5646 -0.14044,6.2651 -0.63865,7.3422 -0.30291,0.6548 -0.98565,1.5724 -1.5172,2.0391 -0.53154,0.4667 -1.58504,1.0323 -2.34111,1.2568 -0.75607,0.2245 -1.79954,0.4002 -2.31883,0.3904 -0.51929,-0.01 -1.51664,-0.1718 -2.21632,-0.3599 z m 19.13153,-0.088 -1.71979,-0.4606 -0.0793,-1.6725 -0.0793,-1.6725 1.19126,0.6981 c 0.71197,0.4173 1.77795,0.7587 2.64944,0.8487 0.91565,0.094 1.76169,0.025 2.27392,-0.1874 0.44865,-0.1859 0.99626,-0.687 1.2169,-1.1137 0.24839,-0.4803 0.337,-1.068 0.23266,-1.5431 -0.0927,-0.422 -0.52074,-1.0636 -0.95123,-1.4259 -0.43048,-0.3622 -1.61349,-1.0951 -2.62891,-1.6287 -1.01543,-0.5336 -2.19726,-1.37 -2.6263,-1.8586 -0.42905,-0.4887 -0.91354,-1.3841 -1.07664,-1.9899 -0.24383,-0.9055 -0.21808,-1.3068 0.14477,-2.2569 0.24274,-0.6356 0.81767,-1.4403 1.27762,-1.7882 0.45995,-0.3479 1.37206,-0.7753 2.0269,-0.9498 0.68987,-0.1839 1.78305,-0.2478 2.59921,-0.1521 0.77472,0.091 1.81652,0.3357 2.3151,0.544 0.85835,0.3586 0.90652,0.448 0.90652,1.682 v 1.3032 l -1.10949,-0.5489 c -0.61023,-0.3019 -1.77252,-0.5969 -2.58288,-0.6555 -1.15662,-0.084 -1.59825,0 -2.05422,0.3837 -0.31946,0.2696 -0.65218,0.793 -0.73937,1.1631 -0.10994,0.4667 0.0165,0.8955 0.41247,1.3989 0.31405,0.3992 1.24352,1.0675 2.06548,1.485 0.82196,0.4175 1.99725,1.1259 2.61176,1.5742 0.61452,0.4483 1.35866,1.2882 1.65365,1.8664 0.30221,0.5924 0.53635,1.5682 0.53635,2.2353 0,0.6512 -0.12699,1.5191 -0.2822,1.9288 -0.15522,0.4096 -0.54217,1.0243 -0.8599,1.3658 -0.31773,0.3416 -1.04532,0.8609 -1.61687,1.1539 -0.57155,0.293 -1.70264,0.578 -2.51354,0.6333 -0.88107,0.06 -2.16642,-0.085 -3.19415,-0.3601 z m 73.68646,0.2092 c -0.58209,-0.1259 -1.38576,-0.3549 -1.78594,-0.509 -0.67931,-0.2614 -0.7276,-0.3831 -0.7276,-1.8331 v -1.5532 l 1.49249,0.7529 c 0.96449,0.4865 1.90352,0.7528 2.65433,0.7528 0.63901,0 1.56515,-0.1685 2.05809,-0.3745 0.49293,-0.2059 1.02489,-0.6148 1.18212,-0.9086 0.15724,-0.2938 0.28588,-0.8305 0.28588,-1.1928 0,-0.3622 -0.28358,-0.9951 -0.63017,-1.4064 -0.3466,-0.4114 -1.62652,-1.3035 -2.84427,-1.9826 -1.21776,-0.679 -2.55106,-1.5885 -2.96291,-2.021 -0.41184,-0.4324 -0.85368,-1.2461 -0.98188,-1.808 -0.14228,-0.6237 -0.13131,-1.4035 0.0282,-2.0019 0.14368,-0.5391 0.56607,-1.3424 0.93864,-1.7852 0.45179,-0.5369 1.16783,-0.9476 2.14989,-1.2331 0.94855,-0.2758 1.89566,-0.3701 2.66178,-0.2651 0.65412,0.09 1.64807,0.2866 2.20878,0.4376 l 1.01948,0.2745 v 1.2873 1.2873 l -1.32575,-0.5038 c -0.72917,-0.277 -1.89904,-0.5037 -2.59972,-0.5037 -0.98955,0 -1.40238,0.1367 -1.84924,0.6124 -0.31641,0.3368 -0.57529,0.9375 -0.57529,1.3349 0,0.4077 0.27367,0.9962 0.62804,1.3506 0.34543,0.3454 1.26816,0.9514 2.05052,1.3465 0.78237,0.3951 1.91673,1.0572 2.5208,1.4713 0.67166,0.4604 1.3275,1.2263 1.6883,1.9716 0.47503,0.9813 0.56081,1.5015 0.44024,2.6698 -0.10246,0.9927 -0.36896,1.7384 -0.84374,2.3608 -0.38169,0.5005 -1.16187,1.1486 -1.73373,1.4403 -0.57186,0.2918 -1.72582,0.5822 -2.56436,0.6454 -0.83854,0.063 -2.00086,0.012 -2.58294,-0.114 z m 17.33021,-0.2092 -1.7198,-0.4606 -0.0795,-1.6812 -0.0795,-1.6811 0.74095,0.5162 c 0.40752,0.2839 1.14566,0.6535 1.64032,0.8212 0.49466,0.1678 1.34009,0.3051 1.87875,0.3051 0.53865,0 1.35794,-0.132 1.82064,-0.2933 0.484,-0.1687 1.01352,-0.6263 1.24688,-1.0776 0.2522,-0.4877 0.34188,-1.0746 0.2371,-1.5517 -0.0927,-0.422 -0.52074,-1.0636 -0.95123,-1.4259 -0.43048,-0.3622 -1.61843,-1.0977 -2.63989,-1.6345 -1.02146,-0.5368 -2.25602,-1.4418 -2.74346,-2.0113 -0.48744,-0.5695 -0.95895,-1.4229 -1.0478,-1.8965 -0.0888,-0.4736 -0.0882,-1.2279 10e-4,-1.6763 0.0897,-0.4483 0.51552,-1.2427 0.94635,-1.7654 0.57335,-0.6956 1.17952,-1.0655 2.26139,-1.38 0.95349,-0.2772 1.90015,-0.3718 2.66736,-0.2667 0.65411,0.09 1.64806,0.2866 2.20878,0.4376 l 1.01948,0.2745 v 1.3127 c 0,0.722 -0.0412,1.3127 -0.0916,1.3127 -0.0504,0 -0.49689,-0.2025 -0.99219,-0.4501 -0.4953,-0.2476 -1.57686,-0.4995 -2.40346,-0.5597 -1.33809,-0.097 -1.57748,-0.035 -2.18281,0.5705 -0.37395,0.3739 -0.67611,0.9532 -0.67149,1.2872 0.005,0.334 0.15671,0.8022 0.33796,1.0404 0.18125,0.2381 1.33832,1.0313 2.57127,1.7626 1.23296,0.7314 2.61456,1.7271 3.07025,2.2129 0.45568,0.4857 0.97387,1.3385 1.15154,1.8951 0.18955,0.5939 0.25169,1.4878 0.15037,2.1635 -0.095,0.6332 -0.43917,1.547 -0.76491,2.0306 -0.32573,0.4836 -1.09879,1.159 -1.71791,1.5008 -0.68858,0.3801 -1.71195,0.6617 -2.63559,0.7252 -0.92034,0.063 -2.18147,-0.076 -3.22972,-0.3569 z m 30.29479,0.2855 c -0.29104,-0.065 -1.07267,-0.2918 -1.73695,-0.5035 -0.78653,-0.2506 -1.68545,-0.8601 -2.57731,-1.7472 -0.91923,-0.9145 -1.55084,-1.8471 -1.92102,-2.8365 -0.30334,-0.8107 -0.61854,-2.0399 -0.70045,-2.7315 -0.0819,-0.6917 0.004,-1.9771 0.1904,-2.8566 0.18663,-0.8794 0.70912,-2.2117 1.16108,-2.9605 0.52852,-0.8756 1.35426,-1.7233 2.31405,-2.3754 0.98451,-0.669 2.01426,-1.1105 3.02624,-1.2976 0.84366,-0.1559 2.07713,-0.2031 2.74103,-0.1049 0.6639,0.098 1.77264,0.4208 2.46387,0.7167 l 1.25677,0.5379 v 1.5854 1.5853 l -0.72761,-0.4788 c -0.40018,-0.2633 -1.05135,-0.6411 -1.44705,-0.8395 -0.3957,-0.1983 -1.13325,-0.4278 -1.63899,-0.5099 -0.50575,-0.082 -1.44626,-0.07 -2.09004,0.026 -0.79912,0.1199 -1.52874,0.4822 -2.29956,1.142 -0.62098,0.5315 -1.34839,1.4493 -1.61647,2.0395 -0.32505,0.7157 -0.48729,1.69 -0.48704,2.9252 3e-4,1.5185 0.13029,2.0887 0.72179,3.1659 0.48802,0.8888 1.12789,1.5644 1.97774,2.0883 0.98598,0.6079 1.56659,0.7745 2.69822,0.7745 0.79305,0 1.83505,-0.1551 2.31556,-0.3447 0.48051,-0.1895 1.26061,-0.6293 1.73355,-0.9773 l 0.8599,-0.6326 v 1.6931 1.693 l -0.99219,0.4333 c -0.5457,0.2383 -1.52797,0.5511 -2.18281,0.6952 -0.65485,0.144 -1.48828,0.251 -1.85209,0.2377 -0.3638,-0.013 -0.89958,-0.078 -1.19062,-0.1428 z m 19.90578,-0.108 c -0.54796,-0.129 -1.44628,-0.4642 -1.99626,-0.7448 -0.54999,-0.2806 -1.48456,-1.0359 -2.07684,-1.6784 -0.5971,-0.6478 -1.33984,-1.866 -1.66713,-2.7343 -0.48858,-1.2962 -0.57144,-1.9535 -0.48095,-3.815 0.0733,-1.5069 0.29004,-2.6525 0.65703,-3.472 0.30124,-0.6726 0.98849,-1.7109 1.52723,-2.3072 0.53873,-0.5963 1.65279,-1.4136 2.47568,-1.8162 1.23015,-0.6019 1.8495,-0.732 3.48358,-0.732 1.63861,0 2.25253,0.1297 3.49785,0.739 0.85208,0.4169 1.97197,1.2633 2.56934,1.942 0.5824,0.6616 1.31333,1.8753 1.62427,2.6971 0.46783,1.2364 0.54373,1.882 0.44001,3.7431 -0.0689,1.2369 -0.32189,2.716 -0.56214,3.2869 -0.24024,0.5708 -0.85102,1.5434 -1.35729,2.1612 -0.50627,0.6179 -1.3402,1.3828 -1.85316,1.6998 -0.51297,0.317 -1.55474,0.742 -2.31504,0.9444 -0.76031,0.2024 -1.73957,0.3575 -2.17613,0.3446 -0.43656,-0.013 -1.24208,-0.1291 -1.79005,-0.2582 z m 4.69877,-3.3469 c 0.66376,-0.4596 1.33203,-1.2705 1.78764,-2.1689 0.56263,-1.1096 0.7276,-1.8091 0.7276,-3.0853 0,-1.0213 -0.18765,-2.0882 -0.49228,-2.7989 -0.27076,-0.6316 -0.97803,-1.5873 -1.57172,-2.1236 -0.61845,-0.5588 -1.4888,-1.052 -2.03801,-1.1551 -0.52723,-0.099 -1.43581,-0.1158 -2.01908,-0.038 -0.58328,0.078 -1.52651,0.4507 -2.09607,0.8276 -0.64461,0.4266 -1.30487,1.2093 -1.74888,2.0732 -0.56875,1.1065 -0.7157,1.7632 -0.72506,3.2399 -0.009,1.4003 0.12599,2.1102 0.55295,2.9104 0.31058,0.5821 0.90301,1.3792 1.31652,1.7713 0.41351,0.3922 1.16856,0.9005 1.67788,1.1297 0.62059,0.2792 1.36184,0.3729 2.24726,0.284 0.84889,-0.085 1.70017,-0.395 2.38125,-0.8667 z m 17.86361,3.2875 c -0.84493,-0.2019 -1.54547,-0.6412 -2.42541,-1.5212 -0.68857,-0.6885 -1.3813,-1.6927 -1.56197,-2.2641 -0.19869,-0.6284 -0.37095,-3.3621 -0.44399,-7.046 l -0.11934,-6.0193 h 1.34804 c 0.74143,0 1.35676,0.03 1.3674,0.066 0.0106,0.036 0.081,2.6855 0.15624,5.8869 0.11195,4.7605 0.21688,5.9604 0.57596,6.587 0.24149,0.4213 0.75763,1.0035 1.14697,1.2937 0.3942,0.2938 1.27355,0.5763 1.98438,0.6376 0.8895,0.077 1.55601,-0.035 2.19853,-0.3677 0.5115,-0.265 1.18696,-0.9489 1.517,-1.536 0.56576,-1.0064 0.59516,-1.3406 0.5993,-6.813 l 0.004,-5.7547 h 1.34424 1.34423 l -0.0918,6.1516 c -0.0868,5.816 -0.12554,6.2199 -0.71045,7.4052 -0.34026,0.6895 -1.02124,1.6071 -1.51329,2.0392 -0.49205,0.432 -1.51323,0.9692 -2.2693,1.1937 -0.75607,0.2245 -1.79954,0.3939 -2.31884,0.3765 -0.51929,-0.017 -1.4788,-0.1595 -2.13225,-0.3156 z m 31.1742,0.1147 c -0.0485,-0.1279 -2.40795,-2.6283 -5.24321,-5.5563 -2.83526,-2.9279 -5.24628,-5.3236 -5.35782,-5.3236 -0.11153,0 -0.20279,2.3813 -0.20279,5.2917 v 5.2917 h -1.32292 -1.32291 v -8.4667 c 0,-4.6567 0.0982,-8.4667 0.21821,-8.4667 0.12002,0 2.57444,2.4408 5.45428,5.424 2.87984,2.9832 5.34148,5.4239 5.47033,5.4239 0.12884,0 0.23426,-2.3812 0.23426,-5.2916 v -5.2917 h 1.19063 1.19062 v 8.599 c 0,4.7294 -0.0496,8.5989 -0.11024,8.5989 -0.0606,0 -0.14993,-0.1047 -0.19844,-0.2326 z m 15.31968,-0.04 c -0.54797,-0.1376 -1.44094,-0.4797 -1.98438,-0.7602 -0.54344,-0.2805 -1.42194,-0.9666 -1.95221,-1.5246 -0.53028,-0.5581 -1.19872,-1.4909 -1.48544,-2.073 -0.28671,-0.5821 -0.66795,-1.6815 -0.8472,-2.4432 -0.19711,-0.8377 -0.25364,-1.9355 -0.14304,-2.7782 0.10058,-0.7662 0.48532,-2.0775 0.85498,-2.9138 0.3977,-0.8999 1.15164,-1.9627 1.84658,-2.6033 0.64596,-0.5954 1.68104,-1.3067 2.30019,-1.5806 0.61915,-0.2738 1.78146,-0.575 2.58292,-0.6692 1.02325,-0.1202 1.92313,-0.038 3.0218,0.2777 0.86052,0.2469 1.83248,0.6209 2.15991,0.8312 0.50917,0.3269 0.59531,0.6129 0.59531,1.9761 v 1.5939 l -0.99219,-0.7735 c -0.5457,-0.4255 -1.39691,-0.9073 -1.89156,-1.0708 -0.49466,-0.1635 -1.39217,-0.2973 -1.99446,-0.2973 -0.61059,0 -1.6157,0.2634 -2.27182,0.5953 -0.64721,0.3274 -1.55645,1.0988 -2.02053,1.7143 -0.49469,0.656 -0.96575,1.7064 -1.13856,2.5388 -0.21439,1.0327 -0.21599,1.7714 -0.006,2.709 0.15889,0.709 0.53199,1.6824 0.8291,2.1632 0.29712,0.4807 0.91588,1.1602 1.37503,1.5099 0.45915,0.3498 1.38988,0.7754 2.0683,0.946 1.01209,0.2543 1.48696,0.2362 2.64583,-0.101 0.77679,-0.226 1.81708,-0.7098 2.31174,-1.0751 0.49466,-0.3652 0.98647,-0.6103 1.09292,-0.5445 0.10645,0.066 0.16284,0.7395 0.12532,1.497 -0.0519,1.0483 -0.20751,1.4903 -0.65107,1.8494 -0.32057,0.2596 -1.01982,0.5959 -1.55387,0.7473 -0.53406,0.1515 -1.62586,0.3281 -2.42623,0.3924 -0.80036,0.064 -1.90354,0 -2.4515,-0.1332 z m -172.1735,-5.4205 c -2.83766,-2.9763 -5.24616,-5.4133 -5.35222,-5.4155 -0.10607,0 -0.22513,2.3474 -0.26458,5.2215 l -0.0717,5.2255 -1.25677,0.081 -1.25678,0.081 v -8.4812 c 0,-4.6646 0.0596,-8.4812 0.13255,-8.4812 0.0729,0 2.56913,2.4706 5.54718,5.4901 l 5.41464,5.4901 0.009,-5.3578 0.009,-5.3578 h 1.32292 1.32292 v 8.4667 c 0,4.6566 -0.0893,8.4629 -0.19844,8.4582 -0.10914,0 -2.52016,-2.4436 -5.35781,-5.4199 z m -80.9625,-3.14 v -8.365 h 3.37343 c 2.98155,0 3.5284,0.075 4.70736,0.6237 0.73365,0.3417 1.52171,0.9078 1.75124,1.2581 0.22952,0.3503 0.50183,1.0217 0.60513,1.492 0.10546,0.4802 0.0549,1.2578 -0.11525,1.7734 -0.16669,0.5051 -0.63636,1.1901 -1.04371,1.5223 -0.40736,0.3322 -0.96314,0.7348 -1.23508,0.8948 -0.44062,0.2592 -0.36014,0.3503 0.73952,0.8367 0.7919,0.3503 1.38286,0.8338 1.64961,1.3497 0.22862,0.4421 0.41566,1.4469 0.41566,2.233 0,1.0398 -0.16229,1.6741 -0.59569,2.3282 -0.33726,0.509 -1.16946,1.1835 -1.91823,1.5546 -1.16071,0.5754 -1.7515,0.6681 -4.82826,0.7583 l -3.50573,0.1027 z m 5.95312,5.9301 c 0.58495,-0.1351 1.32461,-0.5531 1.65365,-0.9345 0.33114,-0.3839 0.59531,-1.0416 0.59531,-1.4822 0,-0.4357 -0.17498,-1.1305 -0.38884,-1.5441 -0.21749,-0.4206 -0.75953,-0.8811 -1.2301,-1.0452 -0.4627,-0.1613 -1.53788,-0.2933 -2.38929,-0.2933 h -1.54802 v 2.6018 c 0,1.4309 0.0794,2.6811 0.17639,2.7781 0.097,0.097 0.60303,0.1736 1.12448,0.1701 0.52145,0 1.42434,-0.1163 2.00642,-0.2507 z m -0.7479,-7.3977 c 0.49647,-0.011 1.17228,-0.2982 1.65364,-0.7032 0.60885,-0.5123 0.81405,-0.907 0.81405,-1.5659 0,-0.4844 -0.074,-1.0736 -0.16435,-1.3091 -0.0904,-0.2356 -0.5012,-0.6025 -0.9129,-0.8154 -0.41496,-0.2146 -1.46187,-0.3871 -2.34919,-0.3871 h -1.60064 v 2.3371 c 0,1.2855 0.0701,2.4073 0.15583,2.493 0.0857,0.086 0.47266,0.1138 0.85989,0.062 0.38724,-0.051 1.08189,-0.1017 1.54367,-0.1117 z m 55.06103,9.3083 c -0.0663,-0.2546 -0.13053,-4.0051 -0.14283,-8.3343 l -0.0224,-7.8714 h 1.3026 1.30261 v 8.3344 8.3344 h -1.15977 c -0.88226,0 -1.18859,-0.1108 -1.28023,-0.4631 z m 35.7775,-7.8713 v -8.3344 h 4.91 4.91001 l -0.0814,1.1245 -0.0814,1.1245 -3.43958,0.1323 -3.43959,0.1323 v 2.1166 2.1167 l 2.97657,0.075 2.97656,0.075 v 1.182 1.1819 h -3.04271 -3.04271 v 2.3619 c 0,2.0323 0.0646,2.3767 0.46302,2.4686 0.25466,0.059 1.86201,0.05 3.57188,-0.02 l 3.10885,-0.1262 v 1.3618 1.3619 h -4.89479 -4.89479 z m 172.62829,8.0007 c -0.0704,-0.1834 -0.0964,-3.9042 -0.0578,-8.2682 l 0.0702,-7.9346 1.25677,-0.081 1.25677,-0.081 v 8.3489 8.3489 h -1.19893 c -0.72061,0 -1.25,-0.1331 -1.32695,-0.3337 z m 12.75643,0.1573 c -0.097,-0.097 -0.17638,-3.8475 -0.17638,-8.3344 v -8.158 h 1.32291 1.32292 v 7.0115 7.0114 h 3.70417 3.70416 v 1.3229 1.323 h -4.85069 c -2.66788,0 -4.93007,-0.079 -5.02709,-0.1764 z m -292.35292,-32.7617 c -1.27902,-0.2094 -3.33418,-0.7284 -4.56703,-1.1533 -1.23285,-0.425 -2.91054,-1.1733 -3.72821,-1.663 -0.81766,-0.4898 -2.07167,-1.4121 -2.78667,-2.0498 -0.71501,-0.6376 -1.83848,-1.9139 -2.49661,-2.8362 -0.65814,-0.9223 -1.60434,-2.6881 -2.10268,-3.9239 -0.49833,-1.2359 -1.10272,-3.2338 -1.34308,-4.4398 -0.36922,-1.8527 -0.45187,-4.6345 -0.53285,-17.9355 -0.0527,-8.6585 -0.15972,-16.127 -0.23778,-16.5966 -0.0781,-0.4696 -0.55299,-1.3923 -1.05538,-2.0505 l -0.91344,-1.1967 h 5.95138 5.95138 l 0.004,17.2641 c 0.003,14.3639 0.0702,17.5451 0.39836,18.9372 0.21694,0.9203 0.6881,2.2939 1.04701,3.0526 0.35891,0.7587 1.06963,1.8666 1.57938,2.4622 0.50975,0.5955 1.52534,1.4668 2.25686,1.9362 0.73153,0.4695 2.07397,1.0958 2.9832,1.3919 1.23054,0.4008 2.39718,0.5436 4.56357,0.5585 2.39004,0.016 3.26032,-0.094 4.86738,-0.6154 1.07633,-0.3495 2.52777,-1.0643 3.22542,-1.5885 0.69766,-0.5242 1.64475,-1.4249 2.10465,-2.0015 0.4599,-0.5766 1.10834,-1.5841 1.44098,-2.2389 0.33265,-0.6549 0.7629,-1.6669 0.95612,-2.249 0.27202,-0.8194 0.38329,-5.0895 0.49297,-18.9177 l 0.14165,-17.8594 4.71519,-0.072 4.71518,-0.072 -0.10876,17.7994 c -0.0935,15.3019 -0.16963,18.0593 -0.54258,19.6515 -0.23861,1.0186 -0.74867,2.7226 -1.13347,3.7865 -0.38481,1.064 -1.26185,2.7904 -1.94898,3.8365 -0.68713,1.0461 -1.89431,2.5071 -2.68261,3.2467 -0.7883,0.7396 -2.08659,1.778 -2.88508,2.3076 -0.79849,0.5296 -2.21845,1.274 -3.15545,1.6543 -0.937,0.3803 -2.72294,0.9174 -3.96875,1.1936 -1.24581,0.2761 -3.75339,0.5606 -5.5724,0.6322 -2.2118,0.087 -4.07757,0 -5.63278,-0.2507 z m 179.7404,-10.521 c -5.59607,-5.711 -13.15654,-13.4318 -16.80104,-17.1574 -3.6445,-3.7256 -6.71567,-6.7915 -6.82481,-6.813 -0.10914,-0.022 -0.19843,7.4021 -0.19843,16.4972 v 16.5364 h -4.3669 -4.3669 l 0.0674,-26.5244 0.0674,-26.5245 0.53123,-0.076 c 0.39349,-0.056 3.07037,2.4819 10.32407,9.7896 5.38607,5.4262 13.03491,13.1777 16.99742,17.2256 l 7.20457,7.36 v -16.8188 -16.8188 h 4.49918 4.49917 l -0.0674,26.7891 -0.0674,26.7891 -0.66146,0.065 c -0.55409,0.054 -2.31303,-1.6206 -10.83613,-10.3187 z M 513.61075,1329.424 c -0.0598,-20.1609 -0.13735,-24.6581 -0.43476,-25.2015 -0.19911,-0.3638 -0.78882,-1.108 -1.31047,-1.6537 l -0.94846,-0.9922 h 6.13658 6.13657 l 0.0687,12.6339 c 0.0378,6.9486 0.0368,18.7358 -0.002,26.1937 l -0.0709,13.5599 h -4.75115 -4.75116 z m 32.69704,21.9604 c -1.28643,-1.4188 -3.12408,-3.4131 -4.08368,-4.4317 -0.9596,-1.0187 -4.53232,-4.826 -7.93938,-8.4608 -3.40706,-3.6348 -6.96869,-7.4448 -7.91475,-8.4667 -0.94606,-1.0219 -1.93724,-2.1153 -2.20262,-2.4298 l -0.48251,-0.5719 1.93803,-2.0984 c 1.06592,-1.1542 4.85068,-5.1831 8.41058,-8.9531 3.5599,-3.7701 8.06926,-8.5514 10.02079,-10.6251 l 3.54824,-3.7703 h 5.78807 c 3.18343,0 5.78806,0.08 5.78806,0.1773 0,0.098 -0.80198,1.0202 -1.78219,2.0505 -0.98021,1.0303 -6.1892,6.442 -11.57552,12.026 -5.38633,5.5841 -9.79333,10.302 -9.79333,10.4844 0,0.1824 2.37555,2.817 5.27901,5.8546 2.90345,3.0376 8.14685,8.4994 11.652,12.1374 3.50514,3.6381 7.01069,7.2992 7.7901,8.136 l 1.41711,1.5213 h -6.75953 -6.75953 z m 42.17387,1.5875 c -0.0734,-0.5457 -0.0991,-12.1245 -0.0571,-25.7307 0.0419,-13.6062 0.0867,-24.9469 0.0995,-25.2015 0.0212,-0.4219 0.42277,-0.4631 4.52123,-0.4631 h 4.49792 v 26.1938 26.1937 h -4.4641 -4.4641 z m 87.11363,-25.183 v -26.2123 l 8.13594,0.01 c 5.5097,0 9.0327,0.1262 10.91406,0.3801 1.52797,0.2062 3.61157,0.5689 4.63021,0.8059 1.01865,0.237 2.91935,0.8561 4.22378,1.3757 1.30443,0.5196 3.19378,1.4345 4.19856,2.0332 1.00478,0.5986 2.73548,1.8744 3.84601,2.835 1.11054,0.9606 2.69025,2.687 3.51048,3.8365 0.82023,1.1494 1.86094,2.8285 2.31269,3.7312 0.45175,0.9027 1.11284,2.6471 1.46908,3.8765 0.35624,1.2293 0.77954,3.4331 0.94066,4.8973 0.2175,1.9766 0.21415,3.3973 -0.013,5.5163 -0.16827,1.5697 -0.59157,3.8418 -0.94066,5.0491 -0.34909,1.2074 -1.00484,2.9338 -1.45724,3.8365 -0.45239,0.9027 -1.32942,2.3562 -1.94895,3.23 -0.61953,0.8737 -2.01698,2.4346 -3.10544,3.4685 -1.08846,1.0339 -2.97751,2.4944 -4.19789,3.2454 -1.22038,0.751 -3.16482,1.7303 -4.32097,2.1761 -1.15616,0.4459 -3.12173,1.0576 -4.36793,1.3593 -2.05464,0.4974 -3.2708,0.5587 -13.0476,0.6576 l -10.78178,0.1091 z m 19.57917,17.6978 c 0.94589,-0.1492 2.4937,-0.5191 3.43958,-0.8219 0.94589,-0.3028 2.47798,-0.9673 3.40465,-1.4768 0.92667,-0.5095 2.53401,-1.7337 3.57187,-2.7206 1.19816,-1.1392 2.29528,-2.5131 3.00535,-3.7635 0.68916,-1.2135 1.32304,-2.8232 1.65179,-4.1946 0.29341,-1.224 0.5343,-3.1376 0.53532,-4.2526 0.001,-1.115 -0.16841,-2.9172 -0.37651,-4.0048 -0.2081,-1.0876 -0.80455,-2.8399 -1.32544,-3.8939 -0.5209,-1.054 -1.38054,-2.5068 -1.91031,-3.2285 -0.52978,-0.7217 -1.6895,-1.9168 -2.57716,-2.6558 -0.88766,-0.739 -2.44737,-1.7386 -3.46601,-2.2213 -1.01865,-0.4828 -2.80459,-1.1343 -3.96875,-1.4478 -1.80069,-0.4849 -2.88688,-0.5744 -7.27605,-0.5995 l -5.15937,-0.029 -0.0685,17.4625 c -0.0377,9.6044 -0.0117,17.6113 0.0578,17.7932 0.094,0.246 1.2302,0.3302 4.43416,0.3287 2.36928,0 5.08169,-0.1241 6.02757,-0.2733 z m 37.30625,-17.7163 v -26.1938 h 4.49792 4.49792 v 26.1938 26.1937 h -4.49792 -4.49792 z m 19.4296,24.8047 c 0.33828,-0.764 2.13161,-4.4847 3.98518,-8.2683 1.85357,-3.7835 5.06888,-10.3915 7.14513,-14.6843 2.07626,-4.2929 5.10664,-10.5437 6.73419,-13.8907 1.62754,-3.3469 3.92583,-8.0811 5.1073,-10.5203 1.18148,-2.4392 2.22866,-4.3442 2.32709,-4.2333 0.0984,0.1108 1.08047,2.1661 2.18232,4.5672 1.10185,2.4011 4.19659,9.009 6.8772,14.6844 2.6806,5.6753 6.166,13.0571 7.74532,16.4041 1.57932,3.347 4.13228,8.6155 5.67325,11.7078 l 2.80176,5.6224 h -5.07028 -5.07028 l -1.92629,-4.2994 c -1.05946,-2.3648 -2.04273,-4.4484 -2.18504,-4.6303 -0.19987,-0.2554 -2.85906,-0.3307 -11.68842,-0.3307 h -11.42968 l -1.70095,3.7358 c -0.93551,2.0547 -1.86592,4.1383 -2.06757,4.6303 l -0.36663,0.8943 h -4.84433 -4.84433 z m 32.74782,-15.4224 c 0.0785,-0.078 -0.78145,-2.3109 -1.91097,-4.961 -1.12952,-2.65 -2.88945,-6.7196 -3.91096,-9.0435 -1.02151,-2.3239 -1.96253,-4.2604 -2.09116,-4.3033 -0.12863,-0.043 -2.04448,3.9181 -4.25743,8.8021 -2.21296,4.884 -4.02356,9.0529 -4.02356,9.2642 0,0.3274 1.18594,0.3842 8.02569,0.3842 4.41413,0 8.08991,-0.064 8.16839,-0.1427 z"
       id="path23" /></g></svg>
