<?xml version="1.0" encoding="UTF-8" standalone="no"?>
<!-- Created with Inkscape (http://www.inkscape.org/) -->

<svg
   width="282.72858mm"
   height="53.080288mm"
   viewBox="0 0 282.72858 53.080288"
   version="1.1"
   id="svg1"
   xml:space="preserve"
   xmlns="http://www.w3.org/2000/svg"
   xmlns:svg="http://www.w3.org/2000/svg"><defs
     id="defs1" /><g
     id="layer1"
     transform="translate(-84.793212,-994.35521)"><path
       style="fill:#ffffff"
       d="m 100.71632,1047.0599 c -0.58208,-0.2715 -1.605278,-1.0814 -2.273768,-1.7998 -0.66849,-0.7184 -1.91183,-2.4894 -2.76298,-3.9356 -0.85115,-1.4463 -2.43196,-4.5371 -3.51291,-6.8686 -1.08095,-2.3315 -3.15557,-7.0965 -4.61026,-10.589 -1.4547,-3.4925 -2.69674,-6.482 -2.76009,-6.6434 -0.0642,-0.1633 0.87852,-0.7202 2.12746,-1.2567 1.23347,-0.5299 2.35618,-0.9635 2.49492,-0.9635 0.13874,0 0.49473,0.5656 0.79108,1.2568 0.29636,0.6912 1.54923,3.6976 2.78416,6.6807 1.23493,2.9832 3.01185,7.0909 3.9487,9.1282 0.93686,2.0373 2.20876,4.5971 2.82646,5.6885 0.617688,1.0914 1.429918,2.3883 1.804938,2.8819 0.65323,0.8599 0.69811,0.8765 1.06921,0.3969 0.21305,-0.2754 0.95441,-1.6913 1.64746,-3.1465 0.69305,-1.4552 2.40291,-5.4138 3.79969,-8.7968 1.39678,-3.383 3.19621,-7.4907 3.99873,-9.1281 0.80252,-1.6375 2.08429,-3.8078 2.84837,-4.8231 0.78605,-1.0444 1.84876,-2.1051 2.44758,-2.443 0.63608,-0.3589 1.51119,-0.5989 2.19336,-0.6015 0.62426,0 1.58641,0.2259 2.13812,0.5074 0.5517,0.2814 1.30417,0.9065 1.67214,1.389 0.36798,0.4825 1.04297,1.6182 1.5,2.5236 0.45702,0.9055 1.19192,2.6319 1.63311,3.8365 0.44118,1.2046 1.63565,4.9286 2.65437,8.2756 1.01872,3.347 2.22494,7.1867 2.6805,8.5328 0.45556,1.3461 0.9107,2.4474 1.01143,2.4474 0.10072,0 0.37975,-0.9227 0.62005,-2.0505 0.2403,-1.1278 0.66838,-3.5984 0.95128,-5.4901 0.2829,-1.8918 0.75836,-5.8505 1.05657,-8.7972 0.29821,-2.9467 0.5422,-5.8934 0.5422,-6.5484 0,-0.655 -0.0678,-1.1909 -0.1507,-1.1909 -0.0829,0 -1.5319,0.9521 -3.22005,2.1157 -1.68815,1.1637 -3.11313,2.072 -3.16663,2.0185 -0.0535,-0.053 2.33345,-5.3285 5.30434,-11.7223 2.97089,-6.3937 5.62836,-12.06686 5.90549,-12.60705 l 0.50388,-0.98216 2.35974,10.12561 c 1.29786,5.5691 2.73702,11.7628 3.19814,13.7637 0.46113,2.0009 0.76659,3.638 0.67881,3.638 -0.0878,0 -1.43408,-1.2705 -2.99178,-2.8234 -2.58573,-2.5777 -2.84269,-2.7677 -2.95288,-2.1828 -0.0664,0.3523 -0.38228,3.4385 -0.702,6.8583 -0.31971,3.4197 -0.86217,8.0036 -1.20546,10.1864 -0.34329,2.1829 -0.921,5.1301 -1.28379,6.5495 -0.3628,1.4193 -1.03784,3.2902 -1.5001,4.1575 -0.46225,0.8673 -1.13895,1.7725 -1.50377,2.0115 -0.36482,0.239 -1.0031,0.5321 -1.41841,0.6512 -0.42407,0.1216 -1.15968,0.1048 -1.678,-0.038 -0.50759,-0.1402 -1.28801,-0.5621 -1.73425,-0.9376 -0.45837,-0.3856 -1.31811,-1.7337 -1.97617,-3.0986 -0.64065,-1.3288 -1.95426,-4.9759 -2.91913,-8.1046 -0.96488,-3.1287 -2.32516,-7.4744 -3.02285,-9.6573 -0.69769,-2.1828 -1.64841,-4.8021 -2.11271,-5.8208 l -0.84418,-1.8521 -0.52724,0.6615 c -0.28998,0.3638 -1.3456,2.3283 -2.34582,4.3656 -1.00021,2.0373 -2.96971,6.5021 -4.37665,9.9219 -1.40694,3.4197 -3.19808,7.4679 -3.9803,8.9958 -0.78222,1.528 -1.86463,3.2326 -2.40537,3.788 -0.54073,0.5555 -1.29337,1.1703 -1.67252,1.3664 -0.37916,0.1961 -1.10199,0.4277 -1.60628,0.5147 -0.61982,0.107 -1.25981,0 -1.97524,-0.3354 z m 122.55963,-0.3308 c -0.55043,-0.1296 -1.34819,-0.4153 -1.7728,-0.6349 -0.42461,-0.2195 -0.83746,-0.3992 -0.91744,-0.3992 -0.08,0 -0.14543,0.2381 -0.14543,0.5292 0,0.4744 -0.17639,0.5291 -1.70585,0.5291 h -1.70584 l -0.0801,-3.7046 -0.0801,-3.7046 1.48828,5e-4 c 1.4257,4e-4 1.49464,0.032 1.63964,0.7572 0.0832,0.4163 0.4703,1.1359 0.8601,1.5991 0.38981,0.4633 1.19628,1.091 1.79216,1.395 0.59588,0.304 1.82731,0.6125 2.7365,0.6854 1.00379,0.081 1.95921,0.01 2.43248,-0.1901 0.43309,-0.1794 0.92102,-0.6647 1.09813,-1.0923 0.26506,-0.6399 0.24618,-0.8802 -0.11209,-1.427 -0.23695,-0.3617 -0.79308,-0.8449 -1.23585,-1.0739 -0.44277,-0.2289 -1.85527,-0.817 -3.13891,-1.3069 -1.28363,-0.4898 -2.97407,-1.2108 -3.75653,-1.602 -0.78247,-0.3913 -1.76099,-1.026 -2.1745,-1.4106 -0.41351,-0.3845 -0.97906,-1.1409 -1.25677,-1.6808 -0.34216,-0.6652 -0.50306,-1.5181 -0.49913,-2.6458 0.004,-1.0444 0.18844,-2.0663 0.49619,-2.7439 0.26971,-0.5938 0.93732,-1.5138 1.48358,-2.0443 0.54626,-0.5305 1.66243,-1.2177 2.48038,-1.5272 1.23808,-0.4683 1.886,-0.5424 3.86842,-0.4424 1.6669,0.084 2.71857,0.2835 3.50572,0.6646 l 1.12448,0.5445 v -0.65 c 0,-0.6295 0.0525,-0.6476 1.65365,-0.5713 l 1.65364,0.079 0.0734,3.7703 0.0734,3.7703 h -1.56169 c -1.49183,0 -1.56823,-0.033 -1.70789,-0.7276 -0.0804,-0.4002 -0.42368,-1.1443 -0.76281,-1.6537 -0.33914,-0.5093 -1.15143,-1.2014 -1.8051,-1.538 -0.98006,-0.5047 -1.50676,-0.5957 -3.00327,-0.5189 -1.40775,0.072 -1.89733,0.206 -2.18281,0.5964 -0.20242,0.2768 -0.36803,0.8456 -0.36803,1.2639 0,0.4183 0.11183,0.9695 0.2485,1.2249 0.13668,0.2554 0.70223,0.6503 1.25678,0.8776 0.55454,0.2273 2.19888,0.8619 3.65409,1.4102 1.45521,0.5483 3.12316,1.2711 3.70657,1.6063 0.58341,0.3352 1.44058,1.0019 1.90482,1.4816 0.46424,0.4796 1.02871,1.3147 1.25436,1.8558 0.22566,0.541 0.40767,1.6721 0.40448,2.5135 -0.003,0.9099 -0.20333,1.9647 -0.49323,2.603 -0.26808,0.5902 -0.98032,1.495 -1.58276,2.0106 -0.60244,0.5157 -1.70385,1.1341 -2.44758,1.3743 -0.82037,0.265 -2.14678,0.4263 -3.37236,0.4102 -1.11107,-0.015 -2.47048,-0.1327 -3.02092,-0.2623 z m 19.16101,-0.2985 c -1.1863,-0.3979 -2.10974,-0.9541 -3.12666,-1.8835 -0.824,-0.7531 -1.76564,-1.9579 -2.19483,-2.8081 -0.41343,-0.819 -0.89829,-2.2342 -1.07746,-3.1449 -0.18992,-0.9654 -0.26533,-2.5377 -0.18083,-3.7705 0.1153,-1.6821 0.33656,-2.5181 1.08183,-4.0874 0.5837,-1.2291 1.44198,-2.4779 2.27676,-3.3127 0.73693,-0.737 2.0229,-1.656 2.85771,-2.0424 1.35921,-0.6291 1.83583,-0.7034 4.56054,-0.7115 2.69561,-0.01 3.1913,0.064 4.34523,0.6321 0.71639,0.3526 1.77033,1.1089 2.3421,1.6806 0.57177,0.5718 1.34637,1.7097 1.72133,2.5287 0.48215,1.0532 0.71658,2.091 0.80075,3.5449 l 0.119,2.0558 -3.53972,10e-4 c -1.94685,6e-4 -5.071,0.079 -6.94255,0.1746 l -3.40283,0.1735 0.17787,1.6113 c 0.0978,0.8863 0.45385,2.2194 0.79117,2.9626 0.36122,0.7958 1.02417,1.6646 1.61288,2.1136 0.8458,0.6451 1.29554,0.7774 2.92364,0.8596 1.61308,0.082 2.15359,-0.01 3.34395,-0.5529 0.78093,-0.3575 1.86915,-1.0445 2.41827,-1.5266 l 0.99839,-0.8766 0.95122,0.9512 0.95122,0.9512 -0.87902,1.0105 c -0.48346,0.5557 -1.465,1.4551 -2.18121,1.9985 -0.7162,0.5434 -2.07915,1.228 -3.02877,1.5214 -1.15476,0.3566 -2.44025,0.5295 -3.88151,0.5219 -1.47201,-0.01 -2.68848,-0.1903 -3.83847,-0.576 z m 7.49633,-15.3538 c -0.10276,-0.6185 -0.35067,-1.4447 -0.55092,-1.836 -0.20024,-0.3914 -0.62937,-0.8974 -0.95362,-1.1245 -0.32425,-0.2271 -1.12861,-0.4125 -1.78745,-0.412 -0.72193,6e-4 -1.53533,0.2068 -2.04712,0.5188 -0.46708,0.2848 -1.07526,0.969 -1.35152,1.5204 -0.27626,0.5514 -0.58099,1.33 -0.67717,1.7301 l -0.17488,0.7277 h 3.86476 3.86475 z m 53.03829,15.5938 c -0.66513,-0.1873 -1.77806,-0.6738 -2.47318,-1.0812 -0.69512,-0.4074 -1.7467,-1.2349 -2.33684,-1.8389 -0.59014,-0.604 -1.35332,-1.7061 -1.69594,-2.4491 -0.34263,-0.743 -0.7541,-2.0527 -0.91439,-2.9104 -0.16029,-0.8578 -0.22019,-2.341 -0.13311,-3.2961 0.0871,-0.9551 0.38539,-2.3965 0.6629,-3.2031 0.27751,-0.8066 0.7978,-1.9301 1.15619,-2.4968 0.3584,-0.5666 1.21269,-1.5466 1.89843,-2.1776 0.68574,-0.6311 1.92286,-1.4635 2.74915,-1.8498 1.33908,-0.6259 1.81931,-0.7025 4.41869,-0.7046 2.75637,0 3.01188,0.045 4.65799,0.8552 1.05204,0.518 2.23561,1.3857 2.98915,2.1913 0.68612,0.7335 1.55605,2.0076 1.93316,2.8313 0.53749,1.1741 0.71199,2.0445 0.80749,4.0277 0.0694,1.442 -0.0132,3.1801 -0.19208,4.042 -0.17266,0.8317 -0.6666,2.2179 -1.09765,3.0805 -0.43106,0.8626 -1.32525,2.0675 -1.9871,2.6776 -0.66185,0.6101 -1.87906,1.421 -2.70491,1.802 -1.22527,0.5653 -1.96403,0.7064 -4.01509,0.7667 -1.48025,0.043 -3.01068,-0.066 -3.72286,-0.2667 z m 5.37021,-3.3471 c 0.36321,-0.2857 0.94099,-1.1489 1.28395,-1.9183 0.54933,-1.2322 0.62459,-1.8082 0.63207,-4.8383 0.005,-2.0438 -0.13558,-3.9998 -0.34654,-4.82 -0.19527,-0.7592 -0.71048,-1.917 -1.14491,-2.5729 -0.5577,-0.842 -1.05606,-1.266 -1.69548,-1.4425 -0.5843,-0.1614 -1.25024,-0.1549 -1.87695,0.018 -0.53423,0.1475 -1.29969,0.5965 -1.70103,0.9978 -0.40901,0.4091 -0.93586,1.4155 -1.19882,2.2902 -0.32203,1.0712 -0.46337,2.3901 -0.45078,4.2063 0.0101,1.4552 0.15474,3.2159 0.32145,3.9127 0.16671,0.6967 0.55923,1.8117 0.87226,2.4776 0.3184,0.6774 0.92889,1.4302 1.38569,1.7088 0.48704,0.297 1.30927,0.4983 2.03762,0.4989 0.81402,6e-4 1.44124,-0.1722 1.88147,-0.5185 z m -139.58824,-9.0605 c -2.25113,-6.882 -4.17261,-12.8997 -4.26997,-13.3727 -0.17107,-0.831 -0.22118,-0.8599 -1.49153,-0.8599 h -1.31452 l 0.0788,-1.6536 0.0788,-1.6537 6.28385,-0.071 6.28386,-0.071 v 1.4286 1.4286 l -1.18627,0.2987 c -0.94298,0.2375 -1.22196,0.4409 -1.36033,0.9922 -0.0957,0.3815 -0.0387,1.2435 0.12687,1.9156 0.16551,0.6721 1.11695,4.3896 2.11431,8.2612 l 1.81337,7.0392 0.83831,-3.0705 c 0.46107,-1.6887 1.87072,-6.4935 3.13257,-10.6772 l 2.29426,-7.6068 h 1.94259 c 1.32044,0 1.97696,0.1059 2.04992,0.3307 0.059,0.1819 1.29537,4.2003 2.74742,8.9297 1.45205,4.7294 2.78494,9.2538 2.96197,10.0542 0.17703,0.8004 0.38571,1.5655 0.46373,1.7003 0.078,0.1348 0.41961,-0.7582 0.75909,-1.9844 0.33947,-1.2262 1.28518,-4.7298 2.10156,-7.7857 0.81639,-3.0559 1.70925,-6.0251 1.98415,-6.5981 0.27489,-0.5731 0.49981,-1.0791 0.49981,-1.1245 0,-0.045 -0.65485,-0.083 -1.45521,-0.083 h -1.45521 v -1.7258 -1.7257 l 4.82865,0.072 4.82864,0.072 0.0795,1.3752 0.0795,1.3753 -1.05623,0.2844 c -0.70573,0.1901 -1.37118,0.6524 -2.00531,1.3932 -0.69575,0.8128 -1.18161,1.8529 -1.82023,3.8966 -0.47913,1.5333 -2.17235,7.0482 -3.76272,12.2553 l -2.89158,9.4675 -1.95492,-0.075 -1.95493,-0.075 -2.48484,-7.5406 c -1.36666,-4.1474 -2.8243,-8.7908 -3.2392,-10.3188 -0.654,-2.4085 -0.77859,-2.6725 -0.93647,-1.9843 -0.10017,0.4365 -0.64796,2.4606 -1.21733,4.4979 -0.56936,2.0373 -1.84367,6.3235 -2.83179,9.525 l -1.79659,5.8208 -1.89666,0.077 -1.89667,0.077 z m 35.24268,12.1596 c -0.0219,-0.036 -0.0605,-0.6912 -0.0858,-1.4552 -0.0386,-1.1693 0.0282,-1.3891 0.422,-1.3891 0.25733,0 0.80193,-0.2871 1.21023,-0.6381 l 0.74236,-0.6381 0.0832,-6.5056 0.0832,-6.5057 h -1.48487 -1.48487 l 0.0788,-1.6536 0.0788,-1.6537 2.11667,-0.1668 c 1.16416,-0.092 2.65244,-0.3578 3.30729,-0.5914 0.65484,-0.2336 1.69664,-0.4264 2.3151,-0.4285 h 1.12448 v 9.1281 9.1281 h 1.32292 1.32291 v 1.7198 1.7198 h -5.55625 c -3.05593,0 -5.57419,-0.03 -5.59613,-0.066 z m 54.01488,-1.3359 c 0,-1.3547 0.0304,-1.4131 0.9008,-1.7278 0.49544,-0.1792 0.99648,-0.5305 1.11341,-0.7808 0.11694,-0.2502 0.27712,-3.3374 0.35597,-6.8603 l 0.14336,-6.4053 -1.45521,-0.077 -1.45521,-0.077 v -1.5875 -1.5875 l 2.26156,-0.1725 c 1.24385,-0.095 2.71691,-0.3628 3.27345,-0.5953 0.55655,-0.2326 1.53315,-0.4228 2.17022,-0.4228 h 1.15831 v 0.9017 0.9018 l 1.87181,-0.9604 c 1.47008,-0.7542 2.2521,-0.9818 3.64382,-1.0605 0.97461,-0.055 2.2817,0.037 2.90465,0.2049 0.69005,0.1858 1.53459,0.7069 2.1613,1.3337 l 1.02867,1.0286 0.66328,-0.5217 c 0.36481,-0.287 1.34763,-0.8351 2.18405,-1.218 1.02758,-0.4704 2.13648,-0.7357 3.41933,-0.8181 1.33412,-0.086 2.28752,0.01 3.20688,0.3128 0.76785,0.255 1.70631,0.8423 2.27175,1.4216 0.5299,0.5429 1.16886,1.5229 1.41992,2.1778 0.37618,0.9811 0.47537,2.3658 0.56387,7.8713 l 0.10738,6.6807 h 1.29957 1.29956 v 1.7198 1.7198 h -5.42396 -5.42396 v -1.4293 c 0,-1.3465 0.0455,-1.4452 0.78444,-1.7028 0.51841,-0.1807 0.85489,-0.526 0.99219,-1.0181 0.11426,-0.4095 0.20774,-3.0663 0.20774,-5.9039 0,-4.5229 -0.0615,-5.2833 -0.49869,-6.1633 -0.27429,-0.5521 -0.83392,-1.1772 -1.24364,-1.389 -0.40971,-0.2119 -1.14233,-0.3852 -1.62805,-0.3852 -0.48571,0 -1.41436,0.2678 -2.06366,0.5953 -0.74935,0.3778 -1.17249,0.7644 -1.15849,1.0583 0.0121,0.2547 0.0419,3.261 0.0661,6.6807 l 0.0441,6.2177 h 1.32292 1.32292 v 1.7198 1.7198 h -5.55625 -5.55625 v -1.4342 c 0,-1.3879 0.0264,-1.4399 0.81828,-1.6139 0.61077,-0.1341 0.91851,-0.4196 1.21349,-1.1256 0.31777,-0.7605 0.37715,-1.9867 0.30306,-6.2574 -0.0751,-4.3278 -0.17366,-5.4613 -0.53219,-6.12 -0.24202,-0.4446 -0.75223,-0.9506 -1.13379,-1.1245 -0.38156,-0.1738 -0.98963,-0.316 -1.35126,-0.316 -0.36163,0 -1.09581,0.1831 -1.63151,0.4069 -0.53571,0.2239 -1.18672,0.5995 -1.44671,0.8348 -0.42923,0.3884 -0.47271,1.0202 -0.47271,6.8691 v 6.4412 h 1.19063 1.19062 v 1.7198 1.7198 h -5.42395 -5.42396 z m 60.76597,1.2257 c -0.097,-0.097 -0.17639,-0.7424 -0.17639,-1.4342 0,-1.1724 0.052,-1.2692 0.76631,-1.4261 0.42148,-0.093 0.98702,-0.412 1.25677,-0.7098 0.44387,-0.49 0.49871,-1.1547 0.57727,-6.9965 l 0.0868,-6.455 h -1.48851 -1.4885 l 0.0788,-1.6536 0.0788,-1.6537 2.11666,-0.1678 c 1.16417,-0.092 2.68839,-0.367 3.38717,-0.6105 0.69877,-0.2434 1.71081,-0.406 2.24896,-0.3613 0.89461,0.074 0.98566,0.1564 1.06256,0.9573 0.0463,0.4817 0.16532,0.8336 0.26459,0.7818 0.0993,-0.052 0.97696,-0.4835 1.95045,-0.9595 1.02082,-0.4992 2.381,-0.9286 3.2136,-1.0145 0.79399,-0.082 1.97543,-0.069 2.62542,0.028 0.64999,0.098 1.68099,0.4998 2.29111,0.8941 0.81629,0.5274 1.33258,1.1693 1.9546,2.4299 l 0.84529,1.7131 0.0862,6.6874 0.0862,6.6874 h 1.30287 1.30286 v 1.7198 1.7198 h -5.55625 -5.55625 v -1.402 c 0,-1.3535 0.0311,-1.4133 0.89663,-1.7263 0.5724,-0.207 1.01169,-0.602 1.21483,-1.0924 0.22276,-0.5378 0.2911,-2.3413 0.22785,-6.0128 -0.0813,-4.7185 -0.14489,-5.3374 -0.63401,-6.1701 -0.299,-0.5089 -0.83478,-1.0799 -1.19062,-1.2688 -0.3975,-0.211 -1.13546,-0.2921 -1.91381,-0.2103 -0.69676,0.073 -1.73855,0.3982 -2.3151,0.7223 l -1.04827,0.5891 v 6.5659 6.5658 h 1.32291 1.32292 v 1.7198 1.7198 h -5.51215 c -3.03169,0 -5.59153,-0.079 -5.68854,-0.1764 z m 25.22361,-1.2526 c 0,-1.3878 0.0288,-1.4457 0.80271,-1.6157 0.4415,-0.097 0.96795,-0.4339 1.16991,-0.7487 0.29529,-0.4602 0.3842,-2.839 0.45405,-12.1479 l 0.0869,-11.5755 h -1.38906 l -1.38907,10e-5 v -1.682 -1.682 l 2.05052,-0.1443 c 1.12779,-0.079 2.58631,-0.3521 3.24115,-0.6061 0.65484,-0.2539 1.72641,-0.4738 2.38125,-0.4887 l 1.19062,-0.027 0.0695,9.5911 0.0694,9.5912 0.98888,-0.01 c 0.91617,-0.01 1.14955,-0.1908 3.17349,-2.5136 l 2.1846,-2.5071 h -1.06012 -1.06012 v -1.7198 -1.7198 h 4.89479 4.89479 v 1.4238 1.4238 l -1.25677,0.3134 c -0.69122,0.1724 -1.75067,0.6012 -2.35432,0.9528 -0.60366,0.3517 -1.99268,1.6187 -3.08672,2.8155 l -1.98915,2.1762 1.12557,1.0696 c 0.61906,0.5883 2.02296,2.2646 3.11976,3.7252 1.09681,1.4605 2.42799,3.0364 2.95818,3.5019 0.5302,0.4655 1.26519,0.922 1.63332,1.0144 0.62142,0.1559 0.66368,0.2651 0.59046,1.5251 l -0.0789,1.3572 -2.77812,0.072 c -2.29962,0.059 -2.93763,-0.013 -3.70417,-0.4225 -0.50932,-0.2719 -1.50277,-1.1972 -2.20766,-2.0562 -0.70489,-0.859 -2.17235,-2.8417 -3.26102,-4.4061 -1.08866,-1.5643 -2.14905,-2.8442 -2.3564,-2.8442 -0.29796,0 -0.377,0.4923 -0.377,2.3481 0,1.2915 -0.0731,2.7136 -0.16239,3.1602 l -0.16239,0.8119 1.41916,0.081 1.41916,0.081 v 1.5875 1.5875 l -5.6224,0.071 -5.62239,0.071 z m -135.53493,-23.6936 c -0.40135,-0.08 -1.0817,-0.4787 -1.5119,-0.8863 -0.44992,-0.4263 -0.85917,-1.1515 -0.96343,-1.7072 -0.11283,-0.6015 -0.0415,-1.3672 0.18898,-2.0284 0.23154,-0.6643 0.70704,-1.2885 1.26926,-1.6662 0.54106,-0.3635 1.29677,-0.6039 1.89793,-0.6039 0.68711,0 1.25151,0.2125 1.80818,0.6809 0.4451,0.3746 0.94589,1.137 1.11287,1.6943 0.16698,0.5573 0.22817,1.4117 0.13598,1.8987 -0.0922,0.487 -0.43501,1.2189 -0.76184,1.6265 -0.33902,0.4228 -0.99194,0.826 -1.52026,0.9389 -0.50933,0.1088 -1.25442,0.1326 -1.65577,0.053 z"
       id="path24" /></g></svg>
